<svg xmlns="http://www.w3.org/2000/svg" viewBox="0 0 475.93 457.85"><defs><style>.cls-1,.cls-2{fill:#272262;}.cls-2{fill-rule:evenodd;}.cls-3{fill:#1b1464;}.cls-4{fill:#fff;}</style></defs><title>Asset 1</title><g id="Layer_2" data-name="Layer 2"><g id="Layer_1-2" data-name="Layer 1"><path class="cls-1" d="M131.15,400.09l-14.37,11.1a116.6,116.6,0,0,1-14.45,9.6c-3.32,1.86-6,3.33-7.94,4.17a34.71,34.71,0,0,1-6.56,2.28h0l2.62.36s17.28,1.5,40.55-4.1a151.68,151.68,0,0,0,25.68-8.36,61.21,61.21,0,0,0,16.17-9.88l1.67-1.43-11.88,1.51c-.38.05-10.29-.16-24.32,5.56l-23.42,8.17c33.91-22.52,43.64-22.36,49.59-21.39,3.9.61,4.16,1,8.77,2.1.2,0,1.24.24,2.37.42.32-3.24.13-6.79-1.61-8.61-2.05-2.16-5-5.21-12.13-4.84-8.69.42-17.47,5.07-22.95,8.16A52.75,52.75,0,0,0,131.15,400.09Z"/><path class="cls-2" d="M366,59.82c33.91,36.29,55,86.93,55,143,0,110.37-81.62,199.83-182.31,199.83S56.34,313.17,56.34,202.8c0-56.05,21.06-106.69,55-143-30.7,34.88-49.6,82.34-49.6,134.64,0,107.1,79.22,193.93,176.93,193.93s176.93-86.83,176.93-193.93C415.57,142.16,396.68,94.7,366,59.82Z"/><path class="cls-1" d="M106.81,377.1l-15.47,8a112.38,112.38,0,0,1-15.28,6.52c-3.45,1.18-6.27,2.09-8.21,2.55a33.53,33.53,0,0,1-6.58,1h0l2.41.8s16,4.41,38.92,3.18a144.87,144.87,0,0,0,25.65-3.42,58.9,58.9,0,0,0,17-6.49l1.82-1.07-11.46-.63c-.37,0-9.67-1.94-23.88,1L88.2,392.15c35.86-15.32,45-13.47,50.44-11.52,3.57,1.25,3.76,1.64,7.9,3.49.18.06,1.13.45,2.16.81.87-3,1.3-6.38,0-8.39-1.56-2.39-3.77-5.77-10.58-6.67-8.27-1.11-17.34,1.74-23,3.7A49.9,49.9,0,0,0,106.81,377.1Z"/><path class="cls-1" d="M77.75,349.28l-15.93,4.81a108,108,0,0,1-15.51,3.49c-3.45.5-6.26.87-8.16,1a32.45,32.45,0,0,1-6.36-.19h0l2.12,1.16s14.31,6.93,36.05,9.75a139.72,139.72,0,0,0,24.72,1.24,56.51,56.51,0,0,0,17.08-3.17l1.89-.69L103,364.06c-.35-.08-8.76-3.49-22.64-3.19l-22.72-.66c36.39-8.19,44.66-4.87,49.45-2.09,3.13,1.79,3.24,2.19,6.81,4.66.17.08,1,.61,1.89,1.13,1.34-2.66,2.33-5.77,1.44-7.89-1-2.52-2.55-6.09-8.8-8.12-7.57-2.47-16.61-1.37-22.32-.51A47.61,47.61,0,0,0,77.75,349.28Z"/><path class="cls-1" d="M58.56,317.32l-15.78,1.75a102.92,102.92,0,0,1-15.16.59c-3.32-.12-6-.26-7.83-.5a30.56,30.56,0,0,1-5.94-1.28h0l1.79,1.46s12.23,9,32.16,15.39a132.65,132.65,0,0,0,23,5.44,53.6,53.6,0,0,0,16.58,0l1.9-.31-9.56-4.28c-.31-.14-7.62-4.8-20.7-6.91l-21.2-4.56c35.56-1.39,42.76,3.16,46.76,6.6,2.63,2.23,2.67,2.62,5.6,5.55.13.11.82.75,1.58,1.39,1.71-2.26,3.18-5,2.7-7.16-.54-2.55-1.34-6.15-6.84-9.13-6.69-3.64-15.36-4.17-20.86-4.35A45.1,45.1,0,0,0,58.56,317.32Z"/><path class="cls-1" d="M45.16,280.53c-.29,0-2.17-.17-15.09-1.09a97,97,0,0,1-14.29-2.07c-3.09-.68-5.59-1.28-7.25-1.82a27.81,27.81,0,0,1-5.33-2.22h0L4.62,275s9.9,10.52,27.45,20A125.54,125.54,0,0,0,52.65,304a51.3,51.3,0,0,0,15.52,2.85l1.84,0-8.22-5.65c-.27-.18-6.3-5.81-18.18-10.05l-19.08-7.93c33.55,4.85,39.5,10.35,42.65,14.25,2.09,2.54,2,2.92,4.28,6.17.11.13.64.84,1.25,1.58,2-1.83,3.84-4.15,3.76-6.24-.07-2.48-.18-6-4.83-9.74C66,284.74,58,282.75,52.86,281.63A43.39,43.39,0,0,0,45.16,280.53Z"/><path class="cls-1" d="M38,240.84l-13.9-3.61a93.42,93.42,0,0,1-13-4.39c-2.77-1.18-5-2.17-6.45-3a27.08,27.08,0,0,1-4.6-3H0l1,1.81s7.43,11.53,22.2,23.37a119,119,0,0,0,17.65,12,48.49,48.49,0,0,0,14,5.33l1.71.35-6.69-6.7c-.23-.21-4.9-6.51-15.27-12.51l-16.44-10.7c30.5,10.31,35.11,16.48,37.38,20.66a64.64,64.64,0,0,1,2.93,6.5c.09.14.46.9.89,1.69,2.18-1.37,4.31-3.21,4.6-5.18.36-2.33.85-5.62-2.84-9.93-4.47-5.22-11.63-8.46-16.22-10.4A41.33,41.33,0,0,0,38,240.84Z"/><path class="cls-1" d="M37.14,199.74c-.23-.12-1.77-.84-12.32-5.76a87.78,87.78,0,0,1-11.35-6.32c-2.38-1.57-4.29-2.88-5.5-3.86a25.55,25.55,0,0,1-3.78-3.58h0l.66,1.87s5,12,16.66,25.58A113,113,0,0,0,35.9,221.89,45.64,45.64,0,0,0,48,229.26l1.53.62-5.09-7.39c-.17-.24-3.43-6.9-12.06-14.28L18.93,195.43C45.56,210.27,48.8,216.8,50.2,221.09a63.15,63.15,0,0,1,1.61,6.56c0,.14.27.91.54,1.72,2.27-.9,4.56-2.25,5.17-4,.74-2.11,1.77-5.09-.93-9.73-3.27-5.64-9.38-9.89-13.32-12.48A38.71,38.71,0,0,0,37.14,199.74Z"/><path class="cls-1" d="M42.72,158.64c-.2-.14-1.5-1.08-10.46-7.45a83,83,0,0,1-9.45-7.81c-1.94-1.87-3.5-3.41-4.45-4.53a24,24,0,0,1-2.89-4h0l.29,1.85s2.53,12,11.08,26.6A107.74,107.74,0,0,0,37.77,179a43.3,43.3,0,0,0,10,8.92l1.31.84L45.62,181c-.12-.26-2-7-8.75-15.33L26.55,151.53c22.18,18.33,24.06,24.95,24.63,29.18a59.94,59.94,0,0,1,.38,6.36c0,.14.09.89.2,1.69,2.26-.44,4.62-1.31,5.5-2.85,1-1.83,2.5-4.43.79-9.2-2.07-5.8-7-10.79-10.23-13.87A38.33,38.33,0,0,0,42.72,158.64Z"/><path class="cls-1" d="M53.12,126.49c-.15-.17-1.21-1.26-8.4-8.68A78.8,78.8,0,0,1,37.3,109c-1.48-2.06-2.65-3.75-3.34-5a23.09,23.09,0,0,1-2-4.17h0l0,1.76a93.29,93.29,0,0,0,5.71,26.51,101.23,101.23,0,0,0,7.43,16.36,40.6,40.6,0,0,0,7.74,10l1.07,1L52,147.69c-.07-.25-.66-6.81-5.49-15.67l-7.12-14.88c17.39,20.75,18,27.2,17.8,31.21a55.29,55.29,0,0,1-.73,6c0,.14-.07.84-.11,1.6,2.17,0,4.5-.42,5.57-1.7,1.28-1.52,3.08-3.68,2.31-8.38-.92-5.72-4.65-11.18-7.1-14.57A34.54,34.54,0,0,0,53.12,126.49Z"/><path class="cls-1" d="M71.94,82.28c-.12-.18-.89-1.36-6.27-9.43a73.15,73.15,0,0,1-5.33-9.41c-1-2.15-1.8-3.9-2.24-5.13A20.73,20.73,0,0,1,57,54.13h0l-.35,1.62a87.17,87.17,0,0,0,.77,25.4,92.57,92.57,0,0,0,4.06,16.34A38,38,0,0,0,66.89,108l.82,1.1-.42-7.45c0-.24.56-6.4-2.39-15.38l-4-14.92c12.51,22.08,12,28.13,11.11,31.78a49.83,49.83,0,0,1-1.69,5.36c0,.12-.21.77-.37,1.46,2,.34,4.22.38,5.42-.63A8.47,8.47,0,0,0,78.89,102c.11-5.43-2.39-11.09-4.06-14.64A32.07,32.07,0,0,0,71.94,82.28Z"/><path class="cls-1" d="M98.92,45c-.07-.18-.6-1.4-4.16-9.71a69.2,69.2,0,0,1-3.29-9.54c-.56-2.13-1-3.88-1.19-5.08a18.89,18.89,0,0,1-.33-4h0L89.36,18a81.3,81.3,0,0,0-3.59,23.43,87.29,87.29,0,0,0,1,15.68,35.45,35.45,0,0,0,3.2,10.54l.58,1.15.87-6.91a39.79,39.79,0,0,0,.41-14.5L90.61,33.05c7.74,22.37,6.23,27.83,4.81,31A47.05,47.05,0,0,1,93,68.72c0,.11-.31.66-.58,1.27,1.77.65,3.8,1.06,5.08.35a7.93,7.93,0,0,0,4.5-6.12c1-4.95-.31-10.58-1.25-14.12A31,31,0,0,0,98.92,45Z"/><path class="cls-1" d="M96.15,131c.11-.2.86-1.51,6-10.47a78.47,78.47,0,0,1,6.46-9.57c1.56-2,2.87-3.58,3.83-4.58a23.8,23.8,0,0,1,3.46-3.07h0l-1.7.45s-11,3.46-23.91,12.8a101.67,101.67,0,0,0-13.68,11.65,40.81,40.81,0,0,0-7.44,10.18l-.67,1.31,6.93-3.95c.22-.12,6.37-2.51,13.56-9.59l12.33-11C86.19,137.68,80.16,140.05,76.25,141a52.59,52.59,0,0,1-5.92.93c-.13,0-.83.17-1.56.35.61,2.07,1.64,4.2,3.17,4.88,1.81.81,4.38,1.95,8.69-.09,5.24-2.46,9.46-7.55,12.05-10.84A35.24,35.24,0,0,0,96.15,131Z"/><path class="cls-1" d="M110.86,80l10.69-3.74A73.59,73.59,0,0,0,131.47,72c2.1-1.1,3.79-2,4.87-2.74a21.8,21.8,0,0,0,3.43-2.66h0L139.06,68a87,87,0,0,1-15.9,19.82,94.14,94.14,0,0,1-13.08,10.6,38.36,38.36,0,0,1-10.66,5.11L98.1,104l4.83-5.71c.15-.18,3.4-5.44,11.16-10.83l12.22-9.48C103,88,99.81,93.18,98.29,96.62a52.83,52.83,0,0,0-1.87,5.3c0,.11-.3.73-.59,1.39-1.8-.93-3.59-2.24-4-3.77a8.52,8.52,0,0,1,1.58-8c3.16-4.4,8.58-7.41,12.06-9.24A34,34,0,0,1,110.86,80Z"/><path class="cls-1" d="M126.4,46.8l10.4-1.86a67.93,67.93,0,0,0,9.78-2.48c2.09-.7,3.79-1.3,4.9-1.79A20.12,20.12,0,0,0,155,38.73h0L154.15,40a80.6,80.6,0,0,1-17.6,15.87,87.94,87.94,0,0,1-13.63,7.81,35.57,35.57,0,0,1-10.58,3.11l-1.27.16,5.29-4.54a39.92,39.92,0,0,1,11.9-8.3l12.67-6.91c-23,5.83-26.68,10.08-28.59,13a47.21,47.21,0,0,0-2.52,4.59c-.06.1-.38.64-.74,1.19-1.53-1.13-3-2.6-3.08-4.06a7.93,7.93,0,0,1,2.64-7.12c3.58-3.58,9-5.54,12.49-6.7A30.79,30.79,0,0,1,126.4,46.8Z"/><path class="cls-1" d="M173,419.08c-.38.29-2.9,2.23-20.11,15.55a164.51,164.51,0,0,1-20.24,13.43c-4.65,2.6-8.46,4.67-11.13,5.84a48.25,48.25,0,0,1-9.18,3.19h0l3.67.51c.06,0,24.2,2.09,56.78-5.75a211.12,211.12,0,0,0,36-11.7,85.47,85.47,0,0,0,22.64-13.84l2.34-2-16.63,2.12c-.54.08-14.42-.21-34.06,7.8l-32.8,11.43c47.48-31.53,61.11-31.3,69.44-29.94,5.46.85,5.83,1.36,12.28,2.93.28,0,1.75.34,3.32.59.46-4.54.18-9.51-2.26-12.05-2.87-3-6.95-7.29-17-6.79-12.16.6-24.46,7.11-32.14,11.43A74.12,74.12,0,0,0,173,419.08Z"/><path class="cls-1" d="M344.78,400.09l14.36,11.1a116.6,116.6,0,0,0,14.45,9.6c3.32,1.86,6,3.33,8,4.17a34.71,34.71,0,0,0,6.56,2.28h0l-2.62.36c-.05,0-17.29,1.5-40.56-4.1a151.54,151.54,0,0,1-25.67-8.36,61.39,61.39,0,0,1-16.18-9.88l-1.67-1.43,11.88,1.51c.39.05,10.3-.16,24.33,5.56L361,419.07c-33.91-22.52-43.65-22.36-49.59-21.39-3.91.61-4.17,1-8.78,2.1-.2,0-1.24.24-2.36.42-.33-3.24-.13-6.79,1.61-8.61,2.06-2.16,5-5.21,12.12-4.84,8.7.42,17.48,5.07,23,8.16A52.75,52.75,0,0,1,344.78,400.09Z"/><path class="cls-1" d="M369.11,377.1l15.47,8a112.44,112.44,0,0,0,15.29,6.52c3.45,1.18,6.27,2.09,8.21,2.55a33.27,33.27,0,0,0,6.58,1h0l-2.41.8s-16,4.41-38.92,3.18a145.13,145.13,0,0,1-25.66-3.42,59.06,59.06,0,0,1-17-6.49l-1.82-1.07,11.46-.63c.37,0,9.67-1.94,23.89,1l23.49,3.62c-35.87-15.32-45-13.47-50.45-11.52-3.57,1.25-3.75,1.64-7.9,3.49-.17.06-1.13.45-2.16.81-.87-3-1.29-6.38,0-8.39,1.55-2.39,3.77-5.77,10.58-6.67,8.26-1.11,17.35,1.74,23.05,3.7A49.1,49.1,0,0,1,369.11,377.1Z"/><path class="cls-1" d="M398.18,349.28l15.93,4.81a107.62,107.62,0,0,0,15.5,3.49c3.45.5,6.27.87,8.16,1a32.56,32.56,0,0,0,6.37-.19h0L442,359.52s-14.3,6.93-36.05,9.75a139.62,139.62,0,0,1-24.71,1.24,56.42,56.42,0,0,1-17.08-3.17l-1.9-.69,10.66-2.59c.35-.08,8.77-3.49,22.65-3.19l22.71-.66c-36.38-8.19-44.66-4.87-49.44-2.09-3.14,1.79-3.24,2.19-6.82,4.66-.15.08-1,.61-1.89,1.13-1.34-2.66-2.32-5.77-1.43-7.89,1.05-2.52,2.55-6.09,8.79-8.12,7.58-2.47,16.62-1.37,22.32-.51A47.86,47.86,0,0,1,398.18,349.28Z"/><path class="cls-1" d="M417.37,317.32l15.78,1.75a102.88,102.88,0,0,0,15.16.59c3.31-.12,6-.26,7.83-.5a30.5,30.5,0,0,0,5.93-1.28h0l-1.79,1.46s-12.23,9-32.15,15.39a132.73,132.73,0,0,1-23,5.44,53.6,53.6,0,0,1-16.58,0l-1.9-.31,9.57-4.28c.31-.14,7.61-4.8,20.69-6.91l21.21-4.56c-35.57-1.39-42.76,3.16-46.77,6.6-2.63,2.23-2.67,2.62-5.59,5.55-.13.11-.83.75-1.58,1.39-1.72-2.26-3.18-5-2.71-7.16.54-2.55,1.34-6.15,6.85-9.13,6.68-3.64,15.35-4.17,20.85-4.35A45.25,45.25,0,0,1,417.37,317.32Z"/><path class="cls-1" d="M430.77,280.53c.28,0,2.17-.17,15.08-1.09a96.59,96.59,0,0,0,14.29-2.07c3.1-.68,5.6-1.28,7.25-1.82a28.1,28.1,0,0,0,5.34-2.22h0L471.3,275s-9.9,10.52-27.45,20A125.11,125.11,0,0,1,423.28,304a51.34,51.34,0,0,1-15.53,2.85l-1.83,0,8.22-5.65c.26-.18,6.3-5.81,18.18-10.05l19.07-7.93c-33.55,4.85-39.5,10.35-42.65,14.25-2.08,2.54-2,2.92-4.27,6.17-.12.13-.64.84-1.25,1.58-2-1.83-3.84-4.15-3.77-6.24.07-2.48.19-6,4.83-9.74,5.64-4.56,13.67-6.55,18.79-7.67A43.39,43.39,0,0,1,430.77,280.53Z"/><path class="cls-1" d="M438,240.84l13.91-3.61a93.24,93.24,0,0,0,13-4.39c2.77-1.18,5-2.17,6.46-3a27.9,27.9,0,0,0,4.6-3h0l-1,1.81s-7.44,11.53-22.2,23.37a119.07,119.07,0,0,1-17.66,12,48.49,48.49,0,0,1-14,5.33l-1.7.35,6.69-6.7c.23-.21,4.89-6.51,15.26-12.51l16.44-10.7c-30.5,10.31-35.1,16.48-37.37,20.66a62.35,62.35,0,0,0-2.94,6.5c-.08.14-.45.9-.89,1.69-2.17-1.37-4.3-3.21-4.59-5.18-.36-2.33-.86-5.62,2.83-9.93,4.48-5.22,11.63-8.46,16.22-10.4A41.65,41.65,0,0,1,438,240.84Z"/><path class="cls-1" d="M438.78,199.74c.23-.12,1.77-.84,12.32-5.76a88,88,0,0,0,11.36-6.32c2.37-1.57,4.29-2.88,5.5-3.86a25.12,25.12,0,0,0,3.77-3.58h0l-.65,1.87s-4.95,12-16.67,25.58A112.36,112.36,0,0,1,440,221.89a45.68,45.68,0,0,1-12.12,7.37l-1.53.62,5.09-7.39c.17-.24,3.43-6.9,12.06-14.28L457,195.43c-26.63,14.84-29.87,21.37-31.26,25.66a60.53,60.53,0,0,0-1.62,6.56c-.05.14-.27.91-.53,1.72-2.27-.9-4.57-2.25-5.18-4-.73-2.11-1.76-5.09.94-9.73,3.27-5.64,9.38-9.89,13.32-12.48A38.38,38.38,0,0,1,438.78,199.74Z"/><path class="cls-1" d="M433.21,158.64c.19-.14,1.5-1.08,10.46-7.45a83.89,83.89,0,0,0,9.45-7.81c1.94-1.87,3.49-3.41,4.45-4.53a24.55,24.55,0,0,0,2.89-4h0l-.3,1.85s-2.53,12-11.08,26.6A107,107,0,0,1,438.16,179a43,43,0,0,1-10,8.92l-1.3.84L430.3,181c.12-.26,2-7,8.75-15.33l10.33-14.17c-22.19,18.33-24.07,24.95-24.64,29.18a57.61,57.61,0,0,0-.37,6.36c0,.14-.09.89-.21,1.69-2.25-.44-4.62-1.31-5.49-2.85-1-1.83-2.51-4.43-.79-9.2,2.06-5.8,7-10.79,10.22-13.87A37.35,37.35,0,0,1,433.21,158.64Z"/><path class="cls-1" d="M422.81,126.49c.15-.17,1.2-1.26,8.4-8.68a77.52,77.52,0,0,0,7.41-8.84c1.48-2.06,2.66-3.75,3.35-5a23.23,23.23,0,0,0,2-4.17h0l.05,1.76a93.12,93.12,0,0,1-5.72,26.51,100.37,100.37,0,0,1-7.43,16.36,40.06,40.06,0,0,1-7.74,10l-1.06,1,1.87-7.75c.07-.25.66-6.81,5.49-15.67l7.13-14.88c-17.4,20.75-18,27.2-17.8,31.21a52.86,52.86,0,0,0,.73,6c0,.14.07.84.1,1.6-2.16,0-4.5-.42-5.57-1.7-1.28-1.52-3.08-3.68-2.31-8.38.93-5.72,4.65-11.18,7.1-14.57A34.21,34.21,0,0,1,422.81,126.49Z"/><path class="cls-1" d="M403,83.22l6.27-9.42a72.83,72.83,0,0,0,5.34-9.41c1-2.15,1.81-3.91,2.24-5.13A22.24,22.24,0,0,0,418,55.08h0l.33,1.61a87.11,87.11,0,0,1-.75,25.4,95,95,0,0,1-4.07,16.34,38.47,38.47,0,0,1-5.43,10.5l-.82,1.09.42-7.45c0-.24-.55-6.39,2.38-15.37l4-14.92c-12.5,22.08-12,28.12-11.1,31.78a51.28,51.28,0,0,0,1.69,5.36c0,.12.21.76.36,1.45-2,.35-4.21.38-5.42-.62a8.49,8.49,0,0,1-3.54-7.33c-.13-5.42,2.38-11.09,4.06-14.63A34.33,34.33,0,0,1,403,83.22Z"/><path class="cls-1" d="M379.84,45,384,35.26a67,67,0,0,0,3.29-9.53c.57-2.14,1-3.89,1.19-5.09a18.89,18.89,0,0,0,.33-4h0L389.4,18A81.68,81.68,0,0,1,393,41.47a89.18,89.18,0,0,1-1,15.68,35,35,0,0,1-3.22,10.55l-.56,1.14-.88-6.91a39.76,39.76,0,0,1-.41-14.5l1.18-14.38c-7.73,22.37-6.22,27.83-4.81,31a48.15,48.15,0,0,0,2.46,4.63c0,.11.32.67.58,1.27-1.77.66-3.8,1.06-5.08.35a7.93,7.93,0,0,1-4.5-6.12c-1-4.95.32-10.58,1.26-14.12A30.48,30.48,0,0,1,379.84,45Z"/><path class="cls-1" d="M379.78,131l-6-10.47A78.53,78.53,0,0,0,367.3,111c-1.57-2-2.87-3.58-3.84-4.58a23.58,23.58,0,0,0-3.45-3.07h0l1.7.45s11,3.46,23.91,12.8a101.51,101.51,0,0,1,13.67,11.65,41.34,41.34,0,0,1,7.45,10.18l.66,1.31-6.93-3.95c-.22-.12-6.37-2.51-13.55-9.59l-12.33-11c15.14,22.44,21.18,24.81,25.08,25.72a52.8,52.8,0,0,0,5.93.93c.12,0,.82.17,1.56.35-.62,2.07-1.64,4.2-3.17,4.88-1.82.81-4.38,1.95-8.69-.09-5.23-2.46-9.46-7.55-12.05-10.84A34.31,34.31,0,0,1,379.78,131Z"/><path class="cls-1" d="M365.06,80l-10.68-3.74A73.59,73.59,0,0,1,344.46,72c-2.1-1.1-3.8-2-4.88-2.74a21.38,21.38,0,0,1-3.42-2.66h0l.7,1.49a87.2,87.2,0,0,0,15.91,19.82,94.14,94.14,0,0,0,13.08,10.6,38.24,38.24,0,0,0,10.65,5.11l1.32.39L373,98.25a42.55,42.55,0,0,0-11.16-10.83l-12.22-9.48c23.28,10.1,26.5,15.24,28,18.68a50.44,50.44,0,0,1,1.87,5.3c.06.11.31.73.59,1.39,1.8-.93,3.6-2.24,4-3.77a8.48,8.48,0,0,0-1.57-8c-3.17-4.4-8.59-7.41-12.06-9.24A33.91,33.91,0,0,0,365.06,80Z"/><path class="cls-1" d="M302.9,419.45l19.37,15a156.38,156.38,0,0,0,19.49,12.94c4.47,2.51,8.14,4.49,10.72,5.62a46.81,46.81,0,0,0,8.84,3.08h0l-3.53.48c-.06,0-23.32,2-54.69-5.53a204.6,204.6,0,0,1-34.63-11.27,82.24,82.24,0,0,1-21.8-13.32l-2.26-1.94,16,2c.53.08,13.88-.21,32.8,7.51l31.59,11C279.09,414.67,266,414.89,258,416.2c-5.26.82-5.61,1.32-11.83,2.83-.26,0-1.68.32-3.2.56-.43-4.36-.16-9.15,2.18-11.6,2.76-2.91,6.7-7,16.35-6.53,11.71.57,23.56,6.84,30.95,11A70.68,70.68,0,0,1,302.9,419.45Z"/><path class="cls-1" d="M131.28,23.91c0-.16.22-1.25,1.49-8.68a55.93,55.93,0,0,1,2-8.17c.57-1.75,1.06-3.17,1.48-4.09a15.63,15.63,0,0,1,1.58-3h0l-1,.73A67.76,67.76,0,0,0,123.66,15.5a74,74,0,0,0-6.44,11.41,29.56,29.56,0,0,0-2.53,8.84l-.12,1.06,3.74-4.44a33.21,33.21,0,0,0,6.87-10l5.69-10.6c-4.73,19.17-8.26,22.3-10.71,23.91a40.45,40.45,0,0,1-3.82,2.13l-1,.62c1,1.27,2.18,2.47,3.4,2.55a6.61,6.61,0,0,0,5.92-2.25c3-3,4.58-7.54,5.53-10.44A24.94,24.94,0,0,0,131.28,23.91Z"/><path class="cls-1" d="M352,46.8l-10.39-1.86a67.42,67.42,0,0,1-9.79-2.48c-2.09-.7-3.79-1.3-4.89-1.79a19.77,19.77,0,0,1-3.55-1.94h0l.87,1.27a80.52,80.52,0,0,0,17.61,15.87,87,87,0,0,0,13.62,7.81,35.65,35.65,0,0,0,10.58,3.11l1.26.16-5.28-4.54a39.92,39.92,0,0,0-11.9-8.3L337.5,47.2c22.95,5.83,26.68,10.08,28.58,13a45.07,45.07,0,0,1,2.53,4.59c.06.1.38.64.74,1.19,1.53-1.13,3-2.6,3.08-4.06a7.92,7.92,0,0,0-2.65-7.12c-3.57-3.58-9-5.54-12.48-6.7A31,31,0,0,0,352,46.8Z"/><path class="cls-1" d="M350.08,25.08c0-.16-.22-1.25-1.49-8.68a56.86,56.86,0,0,0-2-8.16c-.58-1.76-1.07-3.17-1.47-4.1a18.15,18.15,0,0,0-1.6-3h0l1.05.73a67.94,67.94,0,0,1,13.15,14.77,73.5,73.5,0,0,1,6.43,11.41,29.78,29.78,0,0,1,2.54,8.84L366.8,38l-3.75-4.44a33.09,33.09,0,0,1-6.86-10L350.5,13c4.73,19.17,8.26,22.31,10.71,23.91A38.07,38.07,0,0,0,365,39c.08.05.53.32,1,.63-.95,1.26-2.19,2.46-3.4,2.54a6.61,6.61,0,0,1-5.92-2.24c-3-3-4.58-7.55-5.52-10.45A25,25,0,0,1,350.08,25.08Z"/><path class="cls-3" d="M163.38,195.8a119.15,119.15,0,0,1-5.23,14.34c-2.75.48-10.16,2.28-17.38,2.28-22.71,0-34.3-15.67-34.3-31.73,0-20.33,15-32.77,36.48-32.77,7.79,0,14.35,1.8,17.48,2.18.38,4.28,1,10.07,1.81,14.82l-3,.67c-1.9-6.37-4.37-10.55-9.21-12.54a23.66,23.66,0,0,0-9.5-1.62c-16,0-24.23,12.73-24.23,27.27,0,18.34,10.55,30.12,25,30.12,9.69,0,14.34-4.47,19.19-14Z"/><path class="cls-3" d="M229.59,195.8a119.15,119.15,0,0,1-5.23,14.34c-2.75.48-10.16,2.28-17.38,2.28-22.71,0-34.3-15.67-34.3-31.73,0-20.33,15-32.77,36.48-32.77,7.79,0,14.35,1.8,17.48,2.18.38,4.28,1.05,10.07,1.81,14.82l-2.95.67c-1.9-6.37-4.37-10.55-9.21-12.54a23.66,23.66,0,0,0-9.5-1.62c-16,0-24.23,12.73-24.23,27.27,0,18.34,10.55,30.12,25,30.12,9.69,0,14.34-4.47,19.19-14Z"/><path class="cls-3" d="M291.91,211v-2.66c7.79-.76,8.07-1.33,8-11.5l.09-38.76c-7.79,17.39-20.33,44.56-23.65,52.92h-2.47c-3.23-8.65-14-34.77-21.19-52-1.61,33.26-1.71,40.76-1.71,42.56.1,5.33,2.47,6.08,8.93,6.75V211H237.38v-2.66c5.51-.57,7.79-1.71,8.55-6.84.57-4.18.66-7.6,3.13-42.28.38-4.94-.57-6.55-8.93-7.31v-2.66h16.53l21,48.17,22.51-48.17H316.8v2.66c-8.17,1-9.22,1.8-9,8.45l.38,36.48c.38,10.17.67,10.65,9,11.5V211Z"/><path class="cls-3" d="M350.23,149.25c6.75,0,12.16,1.23,16.06,4.08,3.7,2.76,6.27,7.22,6.27,13.49,0,13.87-11.88,19.48-20.9,19.48a16.1,16.1,0,0,1-2.57-.19l-6.55-1.71v14.82c0,8,.66,8.17,9.4,9.12V211H325.72v-2.66c8.17-.85,8.55-1.42,8.55-9.31V161.31c0-8.45-1-8.64-8.55-9.4v-2.66Zm-7.69,31.82a17.2,17.2,0,0,0,6.93,1.24c6.37,0,14.25-3.23,14.25-15.2,0-10.45-6.84-14.63-14.82-14.63-2.75,0-4.75.47-5.32,1.14-.76.66-1,1.8-1,4.37Z"/><path class="cls-1" d="M412.1,224c0,91.13-79,165-176.5,165S59.1,315.13,59.1,224M159,347.18c6,0,12-3.22,12-3.22s-3.68,4.6,1.84,4.14,10.56-6,10.56-6c-.92,3.21,1.38,3.67,1.38,3.67,6.89-.46,11.48-8.73,11.48-8.73s.46,4.6,2.76,4.6c1.84,0,7.81-6,8.73-6.89.32-.33.46,1.83,2.75,2.29s4.6-4.59,4.6-4.59.92,2.75,3.21,2.3,3.68-3.68,3.68-3.68a15.12,15.12,0,0,0,1.38,2.76c.46.46,2.29-1.38,2.29-1.38s3.22,6,2.3,11-9.65,17-11.48,19.3a3.36,3.36,0,0,0,3.21,5.51c3.68-.46,4.6-2.76,6.43-2.76s2.3,5.06,5.06,5.06,3.21-4.14,4.59-4.14.46,3.68,4.13,4.14,4.6-5.06,6.44-5.06,3.21,4.6,5.51,1.38-9.19-16.08-9.65-23.89,11-11.48,11-11.48c.46,1.38,5.05,4.13,5.51,3.67a7.64,7.64,0,0,0,.92-2.29c.46,1.84,4.13,3.67,5.51,4.13s2.3-2.29,2.3-2.29c3.21,5.51,7.81,6.89,9.64,6.89s1.84-4.14,1.84-4.14c3.22,6,11,9.19,12.4,8.27s.46-3.22.46-3.22,8.73,5.52,12.41,6,.46-4.6.46-4.6c16.53,7.81,16.07-.46,15.16-3.21s-17-8.73-19.76-14.24c-9.1-18.2-32.15-34.46-39.5-31.24-3.6,1.57-2.3,6.89-3.22,11s-6.89,5.06-6.89,5.06.92-2.76-2.76-6.43c-10.1-8.73-6.43-11.49-6.43-11.49l5.06-.92-4.6-1.83s-1.38-3.68-4.13-3.68-9.65.92-9.19,6.89,4.59,18.38-2.76,17.46-7.35-3.68-8.26-5.06,2.29-11-2.76-10.56c-28.86,2.62-37,38.25-57.42,44.1C153.9,340.75,153,347.18,159,347.18Z"/><path class="cls-4" d="M121.84,262.6c.63,2,2.14,3.43,5.64,3.43s4.69-1.28,4.69-2.87-1-2.7-5.52-3.47c-5.74-1-7-2.8-7-5.3,0-3.35,3.19-5.2,7.28-5.2,6.08,0,7.56,3.16,7.77,5.09h-3.08c-.34-1.17-1.09-2.73-4.77-2.73-2.53,0-4.09.85-4.09,2.54,0,1.41.75,2.26,4.77,2.94,6.73,1.16,7.81,3.24,7.81,5.82,0,3-2.38,5.53-8.08,5.53-5.29,0-7.9-2.4-8.48-5.78Z"/><path class="cls-4" d="M156.43,262.5c-1,3.18-3.38,5.89-8.76,5.89-6.24,0-9.53-4.35-9.53-9.57a9.31,9.31,0,0,1,9.69-9.65c5.4,0,8,2.94,8.65,6h-3.11c-.7-1.73-2.07-3.49-5.58-3.49-4,0-6.42,3-6.42,7s2.32,7.21,6.45,7.21c3.27,0,4.6-1.38,5.53-3.42Z"/><path class="cls-4" d="M160.05,249.57h3v7.32h10.47v-7.32h3.05V268h-3.05v-8.58H163.1V268h-3Z"/><path class="cls-4" d="M200.28,258.72c0,5.19-3.49,9.67-9.8,9.67-6,0-9.69-4.27-9.69-9.67a9.75,9.75,0,0,1,19.49,0ZM184,258.66c0,3.85,2.27,7.23,6.6,7.23s6.45-3.35,6.45-7.11-2.22-7.11-6.62-7.11C186.31,251.67,184,255,184,258.66Z"/><path class="cls-4" d="M222.77,258.72c0,5.19-3.5,9.67-9.8,9.67a9.26,9.26,0,0,1-9.7-9.67,9.43,9.43,0,0,1,9.8-9.55A9.33,9.33,0,0,1,222.77,258.72Zm-16.27-.06c0,3.85,2.26,7.23,6.6,7.23s6.44-3.35,6.44-7.11-2.21-7.11-6.61-7.11C208.8,251.67,206.5,255,206.5,258.66Z"/><path class="cls-4" d="M226.78,249.57h3v15.89h10.93L240.3,268H226.78Z"/><path class="cls-4" d="M269.63,258.72c0,5.19-3.49,9.67-9.8,9.67-6,0-9.69-4.27-9.69-9.67a9.75,9.75,0,0,1,19.49,0Zm-16.27-.06c0,3.85,2.27,7.23,6.6,7.23s6.45-3.35,6.45-7.11-2.22-7.11-6.62-7.11C255.66,251.67,253.36,255,253.36,258.66Z"/><path class="cls-4" d="M273.66,249.57H288v2.51H276.71v5.57h10.48v2.55H276.71V268h-3Z"/><path class="cls-4" d="M299.12,249.57h3v15.89h10.92l-.44,2.54H299.12Z"/><path class="cls-4" d="M320.15,262.75,318,268h-3.16l7.8-18.43h3.78L334.51,268H331.2l-2.3-5.25Zm7.8-2.55c-2.12-4.88-3.13-7.23-3.56-8.52h0c-.39,1.25-1.58,4.32-3.33,8.52Z"/><path class="cls-4" d="M339.62,268,334,249.57h3.21c1.3,4.47,3.86,12.9,4.26,15.56h0c.53-2.8,3.2-11.14,4.6-15.56h3c1.27,4.11,4.07,13.29,4.49,15.48h0c.57-2.91,3.18-11.22,4.5-15.48h3.07l-6,18.43h-3.32c-1.29-4.16-4-12.9-4.47-15.19h0c-.48,2.53-3,10.53-4.52,15.19Z"/></g></g></svg>