<?xml version="1.0" encoding="UTF-8"?>
<svg width="544px" height="530px" viewBox="0 0 544 530" version="1.1" xmlns="http://www.w3.org/2000/svg" xmlns:xlink="http://www.w3.org/1999/xlink">
    <!-- Generator: Sketch 61.2 (89653) - https://sketch.com -->
    <title>Group 6</title>
    <desc>Created with Sketch.</desc>
    <defs>
        <filter x="-10.5%" y="-10.9%" width="121.0%" height="121.8%" filterUnits="objectBoundingBox" id="filter-1">
            <feOffset dx="0" dy="0" in="SourceAlpha" result="shadowOffsetOuter1"></feOffset>
            <feGaussianBlur stdDeviation="13.5" in="shadowOffsetOuter1" result="shadowBlurOuter1"></feGaussianBlur>
            <feColorMatrix values="0 0 0 0 1   0 0 0 0 1   0 0 0 0 1  0 0 0 0.5 0" type="matrix" in="shadowBlurOuter1" result="shadowMatrixOuter1"></feColorMatrix>
            <feMerge>
                <feMergeNode in="shadowMatrixOuter1"></feMergeNode>
                <feMergeNode in="SourceGraphic"></feMergeNode>
            </feMerge>
        </filter>
    </defs>
    <g id="Page-1" stroke="none" stroke-width="1" fill="none" fill-rule="evenodd">
        <g id="Group-6" filter="url(#filter-1)" transform="translate(22.000000, 21.000000)">
            <ellipse id="Oval" stroke="#979797" fill="#FFFFFF" cx="250.5" cy="351.5" rx="113" ry="53"></ellipse>
            <path d="M135.818787,421.326979 L120.619896,433.220819 C115.784598,437.029398 110.67596,440.467767 105.33639,443.507383 C101.824885,445.500405 98.9902975,447.075535 96.9383943,447.97561 C94.7120321,449.022908 92.387602,449.841357 90,450.418669 L90,450.418669 L92.771127,450.804415 C92.771127,450.804415 111.047873,452.41169 135.660134,446.411195 C144.958797,444.249348 154.048575,441.251508 162.82141,437.453311 C169.030204,434.845255 174.800238,431.273601 179.924128,426.866722 L181.690457,425.334453 L169.125195,426.952444 C168.723275,427.006019 158.241646,426.781001 143.402367,432.910079 L118.631453,441.664374 C154.497452,417.533808 164.788698,417.705251 171.081906,418.744622 C175.206866,419.398248 175.481864,419.816139 180.357778,420.994808 C180.569314,420.994808 181.669304,421.251972 182.864484,421.444846 C183.202943,417.97313 183.001983,414.169244 181.161616,412.219083 C178.993368,409.904606 175.873206,406.636479 168.331933,407.03294 C159.140676,407.482977 149.854228,412.465532 144.05813,415.77652 C141.154842,417.375813 138.397554,419.233268 135.818787,421.326979 L135.818787,421.326979 Z" id="Path" fill="#272262" fill-rule="nonzero"></path>
            <path d="M385.384687,62.0210588 C420.907146,100.232201 443,153.553012 443,212.591279 C443,328.804113 357.498876,423 252.020951,423 C146.543026,423 61,328.783054 61,212.57022 C61,153.553012 83.0614271,100.232201 118.615313,62 C86.4554928,98.7264985 66.6567762,148.698965 66.6567762,203.767653 C66.6567762,316.537378 149.643778,407.964037 252,407.964037 C354.356222,407.964037 437.343224,316.537378 437.343224,203.767653 C437.311797,148.720023 417.523556,98.7475572 385.384687,62.0210588 Z" id="Path" fill="#272262"></path>
            <path d="M111.990298,396.794237 L95.6879284,405.131664 C90.4974121,407.786448 85.115328,410.057653 79.5857819,411.926667 C75.9501532,413.156438 72.978422,414.10482 70.9340395,414.584222 C68.6633619,415.158182 66.3405754,415.507294 64,415.626401 L64,415.626401 L66.539671,416.460143 C66.539671,416.460143 83.4005574,421.05615 107.553777,419.77427 C116.653282,419.385977 125.699396,418.193136 134.583886,416.21002 C140.873675,414.886818 146.917347,412.605015 152.498578,409.446283 L154.416503,408.331152 L142.339894,407.67458 C141.949986,407.67458 132.149595,405.652754 117.175021,408.716758 L92.3789795,412.479022 C130.168441,396.512849 139.800223,398.440879 145.532924,400.473127 C149.295009,401.77585 149.495232,402.1823 153.857987,404.11033 C154.047672,404.17286 155.048787,404.57931 156.134206,404.954494 C157.051017,401.827959 157.504153,398.305396 156.134206,396.210618 C154.49027,393.719811 152.16136,390.197248 144.984945,389.259288 C136.269974,388.10247 126.711959,391.072678 120.747421,393.115348 C117.721969,394.077423 114.790933,395.308758 111.990298,396.794237 L111.990298,396.794237 Z" id="Path" fill="#272262" fill-rule="nonzero"></path>
            <path d="M79.2210562,369.981843 L62.5073612,374.939143 C57.1803397,376.529176 51.7412634,377.731391 46.2343285,378.53602 C42.6146017,379.051332 39.6663604,379.432662 37.6728877,379.566643 C35.4474322,379.716257 33.2123946,379.650668 31,379.370825 L31,379.370825 L33.2242959,380.566348 C33.2242959,380.566348 48.2382932,387.70857 71.047818,390.614929 C79.637684,391.793761 88.317107,392.22143 96.9839475,391.892902 C103.093091,391.717666 109.137921,390.615622 114.904218,388.625825 L116.887199,387.914695 L105.71326,385.214461 C105.346041,385.132011 96.5223012,381.617584 81.9594583,381.926771 L58.1217211,381.24656 C96.30197,372.805752 104.978822,376.227423 110.004472,379.092556 C113.288456,380.937373 113.403868,381.349622 117.149498,383.895263 C117.327861,383.977713 118.198694,384.523943 119.132479,385.059867 C120.538402,382.318408 121.577106,379.113169 120.643321,376.928247 C119.594125,374.331075 117.967871,370.651749 111.410395,368.559583 C103.46798,366.013942 93.9832464,367.147628 87.9923363,368.033965 C85.014904,368.422895 82.0792513,369.074829 79.2210562,369.981843 L79.2210562,369.981843 Z" id="Path" fill="#272262" fill-rule="nonzero"></path>
            <path d="M62.9830699,336.391803 L46.7537511,338.224721 C41.5785355,338.821061 36.3671585,339.027608 31.1620862,338.842676 C27.7475527,338.716991 24.9912425,338.570357 23.1091352,338.318985 C21.0340796,338.079896 18.9875877,337.630794 17,336.978337 L17,336.978337 L18.8409684,338.507514 C18.8409684,338.507514 31.4192046,347.93395 51.9166903,354.62672 C59.6194764,357.23897 67.5358571,359.145789 75.5715909,360.324477 C81.2212188,361.225174 86.9740609,361.225174 92.6236888,360.324477 L94.5777893,359.999789 L84.7455784,355.516995 C84.4267515,355.370361 76.908607,350.489562 63.4561679,348.279586 L41.6525203,343.503525 C78.2250536,342.047665 85.630066,346.813252 89.7439618,350.416245 C92.4488482,352.751907 92.4899872,353.160386 95.5034158,356.229214 C95.6371175,356.344426 96.3467645,357.014751 97.1284047,357.685075 C98.8870951,355.317992 100.398952,352.448166 99.9052843,350.185821 C99.3499084,347.514998 98.5271292,343.744423 92.8705226,340.623225 C85.9900319,336.810756 77.0731628,336.255643 71.4165562,336.067115 C68.6015463,335.914134 65.7787029,336.022813 62.9830699,336.391803 Z" id="Path" fill="#272262" fill-rule="nonzero"></path>
            <path d="M47.6672255,296.732697 C47.3585149,296.732697 45.3572188,296.550119 31.6036308,295.562053 C26.4852678,295.203319 21.4005243,294.46021 16.3916515,293.338902 C13.1022872,292.608592 10.4409892,291.9642 8.67388732,291.384248 C6.70571817,290.790267 4.80417656,289.991212 3,289 L3,289 L4.51161726,290.793556 C4.51161726,290.793556 15.0503573,302.091885 33.7326692,312.27327 C40.7343279,316.149187 48.0662695,319.384089 55.6404743,321.939141 C60.9581666,323.812941 66.5311919,324.845439 72.1618122,325 L74.1205275,325 L65.3701797,318.931981 C65.0827595,318.738663 58.6637088,312.692124 46.0172207,308.138425 L25.7061945,299.621718 C61.4208135,304.830549 67.7547027,310.73747 71.1079382,314.926014 C73.3327833,317.653938 73.2369766,318.062053 75.6640803,321.552506 C75.7811775,321.692124 76.3453726,322.454654 76.9947293,323.249403 C79.1237677,321.28401 81.082483,318.792363 80.9973215,316.547733 C80.9228052,313.884248 80.8057081,310.103819 75.8556938,306.087112 C69.8518055,301.254177 61.335652,299.116945 55.8640233,297.914081 C53.1723227,297.273509 50.4290373,296.878126 47.6672255,296.732697 Z" id="Path" fill="#272262" fill-rule="nonzero"></path>
            <path d="M40.2465205,254.025665 L25.524767,250.15119 C20.8274843,248.924783 16.2255593,247.349996 11.7562205,245.439571 C8.82246095,244.173122 6.46062567,243.110593 4.92490317,242.219785 C3.19744486,241.316598 1.56507043,240.23779 0.0529559481,239 L0,239 L1.05911896,240.942604 C1.05911896,240.942604 8.92837285,253.317312 24.5715599,266.024732 C30.4094531,270.876504 36.6657592,275.186883 43.2650096,278.903873 C47.8853079,281.577521 52.8875426,283.507373 58.092675,284.624358 L59.9037685,285 L52.8182626,277.809146 C52.5746653,277.583761 47.6285797,270.822212 36.6455161,264.382641 L19.2336003,252.89874 C51.5367287,263.964069 56.4192671,270.586094 58.8234671,275.072329 C59.983739,277.338104 61.0197207,279.667047 61.9266857,282.04853 C62.0220064,282.198787 62.4138804,283.014466 62.8693016,283.862343 C65.1781809,282.391974 67.4341043,280.417172 67.7412488,278.302846 C68.1225316,275.802147 68.6414999,272.271115 64.7333509,267.645357 C59.9990892,262.04293 52.4157974,258.565562 47.5544414,256.483434 C45.1944404,255.448238 42.7490085,254.625801 40.2465205,254.025665 L40.2465205,254.025665 Z" id="Path" fill="#272262" fill-rule="nonzero"></path>
            <path d="M37.072399,210.832863 C36.8345643,210.704793 35.2421062,209.936367 24.3327342,204.685461 C20.2644777,202.739387 16.3415298,200.484859 12.5961112,197.940395 C10.1350395,196.264801 8.15997787,194.866694 6.90876079,193.820781 C5.48318937,192.687874 4.17347151,191.407636 3,190 L3,190 L3.68248204,191.995771 C3.68248204,191.995771 8.85280055,204.802859 20.9099833,219.296214 C25.4204225,224.80402 30.4004343,229.883169 35.79016,234.472614 C39.5387589,237.750728 43.7603353,240.404591 48.3023308,242.3383 L49.8844482,243 L44.621064,235.112968 C44.4452732,234.856826 41.0742255,227.748892 32.1502557,219.872533 L18.242099,206.232984 C45.7792153,222.071083 49.1295817,229.040274 50.5772709,233.618808 C51.2528369,235.920219 51.8085792,238.257297 52.2421135,240.620016 C52.2421135,240.769432 52.5213107,241.59122 52.8005079,242.455699 C55.1478325,241.495167 57.5158384,240.05437 58.1466172,238.186669 C58.9118243,235.934756 59.97691,232.754329 57.184938,227.802255 C53.8035497,221.782924 47.4854204,217.24708 43.4112095,214.482884 C41.4097356,213.070588 39.2880781,211.848893 37.072399,210.832863 L37.072399,210.832863 Z" id="Path" fill="#272262" fill-rule="nonzero"></path>
            <path d="M44.9107816,168.712298 C44.6985924,168.566871 43.3193624,167.590428 33.8132853,160.973474 C30.2716133,158.514899 26.920494,155.803243 23.7873445,152.860694 C21.729109,150.918197 20.0740331,149.318494 19.0661343,148.155073 C17.9009865,146.876879 16.8735118,145.484496 16,144 L16,144 L16.3076744,145.921721 C16.3076744,145.921721 18.991868,158.386941 28.0629573,173.552959 C31.4267937,179.315079 35.307467,184.772807 39.6590983,189.861621 C42.6830761,193.470546 46.2624158,196.596576 50.2685595,199.127435 L51.6583989,200 L47.9875253,191.939158 C47.8602118,191.669078 45.8656331,184.66778 38.7042468,176.01484 L27.7552829,161.326656 C51.2870678,180.367279 53.2816465,187.243925 53.8863857,191.637915 C54.1403018,193.831549 54.2748784,196.036852 54.2895453,198.244482 C54.2895453,198.389909 54.3850304,199.168985 54.5017345,200 C56.8994727,199.542942 59.4033055,198.639214 60.3369381,197.03951 C61.3978842,195.138564 62.9893034,192.437767 61.1750855,187.482842 C58.9789271,181.457986 53.7484627,176.274532 50.3216068,173.075125 C48.6496088,171.471085 46.8392772,170.011388 44.9107816,168.712298 L44.9107816,168.712298 Z" id="Path" fill="#272262" fill-rule="nonzero"></path>
            <path d="M56.4711673,132.978261 C56.3047838,132.793478 55.129007,131.608696 47.1536907,123.543478 C44.1754943,120.552471 41.4246682,117.351894 38.923253,113.967391 C37.2816023,111.728261 35.983811,109.891304 35.2184468,108.532609 C34.3260294,107.0983 33.5828201,105.579816 33,104 L33,104 L33,105.913043 C33.6677272,115.769143 35.8014869,125.476752 39.3336657,134.728261 C41.5375096,140.883467 44.295548,146.834439 47.5751956,152.51087 C49.8400865,156.551228 52.7370131,160.218893 56.1605847,163.380435 L57.3474538,164.467391 L55.2288371,156.021739 C55.1511914,155.75 54.4967496,148.619565 49.1392006,138.98913 L41.2415299,122.815217 C60.530925,145.369565 61.2075512,152.380435 60.9857065,156.73913 C60.8373473,158.925885 60.5670324,161.103051 60.1759735,163.26087 C60.1759735,163.413043 60.0983278,164.173913 60.0539589,165 C62.4609737,165 65.0454642,164.543478 66.2323333,163.152174 C67.6521392,161.5 69.6487414,159.152174 68.7946393,154.043478 C67.7741538,147.826087 63.6367505,141.891304 60.9191531,138.206522 C59.6011041,136.335383 58.1123248,134.585438 56.4711673,132.978261 L56.4711673,132.978261 Z" id="Path" fill="#272262" fill-rule="nonzero"></path>
            <path d="M76.379238,87.643418 C76.2478721,87.4474743 75.4049408,86.1629545 69.5153686,77.3781451 C67.3189122,74.111484 65.3686382,70.687629 63.6805322,67.1346437 C62.5858162,64.7942051 61.7100434,62.8891968 61.2283683,61.5502482 C60.6686176,60.0793682 60.2650285,58.5543312 60.0241807,57 L60.0241807,57 L59.6410301,58.7634933 C58.5622622,67.971568 58.8462563,77.2871402 60.4839614,86.413327 C61.4190341,92.4643816 62.9067016,98.4181126 64.9285085,104.200661 C66.2904075,108.298153 68.288717,112.158493 70.8509221,115.641596 L71.7485893,116.83903 L71.2888085,108.729138 C71.2888085,108.467879 71.9018495,101.76225 68.6724373,91.9868367 L64.2935732,75.7452809 C77.9884706,99.7810418 77.4301654,106.366927 76.4558682,110.34023 C75.9500555,112.318214 75.3323833,114.266234 74.6057981,116.174998 C74.6057981,116.305627 74.3759077,117.013202 74.2007532,117.764319 C76.3901852,118.134435 78.8204548,118.177978 80.134114,117.078516 C82.6990758,115.247972 84.1510778,112.245403 83.9875144,109.110139 C84.1079331,103.199171 81.3711431,97.03783 79.5429673,93.1733847 C78.6598547,91.2381501 77.6008819,89.3871432 76.379238,87.643418 Z" id="Path" fill="#272262" fill-rule="nonzero"></path>
            <path d="M104.27549,48.3560499 C104.199674,48.1695307 103.625643,46.905345 99.7698874,38.2943752 C98.3322295,35.0865634 97.1412887,31.7826081 96.2065624,28.4088575 C95.600039,26.2017136 95.123485,24.3883325 94.9177002,23.1448711 C94.6450489,21.7793114 94.5252343,20.3898468 94.5602847,19 L94.5602847,19 L93.9212689,20.3781697 C91.3924156,28.245836 90.082413,36.4256141 90.0330208,44.6567524 C89.8828083,50.0928549 90.2453021,55.5308429 91.1160982,60.9046473 C91.6695334,64.6957573 92.8389293,68.3808103 94.5819462,71.8263827 L95.2101311,73.0180332 L96.1524086,65.8577683 C97.2614492,60.9177219 97.4119705,55.8247205 96.5964703,50.8326104 L95.2751158,35.9732473 C103.658136,59.1534392 102.022689,64.8111883 100.484719,68.0959987 C99.7060328,69.7545413 98.8309833,71.3701107 97.863671,72.9351358 C97.863671,73.0491197 97.527917,73.6190395 97.2354861,74.2511324 C99.1525332,74.9246739 101.351181,75.3495232 102.73752,74.6138086 C105.383547,73.4303409 107.219546,71.0414148 107.611368,68.2721557 C108.694446,63.1428777 107.275614,57.3089716 106.257522,53.6407606 C105.75933,51.8272202 105.09612,50.0588971 104.27549,48.3560499 Z" id="Path" fill="#272262" fill-rule="nonzero"></path>
            <path d="M100.583333,137.363538 C100.697046,137.158673 101.472363,135.816808 106.785865,126.638863 C108.765921,123.213205 110.997981,119.936744 113.463924,116.83608 C115.076582,114.787432 116.430802,113.169 117.423207,112.144675 C118.509598,110.98386 119.707518,109.930662 121,109 L121,109 L119.242616,109.460946 C119.242616,109.460946 107.871308,113.005108 94.5255274,122.572296 C89.4654067,126.128731 84.7330058,130.122115 80.3837553,134.505673 C77.2903411,137.565749 74.6956656,141.083601 72.692616,144.933294 L72,146.275158 L79.1639241,142.229078 C79.3913502,142.106159 85.7489451,139.658024 93.1816456,132.405808 L105.927848,121.138242 C90.2871308,144.206023 84.0535865,146.633672 80.0116034,147.60678 C77.991591,148.039321 75.9483309,148.357377 73.8917722,148.559401 C73.757384,148.559401 73.0337553,148.733536 72.2791139,148.917915 C72.9097046,151.038266 73.9744726,153.220076 75.5561181,153.916617 C77.4272152,154.74632 80.0839662,155.914049 84.5394515,153.824428 C89.9563291,151.30459 94.3187764,146.09078 96.9962025,142.720753 C98.3503415,141.044289 99.5508119,139.251442 100.583333,137.363538 Z" id="Path" fill="#272262" fill-rule="nonzero"></path>
            <path d="M116.689718,84.973262 L127.52773,81.073262 C130.981403,79.8477805 134.342897,78.3630374 137.58508,76.631016 C139.714156,75.4839572 141.427555,74.5454545 142.522509,73.7737968 C143.768503,72.9704889 144.933439,72.0412853 146,71 L146,71 L145.280169,72.459893 C140.919155,80.1234995 135.487859,87.0870561 129.160021,93.1278075 C125.069491,97.2122677 120.63138,100.911549 115.898918,104.181283 C112.58572,106.521189 108.939906,108.318732 105.091322,109.509893 L103.753046,110 L108.649921,104.045722 C108.801998,103.858021 112.096996,98.3729947 119.96444,92.7524064 L132.353636,82.8668449 C108.72089,93.315508 105.486722,98.7171123 103.945676,102.304278 C103.21882,104.11062 102.58596,105.955476 102.049785,107.831016 C102.049785,107.945722 101.745631,108.592246 101.451616,109.280481 C99.6266931,108.310695 97.8119091,106.944652 97.3962323,105.349198 C96.5177067,102.469117 97.1210046,99.3272639 98.9981087,97.0069519 C102.201861,92.4187166 107.696906,89.2799465 111.225089,87.3716578 C112.976127,86.4119215 114.804459,85.6094764 116.689718,84.973262 Z" id="Path" fill="#272262" fill-rule="nonzero"></path>
            <path d="M131.448033,52.0070872 L141.830566,50.1615875 C145.141965,49.5830456 148.405489,48.7605555 151.594141,47.7009213 C153.680631,47.0063785 155.377776,46.411056 156.485912,45.924876 C157.718981,45.4014302 158.896216,44.7565884 160,44 L160,44 L159.151428,45.2600992 C154.107238,51.3406138 148.18644,56.646715 141.580986,61.0063785 C137.286961,63.9876823 132.733093,66.5810646 127.973877,68.7554926 C124.635944,70.3235386 121.072384,71.3646323 117.411646,71.8412473 L116.143779,72 L121.424895,67.4953933 C124.845525,64.0521281 128.872017,61.2609407 133.304909,59.2600992 L145.95363,52.4039688 C122.992258,58.1885188 119.318438,62.4053863 117.411646,65.3026223 C116.48893,66.7732691 115.64905,68.2936794 114.895878,69.8568391 C114.835979,69.9560595 114.516517,70.4918498 114.157121,71.037562 C112.629691,69.9163714 111.16216,68.4578313 111.082294,67.0092133 C110.695535,64.3622262 111.688272,61.7012476 113.71786,59.9447201 C117.291848,56.3926293 122.702745,54.4479093 126.186884,53.2969525 C127.898974,52.7139018 129.65953,52.2822699 131.448033,52.0070872 L131.448033,52.0070872 Z" id="Path" fill="#272262" fill-rule="nonzero"></path>
            <path d="M181.519307,440.862022 C181.11513,441.169713 178.434803,443.228057 160.12987,457.360608 C153.315775,462.633061 146.120263,467.395794 138.602162,471.60987 C133.65632,474.368476 129.60392,476.564751 126.764049,477.806124 C123.631852,479.259251 120.36058,480.393201 117,481.190721 L117,481.190721 L120.903493,481.731832 C120.96731,481.731832 146.643143,483.949327 181.295946,475.631069 C194.406288,472.645228 207.221248,468.490623 219.586336,463.217341 C228.330528,459.602949 236.455221,454.648497 243.666737,448.533069 L246.155612,446.411064 L228.467579,448.660389 C227.893223,448.745269 213.130151,448.437579 192.240616,456.936207 L157.353816,469.063464 C207.854586,435.61006 222.351753,435.854091 231.211724,437.297054 C237.019099,438.198906 237.41264,438.740017 244.273001,440.405791 C244.570815,440.405791 246.13434,440.766532 247.804226,441.031782 C248.293492,436.214832 247.995678,430.94165 245.40044,428.246704 C242.347845,425.063697 238.008268,420.511997 227.318867,421.042498 C214.385225,421.679099 201.302675,428.586225 193.134058,433.169755 C189.042345,435.386655 185.155567,437.960806 181.519307,440.862022 L181.519307,440.862022 Z" id="Path" fill="#272262" fill-rule="nonzero"></path>
            <path d="M364.172225,421.326979 L379.346006,433.220819 C384.176676,437.029398 389.280426,440.467767 394.614886,443.507383 C398.12303,445.500405 400.954905,447.075535 403.068245,447.97561 C405.292477,449.022908 407.614683,449.841357 410,450.418669 L410,450.418669 L407.231525,450.804415 C407.178691,450.804415 388.961702,452.41169 364.372993,446.411195 C355.086614,444.249506 346.009029,441.251651 337.248276,437.453311 C331.043111,434.843442 325.27538,431.272003 320.151356,426.866722 L318.386718,425.334453 L330.939956,426.952444 C331.352058,427.006019 341.823657,426.781001 356.648736,432.910079 L381.311412,441.664374 C345.479735,417.533808 335.187769,417.705251 328.91115,418.744622 C324.779571,419.398248 324.504837,419.816139 319.633588,420.994808 C319.422254,420.994808 318.323318,421.251972 317.139847,421.444846 C316.791146,417.97313 317.00248,414.169244 318.841086,412.219083 C321.017826,409.904606 324.124435,406.636479 331.647925,407.03294 C340.840954,407.482977 350.118515,412.465532 355.951333,415.77652 C358.848193,417.376357 361.599287,419.2338 364.172225,421.326979 L364.172225,421.326979 Z" id="Path" fill="#272262" fill-rule="nonzero"></path>
            <path d="M388.024132,396.786433 L404.318022,405.126664 C409.509341,407.782606 414.892146,410.054575 420.422325,411.923952 C424.056063,413.154136 427.026248,414.102838 429.069567,414.582401 C431.338699,415.158327 433.660458,415.507583 436,415.62493 L436,415.62493 L433.46165,416.458953 C433.46165,416.458953 416.609534,421.056505 392.468878,419.774195 C383.370704,419.384946 374.325872,418.191717 365.442297,416.208746 C359.156553,414.882507 353.11642,412.600085 347.536924,409.442734 L345.619996,408.327228 L357.690324,407.670435 C358.080029,407.670435 367.875321,405.647929 382.852639,408.712963 L407.593652,412.486918 C369.813315,396.515376 360.197076,398.444054 354.456824,400.476985 C350.696696,401.780147 350.507109,402.186733 346.136092,404.115411 C345.957038,404.177963 344.945911,404.584549 343.861056,404.95986 C342.944722,401.832273 342.502354,398.308525 343.861056,396.213042 C345.493605,393.721398 347.831836,390.197651 355.004518,389.259375 C363.704423,388.102168 373.278531,391.073375 379.282097,393.116732 C382.303641,394.072012 385.229986,395.300422 388.024132,396.786433 L388.024132,396.786433 Z" id="Path" fill="#272262" fill-rule="nonzero"></path>
            <path d="M416.779926,369.98554 L433.49328,374.948985 C438.816395,376.541875 444.25194,377.745599 449.75549,378.550321 C453.375143,379.066271 456.333816,379.448075 458.316756,379.582222 C460.545663,379.731966 462.78413,379.666298 465,379.386161 L465,379.386161 L462.754766,380.552209 C462.754766,380.552209 447.751566,387.703285 424.932014,390.613247 C416.345836,391.793472 407.670079,392.221671 399.006904,391.892804 C392.897724,391.718838 386.852786,390.615386 381.086998,388.621677 L379.093566,387.909665 L390.27777,385.237041 C390.644981,385.154489 399.479033,381.635705 414.041579,381.945276 L437.868339,381.264221 C399.69936,372.81295 391.012192,376.238862 385.997136,379.107547 C382.702728,380.954651 382.59781,381.367411 378.841764,383.916207 C378.684388,383.998759 377.792589,384.545667 376.858824,385.082256 C375.45293,382.337398 374.424738,379.128185 375.358504,376.940555 C376.460137,374.340163 378.0339,370.656276 384.58075,368.561516 C392.533496,366.01272 402.018036,367.147811 407.998332,368.035247 C410.978998,368.425427 413.918005,369.078147 416.779926,369.98554 Z" id="Path" fill="#272262" fill-rule="nonzero"></path>
            <path d="M437.019825,336.391272 L453.251753,338.22423 C458.427789,338.820735 463.640015,339.027286 468.845924,338.842198 C472.25072,338.71651 475.017759,338.569873 476.900169,338.318496 C478.97215,338.079128 481.015532,337.630015 483,336.977818 L483,336.977818 L481.158736,338.507029 C481.158736,338.507029 468.578478,347.933668 448.087984,354.626583 C440.38384,357.23846 432.466225,359.145311 424.429281,360.324462 C418.778745,361.225179 413.024978,361.225179 407.374442,360.324462 L405.420027,359.999767 L415.264105,355.516876 C415.582983,355.37024 423.09205,350.489335 436.546651,348.279312 L458.36409,343.503148 C421.775392,342.047256 414.379475,346.812946 410.254632,350.416017 C407.549311,352.751729 407.508165,353.160216 404.504538,356.229111 C404.370815,356.344326 403.650768,357.014665 402.879288,357.685003 C401.110029,355.317869 399.608216,352.447981 400.091676,350.185588 C400.647141,347.514707 401.470053,343.744051 407.137855,340.622786 C414.009165,336.810234 422.927467,336.255109 428.584983,336.066577 C431.400452,335.914463 434.223672,336.023141 437.019825,336.391272 Z" id="Path" fill="#272262" fill-rule="nonzero"></path>
            <path d="M452.338516,296.732697 C452.636543,296.732697 454.648225,296.550119 468.389402,295.562053 C473.50728,295.20495 478.59149,294.461824 483.599426,293.338902 C486.899011,292.608592 489.559967,291.9642 491.316198,291.384248 C493.287022,290.788854 495.191707,289.989875 497,289 L497,289 L495.477933,290.793556 C495.477933,290.793556 484.940548,302.091885 466.260637,312.27327 C459.264378,316.150833 451.936763,319.385814 444.366292,321.939141 C439.045721,323.813361 433.469842,324.845855 427.836433,325 L425.888614,325 L434.637837,318.931981 C434.914576,318.738663 441.343446,312.692124 453.988308,308.138425 L474.28608,299.621718 C438.576051,304.830549 432.242976,310.73747 428.890172,314.926014 C426.676256,317.653938 426.761407,318.062053 424.345259,321.552506 C424.217533,321.692124 423.664054,322.454654 423.014781,323.249403 C420.886016,321.28401 418.927553,318.792363 419.00206,316.547733 C419.076566,313.884248 419.204292,310.103819 424.143026,306.087112 C430.146143,301.189737 438.693134,299.052506 444.142771,297.849642 C446.836085,297.230768 449.578994,296.856955 452.338516,296.732697 L452.338516,296.732697 Z" id="Path" fill="#272262" fill-rule="nonzero"></path>
            <path d="M459.78678,254.025665 L474.518565,250.15119 C479.215866,248.925453 483.817665,247.35065 488.286589,245.439571 C491.220237,244.173122 493.581983,243.110593 495.128238,242.219785 C496.852695,241.311495 498.484519,240.23301 500,239 L500,239 L498.940921,240.942604 C498.940921,240.942604 491.061375,253.317312 475.429373,266.024732 C469.588097,270.876715 463.328494,275.187087 456.726042,278.903873 C452.105919,281.577521 447.103875,283.507373 441.89894,284.624358 L440.098506,285 L447.183743,277.809146 C447.427331,277.583761 452.362638,270.822212 463.345284,264.382641 L480.756539,252.89874 C448.454637,263.964069 443.582875,270.586094 441.178766,275.072329 C440.010336,277.335602 438.970738,279.664814 438.065075,282.04853 C437.980348,282.198787 437.588489,283.014466 437.122495,283.862343 C434.824294,282.391974 432.568456,280.417172 432.261323,278.302846 C431.880055,275.802147 431.350515,272.271115 435.258516,267.645357 C440.003189,262.04293 447.575602,258.565562 452.436773,256.483434 C454.810981,255.447518 457.270448,254.625097 459.78678,254.025665 Z" id="Path" fill="#272262" fill-rule="nonzero"></path>
            <path d="M458.915768,210.832863 C459.153685,210.704793 460.746697,209.936367 471.659857,204.685461 C475.732693,202.73909 479.660422,200.484585 483.4109,197.940395 C485.862483,196.264801 487.848574,194.866694 489.100226,193.820781 C490.524736,192.689779 491.831658,191.409329 493,190 L493,190 L492.327625,191.995771 C492.327625,191.995771 487.207232,204.802859 475.083797,219.296214 C470.567866,224.807483 465.578942,229.886895 460.177764,234.472614 C456.421158,237.752052 452.191102,240.405937 447.64056,242.3383 L446.057893,243 L451.323105,235.112968 C451.498957,234.856826 454.871175,227.748892 463.798244,219.872533 L477.762952,206.232984 C450.216272,222.071083 446.864742,229.040274 445.426895,233.618808 C444.742392,235.918531 444.182932,238.255908 443.75113,240.620016 C443.699409,240.769432 443.471836,241.59122 443.202886,242.455699 C440.854746,241.495167 438.475573,240.05437 437.844575,238.186669 C437.089447,235.934756 436.023991,232.754329 438.816933,227.802255 C442.199496,221.782924 448.519819,217.24708 452.595445,214.482884 C454.590023,213.070058 456.7056,211.848301 458.915768,210.832863 Z" id="Path" fill="#272262" fill-rule="nonzero"></path>
            <path d="M455.092181,168.712298 C455.29374,168.566871 456.683437,167.590428 466.18854,160.973474 C469.727773,158.512246 473.078356,155.800747 476.213454,152.860694 C478.271478,150.918197 479.915776,149.318494 480.93418,148.155073 C482.096046,146.874393 483.123174,145.482337 484,144 L484,144 L483.681749,145.921721 C483.681749,145.921721 480.99783,158.386941 471.927671,173.552959 C468.57109,179.316861 464.694161,184.774877 460.343326,189.861621 C457.32343,193.474088 453.74385,196.600648 449.734952,199.127435 L448.355864,200 L452.005144,191.939158 C452.132445,191.669078 454.126819,184.66778 461.287472,176.01484 L472.245922,161.295492 C448.70594,180.336116 446.711566,187.212762 446.106889,191.606752 C445.851706,193.800166 445.720669,196.005726 445.714379,198.213318 C445.714379,198.358746 445.618903,199.137822 445.491603,199.968837 C443.104719,199.511779 440.590534,198.60805 439.667606,197.008347 C438.606768,195.107401 437.004904,192.406604 438.829544,187.451679 C441.014869,181.426822 446.255406,176.243369 449.671302,173.043962 C451.344277,171.44637 453.158308,169.996832 455.092181,168.712298 Z" id="Path" fill="#272262" fill-rule="nonzero"></path>
            <path d="M443.502332,133.000534 C443.66851,132.815818 444.831761,131.631457 452.808339,123.569113 C455.784164,120.571751 458.528168,117.361107 461.017567,113.96384 C462.657197,111.725508 463.964469,109.889206 464.728891,108.530994 C465.619296,107.09671 466.361546,105.578858 466.944607,104 L466.944607,104 L467,105.912362 C466.332217,115.765864 464.197265,125.47041 460.663052,134.717314 C458.466636,140.872183 455.711806,146.82144 452.431667,152.493587 C450.177945,156.537891 447.28362,160.205471 443.856846,163.35928 L442.682517,164.44585 L444.754211,156.024938 C444.831761,155.753295 445.485398,148.625401 450.836352,138.998397 L458.735379,122.830246 C439.45865,145.376559 438.793935,152.384931 439.015507,156.742073 C439.158084,158.928562 439.428104,161.105258 439.824243,163.261489 C439.824243,163.413609 439.901793,164.174207 439.935029,165 C437.542056,165 434.949668,164.543641 433.76426,163.152832 C432.346202,161.501247 430.352057,159.154257 431.205108,154.047382 C432.235416,147.832205 436.356648,141.899537 439.0709,138.216067 C440.382739,136.348616 441.866068,134.602826 443.502332,133.000534 L443.502332,133.000534 Z" id="Path" fill="#272262" fill-rule="nonzero"></path>
            <path d="M424.604029,87.6462394 L431.453561,77.3872637 C433.650274,74.1201534 435.600177,70.694675 437.287133,67.1391787 C438.379563,64.7976927 439.26443,62.8809415 439.734175,61.5522843 C440.30065,60.079264 440.721413,58.5545939 440.990469,57 L440.990469,57 L441.35097,58.7533918 C442.435642,67.9644831 442.159598,77.2843569 440.531648,86.4155979 C439.580891,92.4668732 438.092984,98.4220261 436.085461,104.210891 C434.710918,108.304511 432.710004,112.161759 430.15357,115.646055 L429.257778,116.833134 L429.716598,108.719613 C429.716598,108.458238 429.115762,101.760499 432.31658,91.980711 L436.686297,75.7318876 C423.030931,99.7784038 423.577146,106.356346 424.560332,110.342317 C425.068235,112.320292 425.684562,114.26901 426.406537,116.179696 C426.406537,116.310384 426.635948,117.007384 426.799812,117.758838 C424.614953,118.14001 422.200685,118.172682 420.878845,117.083619 C418.310823,115.25236 416.853691,112.244489 417.011646,109.100785 C416.86963,103.198062 419.611627,97.0230738 421.446909,93.1677899 C422.34017,91.2412755 423.396358,89.3940863 424.604029,87.6462394 L424.604029,87.6462394 Z" id="Path" fill="#272262" fill-rule="nonzero"></path>
            <path d="M397.721723,48.3911565 L402.226049,38.2970146 C403.670958,35.0951507 404.861767,31.7936373 405.788364,28.4205082 C406.405543,26.2026988 406.871134,24.3890696 407.076861,23.1454382 C407.349435,21.7796916 407.469215,20.390037 407.434175,19 L407.434175,19 L408.07301,20.409449 C410.603219,28.2922261 411.916415,36.4865749 411.970984,44.7328074 C412.110264,50.1694544 411.747934,55.6072589 410.888213,60.982925 C410.337133,64.7809316 409.160348,68.4712816 407.401692,71.9165181 L406.79534,73.097968 L405.842502,65.9367236 C404.73304,60.9960863 404.582557,55.9022582 405.398566,50.9095102 L406.676236,36.00666 C398.306419,59.1900229 399.941403,64.848546 401.468109,68.1338058 C402.264275,69.7783686 403.153465,71.3801908 404.131725,72.9321504 C404.131725,73.04615 404.478211,73.6265113 404.759732,74.2483271 C402.843228,74.9323244 400.645204,75.3468682 399.259257,74.6110529 C396.61398,73.4274233 394.778502,71.0381704 394.38679,68.2685325 C393.304019,63.1385528 394.733277,57.3038486 395.751081,53.6351358 C396.245266,51.8349875 396.904713,50.080167 397.721723,48.3911565 L397.721723,48.3911565 Z" id="Path" fill="#272262" fill-rule="nonzero"></path>
            <path d="M399.441654,137.39845 L393.237814,126.64504 C391.24878,123.223787 389.009369,119.952326 386.537666,116.857076 C384.914328,114.802938 383.570162,113.18017 382.567208,112.153101 C381.484868,110.988658 380.290069,109.932561 379,109 L379,109 L380.757755,109.462181 C380.757755,109.462181 392.131462,113.015839 405.480059,122.60866 C410.538197,126.17443 415.26818,130.17855 419.614476,134.574011 C422.705534,137.647233 425.303475,141.173465 427.317578,145.02957 L428,146.37503 L420.834564,142.318109 C420.60709,142.19486 414.248154,139.740166 406.824225,132.46852 L394.075332,121.170764 C409.72969,144.218186 415.974889,146.652338 420.007386,147.586971 C422.031318,148.020597 424.078446,148.339503 426.138848,148.542145 C426.262925,148.542145 426.986706,148.716747 427.751846,148.901619 C427.110783,151.027651 426.05613,153.215307 424.474151,153.913714 C422.592319,154.74564 419.945347,155.916498 415.488922,153.821278 C410.081241,151.294689 405.707533,146.066909 403.029542,142.687853 C401.675076,141.036073 400.474196,139.265689 399.441654,137.39845 Z" id="Path" fill="#272262" fill-rule="nonzero"></path>
            <path d="M383.307738,84.9695269 L372.477058,81.0705694 C369.02249,79.8454154 365.660125,78.3610692 362.417101,76.6295108 C360.287473,75.4827586 358.563489,74.5445068 357.468251,73.7730553 C356.223806,72.9718192 355.061757,72.0426979 354,71 L354,71 L354.709876,72.553328 C359.077539,80.2138694 364.51342,87.1752576 370.844344,93.2157177 C374.935934,97.2990861 379.375195,100.997379 384.108884,104.266239 C387.418834,106.606307 391.06238,108.403472 394.90914,109.593424 L396.247763,110 L391.35976,103.995188 C388.29398,99.5490144 384.457434,95.7216739 380.042308,92.7048917 L367.649901,82.8219727 C391.258349,93.351243 394.523779,98.7097033 396.044942,102.29591 C396.776469,104.100001 397.409579,105.944617 397.941325,107.821171 C398.002171,107.935846 398.255698,108.582197 398.539649,109.270249 C400.365044,108.300722 402.19044,106.935044 402.596083,105.340016 C403.485387,102.462904 402.885047,99.3181951 401.003933,97 C397.789209,92.4129912 392.29274,89.2750601 388.773783,87.3672815 C387.022489,86.4073789 385.193646,85.6051324 383.307738,84.9695269 L383.307738,84.9695269 Z" id="Path" fill="#272262" fill-rule="nonzero"></path>
            <path d="M317.385857,440.853747 L337.814922,457.37361 C344.31643,462.653267 351.187527,467.416972 358.370547,471.624746 C363.084947,474.389069 366.955606,476.569691 369.676669,477.814188 C372.668096,479.267351 375.791487,480.403725 379,481.206266 L379,481.206266 L375.276995,481.734902 C375.213715,481.734902 350.681963,483.93755 317.596792,475.644579 C305.09321,472.649164 292.870333,468.495406 281.073379,463.232655 C272.72442,459.623247 264.966867,454.673662 258.081453,448.563016 L255.697887,446.426447 L272.572695,448.629096 C273.131673,448.717202 287.211591,448.397818 307.166051,456.900041 L340.483251,469.014607 C292.274033,435.589417 278.468331,435.831708 270.030927,437.274443 C264.483334,438.177529 264.114197,438.728191 257.554116,440.391191 C257.2799,440.391191 255.782261,440.743614 254.179154,441.007932 C253.725644,436.206158 254.010406,430.930815 256.478347,428.232571 C259.389251,425.027718 263.544673,420.523301 273.722291,421.040924 C286.072541,421.668679 298.570446,428.573982 306.364498,433.15549 C310.249981,435.374612 313.938354,437.950887 317.385857,440.853747 L317.385857,440.853747 Z" id="Path" fill="#272262" fill-rule="nonzero"></path>
            <path d="M138.960017,25.6470027 C138.960017,25.4755942 139.196475,24.3078735 140.561479,16.3480894 C141.056591,13.3809289 141.77516,10.4551413 142.711092,7.5955409 C143.323732,5.72076 143.850387,4.19950922 144.301806,3.21391011 C144.749271,2.08439684 145.318686,1.0067543 146,0 L146,0 L144.925193,0.782051461 C139.452947,5.34736951 134.683582,10.6895511 130.769991,16.6373414 C128.104682,20.4998623 125.788354,24.5904151 123.848237,28.8609128 C122.451773,31.8569862 121.534255,35.0524094 121.128977,38.3312346 L121,39.4668162 L125.019776,34.7102292 C128.120179,31.6214388 130.623247,27.9898377 132.403697,23.9971955 L138.519347,12.6413798 C133.435512,33.1782654 129.641445,36.531445 127.008169,38.2562434 C125.681869,39.0901151 124.311279,39.8518537 122.902408,40.5381196 L121.827601,41.2023277 C122.902408,42.5628829 124.170679,43.848447 125.481943,43.9341513 C127.876157,44.2616336 130.273197,43.3535659 131.844798,41.5237187 C135.069218,38.3098086 136.767412,33.4460913 137.788478,30.3393115 C138.320477,28.8137179 138.712596,27.243185 138.960017,25.6470027 Z" id="Path" fill="#272262" fill-rule="nonzero"></path>
            <path d="M371.543112,52.0070872 L361.181025,50.1615875 C357.869199,49.5853714 354.605479,48.7628423 351.417326,47.7009213 C349.332941,47.0063785 347.637508,46.411056 346.540463,45.924876 C345.297254,45.4053826 344.11089,44.7603813 343,44 L343,44 L343.867663,45.2600992 C348.908955,51.3421647 354.82731,56.6484175 361.430353,61.0063785 C365.714151,63.9914269 370.260462,66.5850232 375.013763,68.7554926 C378.348792,70.3223275 381.908563,71.3633643 385.565339,71.8412473 L386.821954,72 L381.556139,67.4953933 C378.13896,64.0521281 374.116529,61.2609407 369.688109,59.2600992 L357.082066,52.4039688 C379.970411,58.1885188 383.69039,62.4053863 385.585286,65.3026223 C386.514438,66.7707158 387.356929,68.2913585 388.108489,69.8568391 C388.168328,69.9560595 388.487468,70.4918498 388.846501,71.037562 C390.37239,69.9163714 391.838441,68.4578313 391.918226,67.0092133 C392.30408,64.3602642 391.308137,61.6980831 389.275346,59.9447201 C385.714936,56.3926293 380.299524,54.4479093 376.828873,53.2969525 C375.108491,52.7132475 373.339719,52.2816204 371.543112,52.0070872 Z" id="Path" fill="#272262" fill-rule="nonzero"></path>
            <path d="M368.044674,27.6338601 C368.044674,27.4625394 367.808419,26.2954171 366.444588,18.339712 C365.945738,15.3784354 365.227857,12.4580134 364.296821,9.60235617 C363.673969,7.71782845 363.147766,6.20806476 362.718213,5.21226317 C362.247543,4.09026116 361.672282,3.01478923 361,2 L361,2 L362.127577,2.78165071 C367.583159,7.33838484 372.340734,12.666495 376.249141,18.5966931 C378.910866,22.4561344 381.221728,26.5447984 383.15421,30.8140007 C384.549558,33.8092744 385.469752,37.0025077 385.881873,40.2794695 L386,41.4680068 L381.972938,36.7138573 C378.876764,33.6276361 376.379218,29.9975063 374.6061,26.0063134 L368.495704,14.6991471 C373.575172,35.2255087 377.365979,38.5876775 379.996993,40.3008846 C381.310007,41.1231955 382.668874,41.8703616 384.06701,42.5387612 C384.152921,42.5922989 384.636168,42.8814026 385.140893,43.2133365 C384.120704,44.562487 382.789089,45.8473923 381.489691,45.9330526 C379.099446,46.2629501 376.704817,45.3595142 375.132302,43.5345628 C371.910653,40.3222996 370.213918,35.4503672 369.204467,32.3451794 C368.675655,30.8129769 368.287464,29.2360634 368.044674,27.6338601 Z" id="Path" fill="#272262" fill-rule="nonzero"></path>
            <path d="M171,205.47814 C169.461815,210.630187 167.589351,215.679926 165.394131,220.596279 C162.446494,221.102326 154.503954,223 146.765068,223 C122.422949,223 110,206.47969 110,189.548217 C110,168.115039 126.078018,155 149.10174,155 C157.45159,155 164.483043,156.897674 167.83799,157.298295 C168.2453,161.810543 168.909858,167.914729 169.778071,172.922481 L166.562467,173.628837 C164.525918,166.913178 161.878404,162.506357 156.690564,160.408372 C153.451389,159.157983 149.98525,158.576623 146.507819,158.700465 C129.357934,158.700465 120.536461,172.12124 120.536461,187.450233 C120.536461,206.785426 131.844667,219.204651 147.333158,219.204651 C157.719557,219.204651 162.703743,214.492093 167.902302,204.444961 L171,205.47814 Z" id="Path" fill="#1B1464" fill-rule="nonzero"></path>
            <path d="M240,205.47814 C238.461815,210.630187 236.589351,215.679926 234.394131,220.596279 C231.446494,221.102326 223.503954,223 215.765068,223 C191.422949,223 179,206.47969 179,189.548217 C179,168.115039 195.078018,155 218.10174,155 C226.45159,155 233.483043,156.897674 236.83799,157.298295 C237.2453,161.810543 237.963451,167.914729 238.778071,172.922481 L235.61606,173.628837 C233.579512,166.913178 230.931998,162.506357 225.744157,160.408372 C222.504982,159.157983 219.038844,158.576623 215.561413,158.700465 C198.411527,158.700465 189.590054,172.12124 189.590054,187.450233 C189.590054,206.785426 200.89826,219.204651 216.386751,219.204651 C226.773151,219.204651 231.757336,214.492093 236.955895,204.444961 L240,205.47814 Z" id="Path" fill="#1B1464" fill-rule="nonzero"></path>
            <path d="M309.716667,224 L309.716667,221.243077 C317.819048,220.455385 318.110276,219.864615 318.037469,209.324049 L318.131078,169.151741 C310.028697,187.175385 296.98584,215.335385 293.532707,224 L290.963659,224 C287.604135,215.034818 276.402256,187.963077 268.923935,170.105263 C267.249373,204.577166 267.145363,212.350445 267.145363,214.216032 C267.249373,219.740243 269.714411,220.517571 276.433459,221.211984 L276.433459,224 L253,224 L253,221.243077 C258.730952,220.652308 261.102381,219.470769 261.892857,214.153846 C262.485714,209.821538 262.579323,206.276923 265.148371,170.333279 C265.543609,165.213279 264.555514,163.544615 255.860276,162.756923 L255.860276,160 L273.053133,160 L294.895238,209.925182 L318.307895,160 L335.604762,160 L335.604762,162.756923 C327.107143,163.79336 326.015038,164.62251 326.24386,171.514818 L326.639098,209.324049 C327.034336,219.864615 327.335965,220.362105 336,221.243077 L336,224 L309.716667,224 Z" id="Path" fill="#1B1464" fill-rule="nonzero"></path>
            <path d="M368.640265,160 C375.701537,160 381.361016,161.274818 385.440863,164.228664 C389.311486,167.089231 392,171.711741 392,178.210202 C392,192.585587 379.572161,198.4 370.136208,198.4 C369.236166,198.405637 368.337115,198.339785 367.447694,198.203077 L360.595645,196.430769 L360.595645,211.790769 C360.595645,220.082267 361.28608,220.258462 370.42912,221.243077 L370.42912,224 L343,224 L343,221.243077 C351.546755,220.362105 351.944278,219.771336 351.944278,211.593846 L351.944278,172.499433 C351.944278,163.741538 350.898164,163.544615 343,162.756923 L343,160 L368.640265,160 Z M360.595645,192.979433 C362.896885,193.89846 365.365103,194.336018 367.845218,194.264615 C374.508967,194.264615 382.752348,190.916923 382.752348,178.510769 C382.752348,167.68 375.596926,163.347692 367.248933,163.347692 C364.372118,163.347692 362.279889,163.834818 361.683604,164.529231 C360.888557,165.213279 360.637489,166.394818 360.637489,169.058462 L360.595645,192.979433 Z" id="Shape" fill="#1B1464" fill-rule="nonzero"></path>
            <path d="M438,234 C438,331.757636 354.076487,411 250.5,411 C146.923513,411 63,331.757636 63,234 M168.674235,365.812044 C175.052288,365.812044 181.43034,362.34708 181.43034,362.34708 C181.43034,362.34708 177.518468,367.297029 183.386276,366.802034 C189.254085,366.307039 194.611649,360.345579 194.611649,360.345579 C193.633681,363.799783 196.078601,364.294778 196.078601,364.294778 C203.402732,363.799783 208.281942,354.900636 208.281942,354.900636 C208.281942,354.900636 208.770926,359.850585 211.215846,359.850585 C213.171782,359.850585 219.517945,353.39413 220.495913,352.436422 C220.836076,352.081317 220.984897,354.405641 223.419187,354.900636 C225.853477,355.395631 228.309028,349.961448 228.309028,349.961448 C228.309028,349.961448 229.286996,352.920657 231.721286,352.436422 C234.155576,351.952188 235.633158,348.476464 235.633158,348.476464 C236.020807,349.514506 236.51235,350.509676 237.10011,351.446433 C237.589094,351.941428 239.5344,349.961448 239.5344,349.961448 C239.5344,349.961448 242.957289,356.417903 241.979321,361.798282 C241.001352,367.178661 231.721286,380.09157 229.77598,382.566544 C228.758869,383.734956 228.595105,385.431372 229.369522,386.777007 C230.143939,388.122642 231.682517,388.815121 233.188238,388.495722 C237.10011,388.000727 238.078078,385.525753 240.023384,385.525753 C241.96869,385.525753 242.468305,390.970696 245.402209,390.970696 C248.336113,390.970696 248.814467,386.515743 250.281419,386.515743 C251.748371,386.515743 250.770403,390.475701 254.671645,390.970696 C258.572888,391.465691 259.561486,385.525753 261.517422,385.525753 C263.473358,385.525753 264.92968,390.475701 267.3746,387.010737 C269.819521,383.545773 257.60555,369.707439 257.116566,361.303287 C256.627582,352.899135 268.809662,348.949937 268.809662,348.949937 C269.298646,350.434922 274.177857,353.39413 274.666841,352.899135 C275.122597,352.136809 275.452895,351.304549 275.644809,350.434922 C276.133793,352.414901 280.035035,354.38412 281.501987,354.879115 C282.968939,355.374109 283.946907,352.414901 283.946907,352.414901 C287.359166,358.344079 292.249006,359.829063 294.194312,359.829063 C296.139618,359.829063 296.150248,355.374109 296.150248,355.374109 C299.573136,361.830564 307.843345,365.263246 309.331557,364.273256 C310.819769,363.283266 309.820541,360.808292 309.820541,360.808292 C309.820541,360.808292 319.100608,366.74823 323.01248,367.264747 C326.924352,367.781263 323.501464,362.314798 323.501464,362.314798 C341.072999,370.71895 340.584015,361.819803 339.616677,358.860595 C338.649339,355.901387 321.545528,349.466453 318.611624,343.537276 C308.938244,323.952696 284.435891,306.455704 276.622777,309.920668 C272.795945,311.610107 274.177857,317.33483 273.199889,321.757502 C272.22192,326.180173 265.875758,327.202445 265.875758,327.202445 C265.875758,327.202445 266.853726,324.232476 262.941854,320.283278 C252.205465,310.889136 256.106707,307.919167 256.106707,307.919167 L261.485532,306.929178 L256.595691,304.959959 C256.595691,304.959959 255.128739,301 252.205465,301 C249.282191,301 241.94743,301.98999 242.436414,308.414162 C242.925398,314.838335 247.315625,328.192435 239.50251,327.202445 C231.689396,326.212456 231.689396,323.242486 230.722058,321.757502 C229.75472,320.272517 233.156348,309.920668 227.788153,310.394142 C197.10972,313.21346 188.456828,351.55404 166.750189,357.849084 C163.25289,358.892877 162.296182,365.812044 168.674235,365.812044 Z" id="Shape" fill="#272262" fill-rule="nonzero"></path>
            <path d="M128.326087,277.578426 C129.01087,279.454403 130.652174,280.795727 134.456522,280.795727 C138.26087,280.795727 139.554348,279.595102 139.554348,278.1037 C139.554348,276.612298 138.467391,275.571131 133.554348,274.84888 C127.315217,273.910891 125.945652,272.222512 125.945652,269.87754 C125.945652,266.735279 129.413043,265 133.858696,265 C140.467391,265 142.076087,267.964044 142.304348,269.774362 L138.956522,269.774362 C138.586957,268.676915 137.771739,267.213653 133.771739,267.213653 C131.021739,267.213653 129.326087,268.010943 129.326087,269.596144 C129.326087,270.918708 130.141304,271.715998 134.51087,272.35383 C141.826087,273.441897 143,275.392913 143,277.812923 C143,280.626889 140.413043,283 134.217391,283 C128.467391,283 125.630435,280.748828 125,277.578426 L128.326087,277.578426 Z" id="Path" fill="#FFFFFF" fill-rule="nonzero"></path>
            <path d="M163.950944,277.486177 C162.969832,280.46308 160.634783,283 155.356397,283 C149.234254,283 146.006393,278.927821 146.006393,274.041207 C145.911156,271.612031 146.883514,269.255287 148.688714,267.539958 C150.493914,265.824629 152.967897,264.906605 155.513375,265.007524 C160.811384,265.007524 163.362277,267.759755 164,270.624322 L160.948739,270.624322 C160.261961,269.004811 158.917836,267.357217 155.474131,267.357217 C151.54968,267.357217 149.175387,270.165616 149.175387,273.910148 C149.175387,277.654681 151.451568,280.659667 155.503564,280.659667 C158.711802,280.659667 160.016682,279.367804 160.929117,277.458093 L163.950944,277.486177 Z" id="Path" fill="#FFFFFF" fill-rule="nonzero"></path>
            <polygon id="Path" fill="#FFFFFF" fill-rule="nonzero" points="167 265 170.268765 265 170.268765 272.149213 181.676755 272.149213 181.676755 265 185 265 185 283 181.676755 283 181.676755 274.620184 170.323245 274.620184 170.323245 283 167.054479 283"></polygon>
            <path d="M208,273.890626 C208,278.779732 204.776809,283 198.949205,283 C193.407901,283 190,278.977557 190,273.890626 C190.155652,268.935079 194.139141,265 199,265 C203.860859,265 207.844348,268.935079 208,273.890626 L208,273.890626 Z M192.964597,273.834105 C192.964597,277.460898 195.061057,280.64494 199.060031,280.64494 C203.059005,280.64494 205.016932,277.489159 205.016932,273.947148 C205.016932,270.405137 202.96665,267.249356 198.903027,267.249356 C195.097999,267.249356 192.964597,270.386296 192.964597,273.834105 Z" id="Shape" fill="#FFFFFF" fill-rule="nonzero"></path>
            <path d="M232.997438,273.942237 C232.997438,278.798152 229.768716,282.98977 223.957015,282.98977 C221.554782,283.108199 219.214622,282.194049 217.511349,280.471863 C215.808076,278.749677 214.899517,276.379035 215.008841,273.942237 C214.976621,271.521579 215.926488,269.19383 217.635936,267.504268 C219.345384,265.814706 221.664223,264.911772 224.049264,265.006979 C226.426154,264.910583 228.736388,265.81622 230.431501,267.508887 C232.126615,269.201554 233.055429,271.530289 232.997438,273.942237 Z M217.988491,273.886099 C217.988491,277.488271 220.073323,280.650697 224.076939,280.650697 C228.080555,280.650697 230.017789,277.51634 230.017789,273.998375 C230.017789,270.480409 227.979081,267.346052 223.920116,267.346052 C220.110223,267.346052 217.988491,270.461697 217.988491,273.886099 Z" id="Shape" fill="#FFFFFF" fill-rule="nonzero"></path>
            <polygon id="Path" fill="#FFFFFF" fill-rule="nonzero" points="239 265 242.230438 265 242.230438 280.519262 254 280.519262 253.558507 283 239 283"></polygon>
            <path d="M283,273.890626 C283,278.779732 279.776809,283 273.949205,283 C268.407901,283 265,278.977557 265,273.890626 C265.155652,268.935079 269.139141,265 274,265 C278.860859,265 282.844348,268.935079 283,273.890626 L283,273.890626 Z M267.973833,273.834105 C267.973833,277.460898 270.070292,280.64494 274.069266,280.64494 C278.06824,280.64494 280.026167,277.489159 280.026167,273.947148 C280.026167,270.405137 277.975885,267.249356 273.912263,267.249356 C270.097999,267.249356 267.973833,270.386296 267.973833,273.834105 L267.973833,273.834105 Z" id="Shape" fill="#FFFFFF" fill-rule="nonzero"></path>
            <polygon id="Path" fill="#FFFFFF" fill-rule="nonzero" points="290 265 305 265 305 267.451438 293.190377 267.451438 293.190377 272.891481 304.15272 272.891481 304.15272 275.381986 293.190377 275.381986 293.190377 283 290.052301 283"></polygon>
            <polygon id="Path" fill="#FFFFFF" fill-rule="nonzero" points="314 265 317.232759 265 317.232759 280.519262 329 280.519262 328.525862 283 314 283"></polygon>
            <path d="M336.859176,277.872491 L334.891713,283 L332,283 L339.137773,265 L342.596848,265 L350,283 L346.971022,283 L344.866294,277.872491 L336.859176,277.872491 Z M343.99695,275.381986 C342.05694,270.615844 341.132689,268.320673 340.739197,267.06077 L340.739197,267.06077 C340.382308,268.281606 339.29334,271.279978 337.691917,275.381986 L343.99695,275.381986 Z" id="Shape" fill="#FFFFFF" fill-rule="nonzero"></path>
            <path d="M356.007372,283 L350,265 L353.431257,265 C354.820863,269.365708 357.557317,277.599023 357.984888,280.196961 L357.984888,280.196961 C358.551419,277.46229 361.405455,269.316875 362.901954,265 L366.108736,265 C367.466273,269.014107 370.45927,277.979924 370.90822,280.118828 L370.90822,280.118828 C371.517508,277.276723 374.307409,269.160608 375.718393,265 L379,265 L372.586436,283 L369.037597,283 C367.65868,278.937059 364.761887,270.400977 364.259491,268.164406 L364.259491,268.164406 C363.746406,270.635377 361.052709,278.448725 359.42794,283 L356.007372,283 Z" id="Path" fill="#FFFFFF" fill-rule="nonzero"></path>
        </g>
    </g>
</svg>