<?xml version="1.0" encoding="UTF-8"?>
<svg width="277px" height="268px" viewBox="0 0 277 268" version="1.1" xmlns="http://www.w3.org/2000/svg" xmlns:xlink="http://www.w3.org/1999/xlink">
    <!-- Generator: Sketch 61.2 (89653) - https://sketch.com -->
    <title>Group 5</title>
    <desc>Created with Sketch.</desc>
    <g id="Page-1" stroke="none" stroke-width="1" fill="none" fill-rule="evenodd">
        <g id="Group-5">
            <path d="M77.1264314,233.844716 L68.7915556,240.332265 C66.1399407,242.409672 63.3384295,244.285146 60.4102783,245.943118 C58.4846146,247.030221 56.9301631,247.889383 55.8049259,248.380333 C54.5840176,248.951586 53.3093301,249.398013 52,249.71291 L52,249.71291 L53.5196503,249.923317 C53.5196503,249.923317 63.5423819,250.800013 77.0394285,247.527015 C82.1386949,246.347826 87.1234121,244.712641 91.9343214,242.640897 C95.3391439,241.218321 98.5033563,239.270146 101.313232,236.866394 L102.281864,236.030611 L95.3912357,236.913151 C95.1708284,236.942374 89.4228383,236.819637 81.285169,240.16277 L67.7011195,244.93784 C87.3695703,231.775713 93.0131571,231.869228 96.4642712,232.436158 C98.7263461,232.792681 98.8771511,233.020622 101.55104,233.663532 C101.667043,233.663532 102.270263,233.803803 102.925685,233.909007 C103.111291,232.015344 103.001088,229.940497 101.991854,228.876773 C100.802815,227.614331 99.0917582,225.831716 94.9562213,226.047967 C89.9158546,226.293442 84.8232861,229.011199 81.6447809,230.817193 C80.0526552,231.689534 78.5405941,232.702692 77.1264314,233.844716 L77.1264314,233.844716 Z" id="Path" fill="#FFFFFF" fill-rule="nonzero"></path>
            <path d="M213.02501,35.0416669 C232.739045,56.2112746 245,85.75189 245,118.460071 C245,182.843913 197.549114,235.03 139.011627,235.03 C80.4741403,235.03 33,182.832246 33,118.448405 C33,85.75189 45.2435145,56.2112746 64.9749904,35.03 C47.1271321,55.3770906 36.1393627,83.0626673 36.1393627,113.571636 C36.1393627,176.047938 82.1949761,226.699826 139,226.699826 C195.805024,226.699826 241.860637,176.047938 241.860637,113.571636 C241.843196,83.0743343 230.861241,55.3887575 213.02501,35.0416669 Z" id="Path" fill="#FFFFFF"></path>
            <path d="M62.3172602,220.304259 L53.3772511,224.876397 C50.5308389,226.332246 47.5793734,227.577745 44.5470417,228.602689 C42.5533098,229.277079 40.9236508,229.797159 39.8025378,230.060057 C38.5573275,230.374809 37.2835414,230.566258 36,230.631574 L36,230.631574 L37.3927228,231.088788 C37.3927228,231.088788 46.6390154,233.609179 59.8843294,232.906213 C64.8743804,232.693278 69.8351528,232.039139 74.7072922,230.951624 C78.1565314,230.225997 81.470803,228.974685 84.531478,227.242478 L85.5832438,226.630954 L78.9605868,226.270898 C78.7467663,226.270898 73.3723587,225.162155 65.1604951,226.842416 L51.5626662,228.905593 C72.2859193,220.14995 77.567864,221.207256 80.7116034,222.321715 C82.7746825,223.036111 82.8844822,223.259003 85.2769604,224.31631 C85.3809812,224.350601 85.9299798,224.573492 86.5252099,224.779239 C87.027977,223.064687 87.2764711,221.132959 86.5252099,219.98421 C85.6236963,218.618284 84.3465522,216.686556 80.4110989,216.17219 C75.6319215,215.537806 70.3904294,217.16663 67.1195534,218.286804 C65.4604345,218.814393 63.8530925,219.489642 62.3172602,220.304259 L62.3172602,220.304259 Z" id="Path" fill="#FFFFFF" fill-rule="nonzero"></path>
            <path d="M44.7894757,203.699832 L35.5040895,206.47592 C32.5446332,207.366339 29.5229241,208.039579 26.4635158,208.490171 C24.4525565,208.778746 22.8146447,208.992291 21.7071598,209.06732 C20.4707956,209.151104 19.2291081,209.114374 18,208.957662 L18,208.957662 L19.2357199,209.627155 C19.2357199,209.627155 27.5768295,213.626799 40.2487878,215.25436 C45.0209355,215.914506 49.8428372,216.154001 54.6577486,215.970025 C58.051717,215.871893 61.4099563,215.254748 64.6134545,214.140462 L65.7151105,213.742229 L59.5073665,212.230098 C59.3033561,212.183926 54.4012784,210.215847 46.3108101,210.388992 L33.0676229,210.008074 C54.2788722,205.281221 59.0993458,207.197357 61.8913734,208.801832 C63.7158089,209.834929 63.7799265,210.065788 65.8608322,211.491347 C65.959923,211.537519 66.443719,211.843408 66.9624882,212.143526 C67.7435565,210.608309 68.3206144,208.813375 67.8018451,207.589818 C67.2189584,206.135402 66.3154839,204.074979 62.6724416,202.903366 C58.2599888,201.477808 52.9906925,202.112672 49.662409,202.60902 C48.00828,202.826821 46.3773618,203.191904 44.7894757,203.699832 L44.7894757,203.699832 Z" id="Path" fill="#FFFFFF" fill-rule="nonzero"></path>
            <path d="M34.0386058,184.24941 L24.8485096,185.275844 C21.9179659,185.609794 18.9669452,185.72546 16.0194946,185.621899 C14.0859636,185.551515 12.5251614,185.4694 11.4593898,185.328632 C10.2843583,185.194742 9.12550149,184.943245 8,184.577869 L8,184.577869 L9.04247606,185.434208 C9.04247606,185.434208 16.1650918,190.713012 27.7721017,194.460963 C32.1339204,195.923823 36.6166902,196.991642 41.1670454,197.651707 C44.3662324,198.156098 47.6238658,198.156098 50.8230527,197.651707 L51.9295915,197.469882 L46.361954,194.959517 C46.1814135,194.877402 41.924151,192.144155 34.3065047,190.906568 L21.9598609,188.231974 C42.6696087,187.416692 46.8628085,190.085421 49.1923639,192.103097 C50.7240466,193.411068 50.7473421,193.639816 52.4537415,195.35836 C52.5294521,195.422879 52.9313004,195.79826 53.3739159,196.173642 C54.3698008,194.848076 55.2259125,193.240973 54.9463658,191.97406 C54.6318758,190.478399 54.1659647,188.366877 50.962826,186.619006 C47.0666446,184.484023 42.0173332,184.17316 38.8141945,184.067584 C37.2201527,183.981915 35.6216751,184.042775 34.0386058,184.24941 Z" id="Path" fill="#FFFFFF" fill-rule="nonzero"></path>
            <path d="M26.0515829,164.111146 C25.8853542,164.111146 24.8077332,164.014785 17.401955,163.493305 C14.6459135,163.303974 11.9079746,162.911778 9.21088926,162.319976 C7.43969309,161.934535 6.00668648,161.594439 5.05517009,161.288353 C3.99538671,160.974863 2.97147969,160.55314 2,160.03 L2,160.03 L2.81394775,160.976599 C2.81394775,160.976599 8.48865393,166.939606 18.5483603,172.313115 C22.3184842,174.358737 26.2664528,176.066047 30.3448708,177.414547 C33.2082435,178.403497 36.2091033,178.948426 39.2409758,179.03 L40.2956687,179.03 L35.5839429,175.827434 C35.4291782,175.725406 31.9727663,172.534177 25.1631189,170.130835 L14.2264124,165.635907 C33.4573611,168.385012 36.8679168,171.502554 38.6735052,173.713174 C39.8714987,175.152912 39.8199105,175.368305 41.1268125,177.210489 C41.1898648,177.284177 41.4936622,177.686623 41.8433158,178.106074 C42.9897211,177.068783 44.0444139,175.753747 43.9985577,174.569081 C43.9584336,173.163353 43.8953813,171.168126 41.229989,169.048198 C37.9971261,166.497482 33.4115049,165.369499 30.4652433,164.734654 C29.0158661,164.396574 27.5387124,164.1879 26.0515829,164.111146 Z" id="Path" fill="#FFFFFF" fill-rule="nonzero"></path>
            <path d="M22.4907027,140.196122 L14.2638404,138.090429 C11.6388883,137.423904 9.0672243,136.568041 6.56965262,135.529767 C4.93019877,134.841479 3.61034964,134.264018 2.75215177,133.779883 C1.78680742,133.289021 0.874598182,132.702712 0.0295930298,132.03 L0,132.03 L0.591860596,133.085763 C0.591860596,133.085763 4.98938483,139.811148 13.7311658,146.717354 C16.9935179,149.354187 20.489689,151.696784 24.1775054,153.716888 C26.7594368,155.169957 29.5548032,156.21879 32.4635537,156.825847 L33.4756353,157.03 L29.5160879,153.121927 C29.37996,152.999435 26.615971,149.32468 20.4783766,145.824914 L10.7481884,139.583663 C28.7999366,145.597429 31.528414,149.196356 32.8719375,151.634526 C33.5203247,152.865926 34.0992557,154.131656 34.6060891,155.42594 C34.6593565,155.507601 34.8783449,155.950905 35.132845,156.411708 C36.4231011,155.612594 37.6837642,154.539333 37.8554037,153.390243 C38.0684735,152.031167 38.3584852,150.112128 36.1745196,147.598129 C33.5289028,144.553332 29.2911809,142.663458 26.5745408,141.531867 C25.2557167,140.96926 23.8891518,140.522283 22.4907027,140.196122 L22.4907027,140.196122 Z" id="Path" fill="#FFFFFF" fill-rule="nonzero"></path>
            <path d="M21.8615066,116.429114 C21.7298481,116.359037 20.8483088,115.938578 14.8091921,113.065441 C12.5571216,112.000608 10.3854897,110.766999 8.31213296,109.374744 C6.94975403,108.45791 5.85641632,107.692908 5.1637783,107.120616 C4.37462269,106.500723 3.6496003,105.800216 3,105.03 L3,105.03 L3.37780256,106.122026 C3.37780256,106.122026 6.23994316,113.129678 12.914455,121.060004 C15.4113053,124.073709 18.1680976,126.852866 21.1516957,129.364072 C23.226813,131.157757 25.5637571,132.609871 28.078076,133.667938 L28.953891,134.03 L26.0402319,129.714454 C25.9429191,129.574301 24.0768034,125.685054 19.1367487,121.375348 L11.4375905,113.912199 C26.6813513,122.578329 28.5360185,126.391659 29.3374178,128.896895 C29.7113918,130.156158 30.0190349,131.434936 30.2590271,132.727745 C30.2590271,132.809501 30.4135827,133.259158 30.5681383,133.732175 C31.8675501,133.206601 33.1784105,132.41824 33.5275917,131.396291 C33.9511885,130.164112 34.5407894,128.423878 32.9952335,125.714253 C31.1233936,122.420656 27.6258577,119.93878 25.370491,118.426295 C24.2625322,117.653529 23.0880432,116.985055 21.8615066,116.429114 L21.8615066,116.429114 Z" id="Path" fill="#FFFFFF" fill-rule="nonzero"></path>
            <path d="M25.3408766,92.7100223 C25.2209435,92.6295177 24.4413788,92.0889872 19.0683786,88.4260304 C17.066564,87.0650332 15.1724531,85.5639383 13.4015425,83.9350269 C12.2381921,82.8597162 11.3027143,81.9741662 10.7330324,81.3301298 C10.0744706,80.6225582 9.49372403,79.8517748 9,79.03 L9,79.03 L9.17390291,80.0938101 C9.17390291,80.0938101 10.6910559,86.9941996 15.8181933,95.3896735 C17.7194921,98.5794186 19.9129161,101.600661 22.3725338,104.417683 C24.0817387,106.415481 26.1048437,108.145962 28.3691858,109.546973 L29.1547472,110.03 L27.0799056,105.567748 C27.0079458,105.41824 25.8805752,101.542521 21.8328352,96.7525005 L15.6442904,88.6215415 C28.9448644,99.1618865 30.072235,102.968601 30.4140441,105.400989 C30.5575619,106.615322 30.6336269,107.836115 30.6419169,109.058195 C30.6419169,109.1387 30.6958868,109.569974 30.7618499,110.03 C32.1170933,109.776986 33.5323031,109.276707 34.0600085,108.391157 C34.6596737,107.338848 35.5591715,105.843764 34.533744,103.100859 C33.2924371,99.7656706 30.3360876,96.8962586 28.3991691,95.1251586 C27.4541267,94.2372076 26.4308958,93.4291613 25.3408766,92.7100223 L25.3408766,92.7100223 Z" id="Path" fill="#FFFFFF" fill-rule="nonzero"></path>
            <path d="M30.3875605,73.7067641 C30.299747,73.6067997 29.6791981,72.9658517 25.4700034,68.6027014 C23.8981776,66.9846156 22.4463527,65.2531559 21.1261613,63.4221953 C20.2597346,62.2108624 19.5747891,61.2170991 19.1708469,60.482067 C18.6998489,59.7061296 18.3075995,58.8846544 18,58.03 L18,58.03 L18,59.0649252 C18.3524116,64.3969133 19.4785625,69.6485706 21.342768,74.6534854 C22.5059079,77.9833508 23.9615392,81.2027293 25.6924643,84.2735852 C26.8878234,86.4593526 28.4167569,88.4434993 30.2236419,90.1538418 L30.850045,90.7418674 L29.7318862,86.1729081 C29.6909066,86.0259016 29.3455067,82.1684533 26.5179114,76.958546 L22.3496963,68.2087242 C32.5302104,80.4102566 32.8873187,84.2030221 32.770234,86.561005 C32.6919333,87.7440035 32.5492671,88.9218142 32.3428749,90.0891589 C32.3428749,90.1714825 32.3018952,90.5831005 32.2784783,91.03 C33.5488472,91.03 34.9128839,90.7830292 35.539287,90.0303564 C36.288629,89.1365574 37.3423913,87.866422 36.8916152,85.1027014 C36.3530256,81.7391946 34.1693961,78.5285745 32.7351086,76.5351675 C32.0394716,75.5229119 31.253727,74.5762208 30.3875605,73.7067641 L30.3875605,73.7067641 Z" id="Path" fill="#FFFFFF" fill-rule="nonzero"></path>
            <path d="M42.0372038,47.6075868 C41.9688935,47.5015844 41.5305692,46.8066803 38.4679917,42.0542424 C37.3258343,40.2870323 36.3116919,38.4347829 35.4338767,36.5126761 C34.8646244,35.2465372 34.4092226,34.215959 34.1587515,33.4916097 C33.8676812,32.6958877 33.6578148,31.8708677 33.532574,31.03 L33.532574,31.03 L33.3333356,31.984021 C32.7723764,36.9654384 32.9200533,42.0050103 33.7716599,46.9421277 C34.2578977,50.2156491 35.0314848,53.4365199 36.0828244,56.5647838 C36.7910119,58.78146 37.8301328,60.8698406 39.1624795,62.7541421 L39.6292664,63.4019341 L39.3901804,59.0146154 C39.3901804,58.873279 39.7089617,55.2456436 38.0296674,49.9573051 L35.7526581,41.1708897 C42.8740047,54.1738423 42.583686,57.7366984 42.0770514,59.8861901 C41.8140288,60.9562467 41.4928393,62.0100937 41.115015,63.042704 C41.115015,63.1133722 40.995472,63.4961584 40.9043916,63.9025007 C42.0428963,64.1027273 43.3066365,64.1262834 43.9897393,63.5314925 C45.3235194,62.5411978 46.0785605,60.9168572 45.9935075,59.2207311 C46.0561252,56.0229941 44.6329944,52.6898097 43.682343,50.5992081 C43.2231244,49.5522779 42.6724586,48.5509135 42.0372038,47.6075868 Z" id="Path" fill="#FFFFFF" fill-rule="nonzero"></path>
            <path d="M57.9308276,26.2806705 C57.8887079,26.1774188 57.5698018,25.4776017 55.4277152,20.7108148 C54.6290164,18.9350619 53.9673826,17.1060866 53.4480902,15.2384747 C53.1111328,14.0166629 52.8463805,13.0128269 52.7320557,12.3244822 C52.5805827,11.5685474 52.514019,10.7993795 52.5334915,10.03 L52.5334915,10.03 L52.1784827,10.7929153 C50.7735642,15.1482306 50.045785,19.6763221 50.0183449,24.2328451 C49.9348935,27.2421161 50.136279,30.2524309 50.6200546,33.2272155 C50.9275185,35.3258656 51.577183,37.3658057 52.5455257,39.2731762 L52.8945173,39.9328398 L53.4180048,35.9691217 C54.0341384,33.2344532 54.1177614,30.4151131 53.6647057,27.6516236 L52.9306199,19.4259048 C57.5878531,32.2577967 56.6792714,35.389765 55.8248436,37.2081421 C55.3922404,38.1262639 54.9061018,39.020597 54.3687061,39.8869502 C54.3687061,39.9500484 54.1821761,40.2655397 54.0197145,40.6154483 C55.0847407,40.9883016 56.3062114,41.2234861 57.0763998,40.8162155 C58.5464152,40.1610815 59.5664143,38.8386403 59.7840936,37.3056576 C60.3858033,34.4662359 59.5975635,31.2367521 59.0319564,29.2061353 C58.7551835,28.2022112 58.3867336,27.223318 57.9308276,26.2806705 Z" id="Path" fill="#FFFFFF" fill-rule="nonzero"></path>
            <path d="M55.3333333,75.6781634 C55.3983122,75.5579166 55.8413502,74.7703003 58.8776371,69.3832457 C60.0090975,67.3725335 61.2845606,65.449393 62.6936709,63.6294384 C63.6151899,62.4269709 64.3890295,61.4770215 64.9561181,60.8757877 C65.576913,60.1944398 66.2614391,59.5762584 67,59.03 L67,59.03 L65.9957806,59.3005552 C65.9957806,59.3005552 59.4978903,61.3808241 51.87173,66.9963476 C48.9802324,69.0838203 46.2760033,71.427763 43.7907173,74.0007211 C42.023052,75.7968524 40.5403804,77.8616787 39.3957806,80.121281 L39,80.9088972 L43.0936709,78.5340238 C43.2236287,78.4618758 46.8565401,77.024927 51.1037975,72.7681919 L58.3873418,66.1546203 C49.449789,79.694405 45.8877637,81.1193291 43.5780591,81.6905012 C42.4237663,81.9443839 41.2561891,82.1310694 40.0810127,82.2496486 C40.0042194,82.2496486 39.5907173,82.3518583 39.1594937,82.4600804 C39.5198312,83.7046343 40.12827,84.9852623 41.0320675,85.3941012 C42.1012658,85.8811006 43.6194093,86.5665071 46.1654008,85.3399902 C49.2607595,83.8609551 51.7535865,80.8006752 53.2835443,78.822616 C54.057338,77.8386045 54.7433211,76.786281 55.3333333,75.6781634 Z" id="Path" fill="#FFFFFF" fill-rule="nonzero"></path>
            <path d="M64.2512674,46.9123529 L70.4444169,44.7123529 C72.4179446,44.0210557 74.3387981,43.1835083 76.1914742,42.2064706 C77.4080892,41.5594118 78.3871745,41.03 79.0128622,40.5947059 C79.7248586,40.1415578 80.3905367,39.6173917 81,39.03 L81,39.03 L80.5886683,39.8535294 C78.0966598,44.1765895 74.993062,48.1047496 71.377155,51.5123529 C69.039709,53.8164074 66.5036457,55.9031816 63.7993818,57.7476471 C61.9061256,59.067594 59.8228032,60.0815927 57.6236125,60.7535294 L56.8588831,61.03 L59.6570976,57.6711765 C59.7439986,57.5652941 61.6268551,54.4711765 66.1225371,51.3005882 L73.2020774,45.7241176 C59.6976514,51.6182353 57.8495553,54.6652941 56.9689578,56.6888235 C56.5536112,57.7077857 56.1919774,58.7484736 55.8855912,59.8064706 C55.8855912,59.8711765 55.711789,60.2358824 55.5437803,60.6241176 C54.5009675,60.0770588 53.4639481,59.3064706 53.2264185,58.4064706 C52.7244038,56.7818093 53.0691455,55.0094822 54.1417764,53.7005882 C55.9724922,51.1123529 59.1125175,49.3417647 61.1286223,48.2652941 C62.1292152,47.7239044 63.1739766,47.2712431 64.2512674,46.9123529 Z" id="Path" fill="#FFFFFF" fill-rule="nonzero"></path>
            <path d="M73.6845901,27.8914458 L79.6174665,26.7709639 C81.5096942,26.4197063 83.3745653,25.9203373 85.1966521,25.276988 C86.388932,24.8553012 87.3587291,24.4938554 87.9919496,24.1986747 C88.6965606,23.8808684 89.3692663,23.4893572 90,23.03 L90,23.03 L89.5151015,23.7950602 C86.6327076,27.4868012 83.2493944,30.7083627 79.4748492,33.3553012 C77.0211203,35.1653785 74.4189105,36.7399321 71.6993585,38.0601205 C69.791968,39.0121485 67.7556481,39.644241 65.6637978,39.9336145 L64.9393023,40.03 L67.9570826,37.2950602 C69.9117284,35.2045063 72.212581,33.5098569 74.7456623,32.2950602 L81.9735029,28.1324096 C68.8527188,31.6444578 66.7533933,34.2046988 65.6637978,35.9637349 C65.1365316,36.8566276 64.6565998,37.7797339 64.2262162,38.7287952 C64.1919881,38.7890361 64.009438,39.1143373 63.8040692,39.4456627 C62.9312518,38.7649398 62.0926626,37.8793976 62.0470251,36.9998795 C61.82602,35.3927802 62.3932984,33.7771861 63.5530629,32.7107229 C65.5953415,30.5540964 68.6872828,29.3733735 70.6782192,28.6745783 C71.6565565,28.3205833 72.6625884,28.058521 73.6845901,27.8914458 L73.6845901,27.8914458 Z" id="Path" fill="#FFFFFF" fill-rule="nonzero"></path>
            <path d="M100.460993,244.100635 C100.23885,244.272135 98.7656933,245.419409 88.7049665,253.296569 C84.9598152,256.235313 81.0050302,258.889951 76.8729438,261.23878 C74.1546184,262.776364 71.9273453,264.000517 70.3665004,264.69243 C68.6449874,265.502369 66.8470361,266.134407 65,266.578927 L65,266.578927 L67.145431,266.88053 C67.1805062,266.88053 81.2924147,268.11651 100.33823,263.480104 C107.543914,261.815865 114.587251,259.500184 121.38333,256.560977 C126.189298,254.546398 130.654778,251.7849 134.618359,248.376301 L135.986291,247.193544 L126.264624,248.447266 C125.948947,248.494576 117.834892,248.323077 106.353621,253.060017 L87.1791968,259.819472 C114.935345,241.173312 122.903254,241.309329 127.772856,242.113604 C130.964696,242.616275 131.180993,242.917878 134.951573,243.846342 C135.115257,243.846342 135.974599,244.047411 136.892399,244.195256 C137.161309,241.510398 136.997624,238.571247 135.571234,237.069146 C133.893472,235.295011 131.508361,232.757998 125.633271,233.053687 C118.524704,233.408514 111.334295,237.258387 106.844673,239.813142 C104.595793,241.048791 102.459549,242.483564 100.460993,244.100635 L100.460993,244.100635 Z" id="Path" fill="#FFFFFF" fill-rule="nonzero"></path>
            <path d="M199.86864,233.844716 L208.189745,240.332265 C210.838822,242.409672 213.637653,244.285146 216.563002,245.943118 C218.486823,247.030221 220.039787,247.889383 221.198715,248.380333 C222.418455,248.951586 223.691923,249.398013 225,249.71291 L225,249.71291 L223.481804,249.923317 C223.452831,249.923317 213.462869,250.800013 199.978738,247.527015 C194.886208,246.347912 189.908177,244.712719 185.103893,242.640897 C181.701061,241.217332 178.538112,239.269274 175.728163,236.866394 L174.760458,236.030611 L181.644492,236.913151 C181.870483,236.942374 187.612973,236.819637 195.742855,240.16277 L209.267548,244.93784 C189.617919,231.775713 183.973938,231.869228 180.531921,232.436158 C178.266216,232.792681 178.115556,233.020622 175.444226,233.663532 C175.328333,233.663532 174.72569,233.803803 174.07669,233.909007 C173.885467,232.015344 174.00136,229.940497 175.009628,228.876773 C176.203324,227.614331 177.906948,225.831716 182.032733,226.047967 C187.074071,226.293442 192.161767,229.011199 195.360409,230.817193 C196.949009,231.689831 198.457673,232.702982 199.86864,233.844716 L199.86864,233.844716 Z" id="Path" fill="#FFFFFF" fill-rule="nonzero"></path>
            <path d="M214.690653,220.29998 L223.626012,224.873655 C226.472864,226.330139 229.424725,227.576057 232.457404,228.6012 C234.450099,229.275817 236.07891,229.796072 237.19944,230.059059 C238.443803,230.374889 239.717025,230.566417 241,230.630768 L241,230.630768 L239.608002,231.088135 C239.608002,231.088135 230.366519,233.609374 217.128094,232.906171 C212.138773,232.692712 207.178704,232.038361 202.307066,230.950925 C198.860045,230.223633 195.547714,228.971982 192.487991,227.240531 L191.436772,226.628802 L198.055984,226.268625 C198.269693,226.268625 203.641305,225.159509 211.854673,226.840335 L225.422325,228.909923 C204.704076,220.151335 199.430655,221.208997 196.282774,222.323831 C194.220769,223.038467 194.116802,223.261434 191.719792,224.319096 C191.621601,224.353399 191.067112,224.576366 190.472192,224.782181 C189.969686,223.067053 189.727097,221.134675 190.472192,219.985539 C191.367461,218.619154 192.649716,216.686776 196.583123,216.172238 C201.354038,215.53764 206.604356,217.167012 209.896634,218.287563 C211.55361,218.811426 213.158379,219.48507 214.690653,220.29998 L214.690653,220.29998 Z" id="Path" fill="#FFFFFF" fill-rule="nonzero"></path>
            <path d="M232.21107,203.701902 L241.496267,206.481432 C244.453553,207.37345 247.4733,208.047536 250.530828,208.49818 C252.541746,208.787112 254.185453,209.000922 255.287087,209.076044 C256.525368,209.159901 257.768961,209.123127 259,208.96625 L259,208.96625 L257.752648,209.619237 C257.752648,209.619237 249.417537,213.62384 236.740008,215.253418 C231.969909,215.914344 227.150044,216.154136 222.337169,215.96997 C218.94318,215.872549 215.584881,215.254616 212.381666,214.138139 L211.274203,213.739413 L217.48765,212.242743 C217.691656,212.196514 222.599463,210.225995 230.689766,210.399354 L243.926855,210.017964 C222.721866,205.285252 217.895662,207.203763 215.10952,208.810227 C213.279293,209.844604 213.221006,210.07575 211.134313,211.503076 C211.046882,211.549305 210.551439,211.855574 210.03268,212.156063 C209.251628,210.618943 208.68041,208.821784 209.199169,207.596711 C209.811187,206.140492 210.6855,204.077514 214.322639,202.904449 C218.740831,201.477123 224.01002,202.112774 227.332407,202.609738 C228.988332,202.828239 230.621114,203.193762 232.21107,203.701902 Z" id="Path" fill="#FFFFFF" fill-rule="nonzero"></path>
            <path d="M242.963034,184.249112 L252.154607,185.275569 C255.085615,185.609612 258.037117,185.72528 260.985041,185.621631 C262.913058,185.551245 264.479936,185.469129 265.545879,185.328358 C266.719169,185.194312 267.876265,184.942808 269,184.577578 L269,184.577578 L267.957356,185.433936 C267.957356,185.433936 260.833596,190.712854 249.230545,194.460886 C244.867957,195.923538 240.384489,196.991374 235.833448,197.651699 C232.633747,198.1561 229.37559,198.1561 226.175889,197.651699 L225.069172,197.46987 L230.643529,194.959451 C230.824099,194.877334 235.076221,192.144028 242.695092,190.906415 L255.049545,188.231763 C234.330643,187.416463 230.142594,190.08525 227.80684,192.102969 C226.274911,193.410968 226.251612,193.639721 224.550763,195.358302 C224.47504,195.422822 224.067302,195.798212 223.63044,196.173602 C222.628571,194.848007 221.778146,193.24087 222.051913,191.973929 C222.366453,190.478236 222.832439,188.366668 226.041918,186.61876 C229.932901,184.483731 234.983024,184.172861 238.186677,184.067283 C239.780979,183.982099 241.37967,184.042959 242.963034,184.249112 Z" id="Path" fill="#FFFFFF" fill-rule="nonzero"></path>
            <path d="M250.951508,164.111146 C251.111984,164.111146 252.195198,164.014785 259.594293,163.493305 C262.350074,163.304835 265.087725,162.91263 267.784306,162.319976 C269.561006,161.934535 270.993828,161.594439 271.939491,161.288353 C273.000704,160.974117 274.026304,160.552434 275,160.03 L275,160.03 L274.180426,160.976599 C274.180426,160.976599 268.506449,166.939606 258.448035,172.313115 C254.680819,174.359606 250.73518,176.066957 246.658772,177.414547 C243.79385,178.403718 240.791454,178.948646 237.758079,179.03 L236.709253,179.03 L241.420374,175.827434 C241.569387,175.725406 245.031086,172.534177 251.839858,170.130835 L262.769428,165.635907 C243.540951,168.385012 240.130833,171.502554 238.325477,173.713174 C237.133369,175.152912 237.179219,175.368305 235.878216,177.210489 C235.809441,177.284177 235.511414,177.686623 235.161805,178.106074 C234.015547,177.068783 232.96099,175.753747 233.001109,174.569081 C233.041228,173.163353 233.110004,171.168126 235.769322,169.048198 C239.001769,166.463473 243.603995,165.335489 246.538415,164.700644 C247.988661,164.374017 249.465612,164.176726 250.951508,164.111146 L250.951508,164.111146 Z" id="Path" fill="#FFFFFF" fill-rule="nonzero"></path>
            <path d="M254.527906,140.196122 L262.760375,138.090429 C265.385337,137.424268 267.95693,136.568397 270.45427,135.529767 C272.093662,134.841479 273.413461,134.264018 274.277545,133.779883 C275.241212,133.286247 276.153113,132.700114 277,132.03 L277,132.03 L276.408162,133.085763 C276.408162,133.085763 272.004886,139.811148 263.269355,146.717354 C260.005113,149.354302 256.507099,151.696895 252.817494,153.716888 C250.235661,155.169957 247.4404,156.21879 244.53176,156.825847 L243.525636,157.03 L247.485033,153.121927 C247.621155,152.999435 250.379121,149.32468 256.516482,145.824914 L266.246301,139.583663 C248.195238,145.597429 245.472783,149.196356 244.129311,151.634526 C243.476364,152.864566 242.895412,154.130442 242.389306,155.42594 C242.341959,155.507601 242.122979,155.950905 241.862571,156.411708 C240.578282,155.612594 239.317667,154.539333 239.146034,153.390243 C238.932972,152.031167 238.637053,150.112128 240.820935,147.598129 C243.47237,144.553332 247.704013,142.663458 250.42055,141.531867 C251.747313,140.968869 253.121721,140.5219 254.527906,140.196122 Z" id="Path" fill="#FFFFFF" fill-rule="nonzero"></path>
            <path d="M255.131943,116.429114 C255.263647,116.359037 256.145493,115.938578 262.186707,113.065441 C264.441312,112.000446 266.615591,110.766848 268.691748,109.374744 C270.048874,108.45791 271.148318,107.692908 271.841197,107.120616 C272.629764,106.501766 273.353239,105.801142 274,105.03 L274,105.03 L273.627793,106.122026 C273.627793,106.122026 270.793289,113.129678 264.082102,121.060004 C261.582211,124.075604 258.820486,126.854905 255.830548,129.364072 C253.750998,131.158481 251.40936,132.610607 248.89031,133.667938 L248.014191,134.03 L250.928862,129.714454 C251.026208,129.574301 252.892972,125.685054 257.834742,121.375348 L265.565206,113.912199 C250.316151,122.578329 248.46084,126.391659 247.664888,128.896895 C247.285967,130.155234 246.976266,131.434176 246.737233,132.727745 C246.708601,132.809501 246.582623,133.259158 246.43374,133.732175 C245.133877,133.206601 243.816835,132.41824 243.467533,131.396291 C243.049515,130.164112 242.459709,128.423878 244.005802,125.714253 C245.878292,122.420656 249.377043,119.93878 251.633193,118.426295 C252.737334,117.653239 253.908457,116.984731 255.131943,116.429114 Z" id="Path" fill="#FFFFFF" fill-rule="nonzero"></path>
            <path d="M251.660798,92.7100223 C251.774723,92.6295177 252.560204,92.0889872 257.932653,88.4260304 C259.933089,87.0635649 261.826897,85.5625566 263.598909,83.9350269 C264.76214,82.8597162 265.691526,81.9741662 266.267145,81.3301298 C266.923852,80.6211816 267.504402,79.8505797 268,79.03 L268,79.03 L267.820119,80.0938101 C267.820119,80.0938101 266.303121,86.9941996 261.176509,95.3896735 C259.279312,98.5804054 257.088004,101.601807 254.628837,104.417683 C252.921939,106.417441 250.898698,108.148216 248.632799,109.546973 L247.853314,110.03 L249.915951,105.567748 C249.987904,105.41824 251.115159,101.542521 255.162484,96.7525005 L261.356391,88.6042905 C248.051184,99.1446355 246.923929,102.95135 246.582154,105.383738 C246.437921,106.597949 246.363857,107.818884 246.360301,109.040944 C246.360301,109.121449 246.306337,109.552723 246.234384,110.012749 C244.885276,109.759735 243.464215,109.259457 242.94256,108.373907 C242.342956,107.321597 241.437554,105.826513 242.468873,103.083608 C243.704056,99.7484196 246.666099,96.8790076 248.596823,95.1079076 C249.542418,94.2235261 250.567739,93.4211032 251.660798,92.7100223 Z" id="Path" fill="#FFFFFF" fill-rule="nonzero"></path>
            <path d="M246.598453,73.7188137 C246.686158,73.6188849 247.300096,72.9781653 251.509957,68.6165693 C253.080531,66.9950454 254.528755,65.25814 255.842605,63.4202743 C256.707965,62.209373 257.397914,61.2159637 257.801359,60.4811934 C258.271295,59.7052693 258.663038,58.8841365 258.970765,58.03 L258.970765,58.03 L259,59.0645565 C258.647559,64.3951396 257.520779,69.6451396 255.6555,74.6475632 C254.49628,77.9772465 253.042342,81.1956972 251.311158,84.2642358 C250.121693,86.4521376 248.594133,88.4362385 246.785558,90.1423976 L246.165773,90.7302138 L247.259167,86.1746384 C247.300096,86.0276844 247.645071,82.1716103 250.469186,76.963559 L254.638117,68.2168543 C244.464288,80.4140399 244.113466,84.2054542 244.230406,86.5625971 C244.305655,87.7454515 244.448166,88.9230084 244.657239,90.0894941 C244.657239,90.1717884 244.698169,90.5832597 244.71571,91.03 C243.452752,91.03 242.084547,90.7831172 241.458915,90.0307125 C240.710495,89.1372319 239.65803,87.867549 240.108251,85.104813 C240.652025,81.7425045 242.82712,78.5330281 244.259642,76.5403313 C244.952001,75.5300712 245.734869,74.5856272 246.598453,73.7188137 L246.598453,73.7188137 Z" id="Path" fill="#FFFFFF" fill-rule="nonzero"></path>
            <path d="M234.258256,48.6091131 L238.093994,43.0591754 C239.324153,41.2917223 240.416099,39.4385947 241.360795,37.5151295 C241.972555,36.2484239 242.468081,35.2114929 242.731138,34.4927112 C243.048364,33.6958314 243.283991,32.8710098 243.434662,32.03 L243.434662,32.03 L243.636543,32.9785562 C244.243959,37.9616056 244.089375,43.0035046 243.177723,47.9433562 C242.645299,51.216997 241.812071,54.4386371 240.687858,57.5703181 C239.918114,59.7848993 238.797602,61.8716071 237.365999,63.7565544 L236.864356,64.3987446 L237.121295,60.0094627 C237.121295,59.868063 236.784827,56.2446961 238.577285,50.9539912 L241.024326,42.1636441 C233.377321,55.1724152 233.683202,58.7309739 234.233786,60.8873191 C234.518212,61.9573708 234.863355,63.0115958 235.267661,64.0452454 C235.267661,64.1159452 235.396131,64.4930111 235.487895,64.8995352 C234.264374,65.105743 232.912383,65.123418 232.172153,64.5342526 C230.734061,63.543572 229.918067,61.9163628 230.006522,60.2156706 C229.926993,57.0223944 231.462511,53.6818268 232.490269,51.5961814 C232.990495,50.5539687 233.581961,49.5546696 234.258256,48.6091131 L234.258256,48.6091131 Z" id="Path" fill="#FFFFFF" fill-rule="nonzero"></path>
            <path d="M221.067624,26.3001045 L223.570027,20.712276 C224.372755,18.9398156 225.034315,17.1121921 225.549091,15.2449242 C225.891968,14.0172083 226.15063,13.013235 226.264923,12.3247961 C226.416353,11.5687578 226.482897,10.7994847 226.463431,10.03 L226.463431,10.03 L226.818339,10.8102307 C228.22401,15.1739109 228.953564,19.7100683 228.98388,24.2749469 C229.061258,27.2845194 228.859964,30.2947326 228.382341,33.2705477 C228.076185,35.3730157 227.422416,37.415888 226.445384,39.3230725 L226.108522,39.9770894 L225.579168,36.0128291 C224.9628,33.2778335 224.879198,30.4580358 225.332537,27.6941932 L226.042353,19.4444011 C221.392455,32.2780484 222.300779,35.4104451 223.14895,37.2290711 C223.591264,38.139454 224.085258,39.026177 224.628736,39.8852976 C224.628736,39.9484045 224.821229,40.2696759 224.977629,40.6138953 C223.912904,40.9925367 222.69178,41.2220163 221.92181,40.81469 C220.452211,40.1594664 219.432501,38.8368443 219.214883,37.3036519 C218.613344,34.4638417 219.407376,31.2339162 219.972823,29.2030216 C220.24737,28.2065109 220.613729,27.2350925 221.067624,26.3001045 L221.067624,26.3001045 Z" id="Path" fill="#FFFFFF" fill-rule="nonzero"></path>
            <path d="M220.680945,76.0812976 L217.135894,70.0032836 C215.999303,68.0695321 214.719639,66.220445 213.307238,64.4709557 C212.379616,63.3099216 211.611521,62.3927046 211.038405,61.8121875 C210.419924,61.1540241 209.737183,60.5570995 209,60.03 L209,60.03 L210.004431,60.2912327 C210.004431,60.2912327 216.503693,62.2998218 224.131462,67.7218515 C227.021827,69.7372865 229.724674,72.0004845 232.208272,74.4848756 C233.974591,76.2219145 235.459128,78.2150018 236.610044,80.3945395 L237,81.1550169 L232.905465,78.8619744 C232.77548,78.7923124 229.141802,77.4048765 224.899557,73.2948155 L217.614476,66.9091275 C226.559823,79.935931 230.128508,81.3117565 232.432792,81.8400271 C233.589325,82.0851198 234.759112,82.2653713 235.936484,82.379908 C236.007386,82.379908 236.420975,82.4785959 236.858198,82.583089 C236.491876,83.7847593 235.889217,85.0212608 234.985229,85.4160124 C233.909897,85.8862312 232.397341,86.5480207 229.850812,85.3637658 C226.760709,83.9356938 224.261448,80.9808618 222.731167,79.0709606 C221.957186,78.1373459 221.270969,77.136694 220.680945,76.0812976 Z" id="Path" fill="#FFFFFF" fill-rule="nonzero"></path>
            <path d="M212.747279,46.9102459 L206.558319,44.710834 C204.58428,44.0197215 202.662928,43.182398 200.809772,42.2056215 C199.592842,41.5587356 198.607708,41.0294654 197.981858,40.5942876 C197.270746,40.1423083 196.606718,39.6181885 196,39.03 L196,39.03 L196.405643,39.9062363 C198.901451,44.2275673 202.007669,48.1545043 205.625339,51.5619433 C207.963391,53.8653819 210.500112,55.9515982 213.205076,57.7955707 C215.096476,59.1156092 217.178503,60.1293947 219.376652,60.8006496 L220.141579,61.03 L217.348434,57.6426704 C215.59656,55.1345722 213.404248,52.9755597 210.881319,51.2737851 L203.799944,45.6988051 C217.290485,51.6383935 219.156445,54.6611147 220.025681,56.6841032 C220.443696,57.7017955 220.805474,58.7423483 221.109328,59.8009169 C221.144098,59.8656055 221.288971,60.2302138 221.451228,60.6183454 C222.494311,60.0714328 223.537394,59.3010505 223.76919,58.4012911 C224.277364,56.7783047 223.934312,55.0043665 222.85939,53.6966667 C221.022405,51.1091232 217.881566,49.3390083 215.870733,48.2628254 C214.869994,47.7213419 213.824941,47.2687926 212.747279,46.9102459 L212.747279,46.9102459 Z" id="Path" fill="#FFFFFF" fill-rule="nonzero"></path>
            <path d="M175.988993,244.44508 L187.265837,253.111238 C190.854669,255.880894 194.647515,258.379887 198.612542,260.587244 C201.214891,262.037381 203.351494,263.181313 204.853521,263.834164 C206.504789,264.596479 208.228901,265.19261 210,265.613615 L210,265.613615 L207.944901,265.890932 C207.909971,265.890932 194.368443,267.04642 176.105429,262.696009 C169.203452,261.124644 162.456424,258.945623 155.944505,256.184835 C151.33588,254.291376 147.053711,251.694872 143.252962,248.489287 L141.937234,247.368464 L151.252128,248.523952 C151.560683,248.570171 159.332798,248.402626 170.34766,252.862808 L188.738754,259.217991 C162.127266,241.683465 154.506519,241.810568 149.849072,242.567413 C146.7868,243.041163 146.583037,243.330035 142.961872,244.202428 C142.810505,244.202428 141.983808,244.387306 141.098893,244.525964 C140.848555,242.007001 141.005744,239.239608 142.368047,237.824136 C143.974867,236.142901 146.268659,233.779929 151.886705,234.051468 C158.704043,234.380782 165.602886,238.003236 169.905203,240.406651 C172.049989,241.57078 174.085972,242.922269 175.988993,244.44508 L175.988993,244.44508 Z" id="Path" fill="#FFFFFF" fill-rule="nonzero"></path>
            <path d="M77.0576096,14.0192742 C77.0576096,13.9257786 77.1900258,13.2888401 77.9544282,8.9471397 C78.2316909,7.32868851 78.6340896,5.73280432 79.1582115,4.17302231 C79.5012898,3.15041455 79.7962167,2.32064139 80.0490112,1.78304188 C80.2995919,1.16694373 80.6184639,0.579138707 81,0.03 L81,0.03 L80.3981083,0.456573524 C77.3336503,2.946747 74.6628061,5.86066424 72.4711952,9.10491347 C70.9786221,11.2117431 69.6814784,13.4429537 68.5950129,15.7723161 C67.8129928,17.4065379 67.2991829,19.149496 67.072227,20.9379462 L67,21.5573543 L69.2510748,18.9628523 C70.9873003,17.2780575 72.3890185,15.2971842 73.3860705,13.1193794 L76.810834,6.92529806 C73.9638865,18.1272357 71.8392089,19.9562427 70.3645744,20.8970419 C69.6218469,21.3518809 68.8543165,21.7673747 68.0653482,22.1417016 L67.4634566,22.5039969 C68.0653482,23.246118 68.7755804,23.9473347 69.5098882,23.9940825 C70.8506478,24.1727092 72.1929901,23.6773996 73.0730868,22.6793011 C74.8787618,20.9262592 75.8297506,18.2733225 76.4015477,16.5787154 C76.6994672,15.7465734 76.9190536,14.8899191 77.0576096,14.0192742 Z" id="Path" fill="#FFFFFF" fill-rule="nonzero"></path>
            <path d="M204.31035,27.8914458 L198.389157,26.7709639 C196.496685,26.4211184 194.631702,25.9217257 192.8099,25.276988 C191.618823,24.8553012 190.650004,24.4938554 190.023122,24.1986747 C189.312717,23.883268 188.634795,23.4916601 188,23.03 L188,23.03 L188.495807,23.7950602 C191.376546,27.4877429 194.758463,30.7093964 198.53163,33.3553012 C200.979515,35.167652 203.577407,36.7423355 206.293579,38.0601205 C208.19931,39.0114131 210.233465,39.6434712 212.323051,39.9336145 L213.041117,40.03 L210.03208,37.2950602 C208.079406,35.2045063 205.780874,33.5098569 203.250348,32.2950602 L196.046895,28.1324096 C209.125949,31.6444578 211.251651,34.2046988 212.334449,35.9637349 C212.865393,36.8550774 213.346817,37.7783248 213.776279,38.7287952 C213.810473,38.7890361 213.992839,39.1143373 214.198,39.4456627 C215.069937,38.7649398 215.907681,37.8793976 215.953272,36.9998795 C216.17376,35.391589 215.60465,33.7752647 214.443055,32.7107229 C212.408535,30.5540964 209.314014,29.3733735 207.330785,28.6745783 C206.347709,28.320186 205.336982,28.0581267 204.31035,27.8914458 Z" id="Path" fill="#FFFFFF" fill-rule="nonzero"></path>
            <path d="M203.945017,15.0121055 C203.945017,14.9186579 203.812715,14.2820457 203.048969,9.94257018 C202.769613,8.32732838 202.3676,6.73437096 201.84622,5.17673973 C201.497423,4.14881552 201.202749,3.32530805 200.962199,2.78214355 C200.698624,2.17014245 200.376478,1.5835214 200,1.03 L200,1.03 L200.631443,1.45635493 C203.686569,3.94184628 206.350811,6.84808816 208.539519,10.0827417 C210.030085,12.1878915 211.324167,14.4180718 212.406357,16.7467276 C213.187753,18.3805133 213.703061,20.1222769 213.933849,21.9097106 L214,22.5580037 L211.744845,19.9648313 C210.010988,18.2814379 208.612362,16.3013671 207.619416,14.1243528 L204.197595,7.95680749 C207.042096,19.1530048 209.164948,20.986915 210.638316,21.9213916 C211.373604,22.3699248 212.13457,22.7774699 212.917526,23.1420516 C212.965636,23.171254 213.236254,23.3289469 213.5189,23.5100017 C212.947595,24.245902 212.20189,24.9467594 211.474227,24.9934833 C210.13569,25.1734273 208.794697,24.6806441 207.914089,23.6852161 C206.109966,21.9330725 205.159794,19.2756548 204.594502,17.5819161 C204.298367,16.7461692 204.08098,15.8860346 203.945017,15.0121055 Z" id="Path" fill="#FFFFFF" fill-rule="nonzero"></path>
            <path d="M95,114.238372 C94.1678672,117.117457 93.1548948,119.93937 91.9673168,122.686744 C90.3726937,122.969535 86.0759093,124.03 81.8892989,124.03 C68.7206115,124.03 62,114.798062 62,105.336357 C62,93.3589922 70.6979441,86.03 83.1534001,86.03 C87.6705324,86.03 91.4744333,87.0904651 93.2894043,87.3143411 C93.5097522,89.8358915 93.8692673,93.2470543 94.3389562,96.0455039 L92.5993674,96.4402326 C91.4976278,92.6873643 90.0653664,90.2247287 87.2588297,89.0523256 C85.506489,88.3535788 83.6313649,88.028701 81.7501318,88.097907 C72.4723247,88.097907 67.7000527,95.5977519 67.7000527,104.163953 C67.7000527,114.968915 73.8176067,121.90907 82.1966263,121.90907 C87.8154982,121.90907 90.5118608,119.275581 93.3241961,113.661008 L95,114.238372 Z" id="Path" fill="#FFFFFF" fill-rule="nonzero"></path>
            <path d="M134,114.238372 C133.167867,117.117457 132.154895,119.93937 130.967317,122.686744 C129.372694,122.969535 125.075909,124.03 120.889299,124.03 C107.720611,124.03 101,114.798062 101,105.336357 C101,93.3589922 109.697944,86.03 122.1534,86.03 C126.670532,86.03 130.474433,87.0904651 132.289404,87.3143411 C132.509752,89.8358915 132.89826,93.2470543 133.338956,96.0455039 L131.628361,96.4402326 C130.526621,92.6873643 129.09436,90.2247287 126.287823,89.0523256 C124.535482,88.3535788 122.660358,88.028701 120.779125,88.097907 C111.501318,88.097907 106.729046,95.5977519 106.729046,104.163953 C106.729046,114.968915 112.8466,121.90907 121.225619,121.90907 C126.844491,121.90907 129.540854,119.275581 132.353189,113.661008 L134,114.238372 Z" id="Path" fill="#FFFFFF" fill-rule="nonzero"></path>
            <path d="M169.116667,123.03 L169.116667,121.479231 C173.704762,121.036154 173.869674,120.703846 173.828446,114.774777 L173.881454,92.1778543 C169.293358,102.316154 161.907644,118.156154 159.952256,123.03 L158.497494,123.03 C156.595113,117.987085 150.25188,102.759231 146.017168,92.7142105 C145.068922,112.104656 145.010025,116.477126 145.010025,117.526518 C145.068922,120.633887 146.464787,121.071134 150.269549,121.461741 L150.269549,123.03 L137,123.03 L137,121.479231 C140.245238,121.146923 141.588095,120.482308 142.035714,117.491538 C142.371429,115.054615 142.424436,113.060769 143.879198,92.8424696 C144.103008,89.9624696 143.543484,89.0238462 138.619674,88.5807692 L138.619674,87.03 L148.355388,87.03 L160.72381,115.112915 L173.981579,87.03 L183.77619,87.03 L183.77619,88.5807692 C178.964286,89.1637652 178.345865,89.6301619 178.475439,93.507085 L178.699248,114.774777 C178.923058,120.703846 179.09386,120.983684 184,121.479231 L184,123.03 L169.116667,123.03 Z" id="Path" fill="#FFFFFF" fill-rule="nonzero"></path>
            <path d="M204.65158,87.03 C208.686593,87.03 211.920581,87.747085 214.251921,89.4086235 C216.463706,91.0176923 218,93.6178543 218,97.2732389 C218,105.359393 210.898377,108.63 205.506405,108.63 C204.992095,108.633171 204.478351,108.596129 203.970111,108.519231 L200.054654,107.522308 L200.054654,116.162308 C200.054654,120.826275 200.449189,120.925385 205.673783,121.479231 L205.673783,123.03 L190,123.03 L190,121.479231 C194.88386,120.983684 195.111016,120.651377 195.111016,116.051538 L195.111016,94.0609312 C195.111016,89.1346154 194.513237,89.0238462 190,88.5807692 L190,87.03 L204.65158,87.03 Z M200.054654,105.580931 C201.369649,106.097884 202.780059,106.34401 204.197267,106.303846 C208.005124,106.303846 212.715628,104.420769 212.715628,97.4423077 C212.715628,91.35 208.626815,88.9130769 203.856533,88.9130769 C202.212639,88.9130769 201.017079,89.187085 200.676345,89.5776923 C200.222032,89.9624696 200.078565,90.627085 200.078565,92.1253846 L200.054654,105.580931 Z" id="Shape" fill="#FFFFFF" fill-rule="nonzero"></path>
            <path d="M241,132.03 C241,185.051091 195.121813,228.03 138.5,228.03 C81.878187,228.03 36,185.051091 36,132.03 M94.0155807,203.698364 C97.5,203.698364 100.984419,201.824909 100.984419,201.824909 C100.984419,201.824909 98.8473088,204.501273 102.052975,204.233636 C105.25864,203.966 108.185552,200.742727 108.185552,200.742727 C107.651275,202.610364 108.986969,202.878 108.986969,202.878 C112.988244,202.610364 115.653824,197.798727 115.653824,197.798727 C115.653824,197.798727 115.920963,200.475091 117.256657,200.475091 C118.325212,200.475091 121.79221,196.984182 122.326487,196.466364 C122.512323,196.274364 122.593626,197.531091 123.923513,197.798727 C125.253399,198.066364 126.594901,195.128182 126.594901,195.128182 C126.594901,195.128182 127.129178,196.728182 128.459065,196.466364 C129.788952,196.204545 130.596176,194.325273 130.596176,194.325273 C130.807954,194.886527 131.07649,195.424601 131.397592,195.931091 C131.664731,196.198727 132.727479,195.128182 132.727479,195.128182 C132.727479,195.128182 134.59745,198.619091 134.063173,201.528182 C133.528895,204.437273 128.459065,211.419091 127.396317,212.757273 C126.840655,213.389016 126.751189,214.306242 127.174264,215.033807 C127.597338,215.761372 128.437886,216.135785 129.260482,215.963091 C131.397592,215.695455 131.93187,214.357273 132.994618,214.357273 C134.057365,214.357273 134.330312,217.301273 135.933144,217.301273 C137.535977,217.301273 137.797309,214.892545 138.598725,214.892545 C139.400142,214.892545 138.865864,217.033636 140.997167,217.301273 C143.12847,217.568909 143.668555,214.357273 144.73711,214.357273 C145.805666,214.357273 146.601275,217.033636 147.936969,215.160182 C149.272663,213.286727 142.6,205.804545 142.332861,201.260545 C142.065722,196.716545 148.720963,194.581273 148.720963,194.581273 C148.988102,195.384182 151.653683,196.984182 151.920822,196.716545 C152.169808,196.304367 152.350254,195.854376 152.455099,195.384182 C152.722238,196.454727 154.853541,197.519455 155.654958,197.787091 C156.456374,198.054727 156.990652,196.454727 156.990652,196.454727 C158.854816,199.660545 161.526204,200.463455 162.588952,200.463455 C163.6517,200.463455 163.657507,198.054727 163.657507,198.054727 C165.527479,201.545636 170.045609,203.401636 170.85864,202.866364 C171.671671,202.331091 171.125779,200.992909 171.125779,200.992909 C171.125779,200.992909 176.195609,204.204545 178.33272,204.483818 C180.46983,204.763091 178.599858,201.807455 178.599858,201.807455 C188.199433,206.351455 187.932295,201.539818 187.403824,199.939818 C186.875354,198.339818 177.531303,194.860545 175.92847,191.654727 C170.643768,181.065636 157.25779,171.605273 152.989377,173.478727 C150.898725,174.392182 151.653683,177.487455 151.119405,179.878727 C150.585127,182.27 147.11813,182.822727 147.11813,182.822727 C147.11813,182.822727 147.652408,181.216909 145.515297,179.081636 C139.649858,174.002364 141.781161,172.396545 141.781161,172.396545 L144.719688,171.861273 L142.0483,170.796545 C142.0483,170.796545 141.246884,168.655455 139.649858,168.655455 C138.052833,168.655455 134.045751,169.190727 134.31289,172.664182 C134.580028,176.137636 136.97847,183.358 132.710057,182.822727 C128.441643,182.287455 128.441643,180.681636 127.913173,179.878727 C127.384703,179.075818 129.243059,173.478727 126.31034,173.734727 C109.550283,175.259091 104.823088,195.989273 92.9644476,199.392909 C91.0538244,199.957273 90.5311615,203.698364 94.0155807,203.698364 Z" id="Shape" fill="#FFFFFF" fill-rule="nonzero"></path>
            <path d="M70.8478261,152.716816 C71.2282609,153.863246 72.1400966,154.682944 74.2536232,154.682944 C76.3671498,154.682944 77.0857488,153.949229 77.0857488,153.037817 C77.0857488,152.126404 76.4818841,151.490135 73.7524155,151.04876 C70.2862319,150.475545 69.5253623,149.443757 69.5253623,148.010719 C69.5253623,146.090448 71.4516908,145.03 73.9214976,145.03 C77.5929952,145.03 78.486715,146.84136 78.6135266,147.947665 L76.7536232,147.947665 C76.5483092,147.277004 76.0954106,146.382788 73.8731884,146.382788 C72.3454106,146.382788 71.4033816,146.870021 71.4033816,147.838755 C71.4033816,148.646988 71.8562802,149.134221 74.2838164,149.524007 C78.3478261,150.188937 79,151.381225 79,152.86012 C79,154.579766 77.5628019,156.03 74.1207729,156.03 C70.9263285,156.03 69.3502415,154.654283 69,152.716816 L70.8478261,152.716816 Z" id="Path" fill="#272262" fill-rule="nonzero"></path>
            <path d="M90.9700216,152.660441 C90.3704527,154.47966 88.9434787,156.03 85.7177982,156.03 C81.9764884,156.03 80.0039067,153.541446 80.0039067,150.555182 C79.9457063,149.070686 80.5399254,147.630453 81.6431031,146.582197 C82.7462808,145.53394 84.2581594,144.972925 85.8137292,145.034598 C89.0514011,145.034598 90.6102802,146.716517 91,148.467085 L89.1353408,148.467085 C88.7156426,147.477385 87.8942332,146.470522 85.7897464,146.470522 C83.3914709,146.470522 81.9405142,148.186766 81.9405142,150.475091 C81.9405142,152.763416 83.331514,154.599797 85.8077335,154.599797 C87.7683237,154.599797 88.5657503,153.810325 89.1233494,152.643279 L90.9700216,152.660441 Z" id="Path" fill="#272262" fill-rule="nonzero"></path>
            <polygon id="Path" fill="#272262" fill-rule="nonzero" points="94 145.03 95.6343826 145.03 95.6343826 149.398964 101.338378 149.398964 101.338378 145.03 103 145.03 103 156.03 101.338378 156.03 101.338378 150.909002 95.6616223 150.909002 95.6616223 156.03 94.0272397 156.03"></polygon>
            <path d="M116,150.463161 C116,153.450947 114.030272,156.03 110.468958,156.03 C107.082606,156.03 105,153.57184 105,150.463161 C105.095121,147.43477 107.529475,145.03 110.5,145.03 C113.470525,145.03 115.904879,147.43477 116,150.463161 L116,150.463161 Z M106.811698,150.42862 C106.811698,152.644993 108.092868,154.590796 110.536685,154.590796 C112.980503,154.590796 114.177014,152.662264 114.177014,150.497701 C114.177014,148.333139 112.924064,146.404606 110.440739,146.404606 C108.115444,146.404606 106.811698,148.321626 106.811698,150.42862 Z" id="Shape" fill="#272262" fill-rule="nonzero"></path>
            <path d="M128.998435,150.4947 C128.998435,153.462204 127.025326,156.023748 123.473732,156.023748 C122.0057,156.096121 120.575602,155.537474 119.534713,154.485027 C118.493824,153.432581 117.938594,151.983854 118.005403,150.4947 C117.985713,149.015409 118.566187,147.592896 119.61085,146.560386 C120.655512,145.527876 122.072581,144.976083 123.530106,145.034265 C124.98265,144.975356 126.394459,145.528801 127.430362,146.563209 C128.466265,147.597616 129.033874,149.020732 128.998435,150.4947 Z M119.8263,150.460394 C119.8263,152.661721 121.100364,154.594315 123.547018,154.594315 C125.993673,154.594315 127.177538,152.678874 127.177538,150.529007 C127.177538,148.379139 125.931661,146.463698 123.451182,146.463698 C121.122914,146.463698 119.8263,148.367704 119.8263,150.460394 Z" id="Shape" fill="#272262" fill-rule="nonzero"></path>
            <polygon id="Path" fill="#272262" fill-rule="nonzero" points="132 145.03 133.7229 145.03 133.7229 154.513993 140 154.513993 139.764537 156.03 132 156.03"></polygon>
            <path d="M157,150.463161 C157,153.450947 155.030272,156.03 151.468958,156.03 C148.082606,156.03 146,153.57184 146,150.463161 C146.095121,147.43477 148.529475,145.03 151.5,145.03 C154.470525,145.03 156.904879,147.43477 157,150.463161 L157,150.463161 Z M147.817342,150.42862 C147.817342,152.644993 149.098512,154.590796 151.542329,154.590796 C153.986147,154.590796 155.182658,152.662264 155.182658,150.497701 C155.182658,148.333139 153.929708,146.404606 151.446383,146.404606 C149.115444,146.404606 147.817342,148.321626 147.817342,150.42862 L147.817342,150.42862 Z" id="Shape" fill="#272262" fill-rule="nonzero"></path>
            <polygon id="Path" fill="#272262" fill-rule="nonzero" points="160 145.03 168 145.03 168 146.528101 161.701534 146.528101 161.701534 149.852572 167.548117 149.852572 167.548117 151.374547 161.701534 151.374547 161.701534 156.03 160.027894 156.03"></polygon>
            <polygon id="Path" fill="#272262" fill-rule="nonzero" points="174 145.03 175.724138 145.03 175.724138 154.513993 182 154.513993 181.747126 156.03 174 156.03"></polygon>
            <path d="M185.969497,152.896522 L184.767158,156.03 L183,156.03 L187.361973,145.03 L189.475852,145.03 L194,156.03 L192.148958,156.03 L190.862735,152.896522 L185.969497,152.896522 Z M190.331469,151.374547 C189.145907,148.461905 188.581088,147.0593 188.34062,146.28936 L188.34062,146.28936 C188.122522,147.035426 187.457041,148.867765 186.478393,151.374547 L190.331469,151.374547 Z" id="Shape" fill="#272262" fill-rule="nonzero"></path>
            <path d="M197.314412,156.03 L194,145.03 L195.893107,145.03 C196.659786,147.697933 198.169554,152.729403 198.405455,154.317032 L198.405455,154.317032 C198.718024,152.645844 200.292665,147.66809 201.118319,145.03 L202.887578,145.03 C203.636565,147.483066 205.287873,152.962176 205.535569,154.269284 L205.535569,154.269284 C205.871729,152.532442 207.410984,147.572594 208.189458,145.03 L210,145.03 L206.461482,156.03 L204.503502,156.03 C203.74272,153.547092 202.144489,148.330597 201.867306,146.963804 L201.867306,146.963804 C201.584224,148.473842 200.098046,153.248665 199.201622,156.03 L197.314412,156.03 Z" id="Path" fill="#272262" fill-rule="nonzero"></path>
        </g>
    </g>
</svg>