<?xml version="1.0" encoding="UTF-8"?>
<svg width="485px" height="467px" viewBox="0 0 485 467" version="1.1" xmlns="http://www.w3.org/2000/svg" xmlns:xlink="http://www.w3.org/1999/xlink">
    <!-- Generator: Sketch 61.2 (89653) - https://sketch.com -->
    <title>logo_dark_purple</title>
    <desc>Created with Sketch.</desc>
    <defs>
        <filter x="-3.4%" y="-3.5%" width="106.7%" height="107.0%" filterUnits="objectBoundingBox" id="filter-1">
            <feOffset dx="0" dy="3" in="SourceAlpha" result="shadowOffsetOuter1"></feOffset>
            <feGaussianBlur stdDeviation="2.5" in="shadowOffsetOuter1" result="shadowBlurOuter1"></feGaussianBlur>
            <feColorMatrix values="0 0 0 0 0   0 0 0 0 0   0 0 0 0 0  0 0 0 0.5 0" type="matrix" in="shadowBlurOuter1" result="shadowMatrixOuter1"></feColorMatrix>
            <feMerge>
                <feMergeNode in="shadowMatrixOuter1"></feMergeNode>
                <feMergeNode in="SourceGraphic"></feMergeNode>
            </feMerge>
        </filter>
    </defs>
    <g id="Page-1" stroke="none" stroke-width="1" fill="none" fill-rule="evenodd">
        <g id="logo_dark_purple" filter="url(#filter-1)" transform="translate(5.000000, 0.000000)">
            <path d="M131.15,401.09 L116.78,412.19 C112.208401,415.74438 107.37837,418.953259 102.33,421.79 C99.01,423.65 96.33,425.12 94.39,425.96 C92.2850554,426.937398 90.0873911,427.70122 87.83,428.24 L87.83,428.24 L90.45,428.6 C90.45,428.6 107.73,430.1 131,424.5 C139.791548,422.482444 148.385603,419.68469 156.68,416.14 C162.550189,413.706015 168.005548,410.372747 172.85,406.26 L174.52,404.83 L162.64,406.34 C162.26,406.39 152.35,406.18 138.32,411.9 L114.9,420.07 C148.81,397.55 158.54,397.71 164.49,398.68 C168.39,399.29 168.65,399.68 173.26,400.78 C173.46,400.78 174.5,401.02 175.63,401.2 C175.95,397.96 175.76,394.41 174.02,392.59 C171.97,390.43 169.02,387.38 161.89,387.75 C153.2,388.17 144.42,392.82 138.94,395.91 C136.195047,397.40255 133.588131,399.136032 131.15,401.09 L131.15,401.09 Z" id="Path" fill="#272262" fill-rule="nonzero"></path>
            <path d="M366,60.82 C399.91,97.11 421,147.75 421,203.82 C421,314.19 339.38,403.65 238.69,403.65 C138,403.65 56.34,314.17 56.34,203.8 C56.34,147.75 77.4,97.11 111.34,60.8 C80.64,95.68 61.74,143.14 61.74,195.44 C61.74,302.54 140.96,389.37 238.67,389.37 C336.38,389.37 415.6,302.54 415.6,195.44 C415.57,143.16 396.68,95.7 366,60.82 Z" id="Path" fill="#272262"></path>
            <path d="M106.81,378.1 L91.34,386.1 C86.4145021,388.647341 81.3072175,390.826627 76.06,392.62 C72.61,393.8 69.79,394.71 67.85,395.17 C65.695259,395.720731 63.4910699,396.055714 61.27,396.17 L61.27,396.17 L63.68,396.97 C63.68,396.97 79.68,401.38 102.6,400.15 C111.2349,399.777421 119.819137,398.632856 128.25,396.73 C134.218644,395.46035 139.953737,393.270894 145.25,390.24 L147.07,389.17 L135.61,388.54 C135.24,388.54 125.94,386.6 111.73,389.54 L88.2,393.15 C124.06,377.83 133.2,379.68 138.64,381.63 C142.21,382.88 142.4,383.27 146.54,385.12 C146.72,385.18 147.67,385.57 148.7,385.93 C149.57,382.93 150,379.55 148.7,377.54 C147.14,375.15 144.93,371.77 138.12,370.87 C129.85,369.76 120.78,372.61 115.12,374.57 C112.249022,375.493139 109.46764,376.67464 106.81,378.1 L106.81,378.1 Z" id="Path" fill="#272262" fill-rule="nonzero"></path>
            <path d="M77.75,350.28 L61.82,355.09 C56.7427593,356.632787 51.5587181,357.79928 46.31,358.58 C42.86,359.08 40.05,359.45 38.15,359.58 C36.0288947,359.725168 33.8986568,359.661528 31.79,359.39 L31.79,359.39 L33.91,360.55 C33.91,360.55 48.22,367.48 69.96,370.3 C78.1470923,371.443805 86.4195425,371.858766 94.68,371.54 C100.502689,371.36997 106.264081,370.300672 111.76,368.37 L113.65,367.68 L103,365.06 C102.65,364.98 94.24,361.57 80.36,361.87 L57.64,361.21 C94.03,353.02 102.3,356.34 107.09,359.12 C110.22,360.91 110.33,361.31 113.9,363.78 C114.07,363.86 114.9,364.39 115.79,364.91 C117.13,362.25 118.12,359.14 117.23,357.02 C116.23,354.5 114.68,350.93 108.43,348.9 C100.86,346.43 91.82,347.53 86.11,348.39 C83.2721777,348.767374 80.474176,349.399937 77.75,350.28 L77.75,350.28 Z" id="Path" fill="#272262" fill-rule="nonzero"></path>
            <path d="M58.56,318.32 L42.78,320.07 C37.7480635,320.639363 32.6809667,320.836565 27.62,320.66 C24.3,320.54 21.62,320.4 19.79,320.16 C17.7723936,319.931727 15.7825601,319.502941 13.85,318.88 L13.85,318.88 L15.64,320.34 C15.64,320.34 27.87,329.34 47.8,335.73 C55.2895298,338.224076 62.9867405,340.044634 70.8,341.17 C76.2932145,342.029951 81.8867855,342.029951 87.38,341.17 L89.28,340.86 L79.72,336.58 C79.41,336.44 72.1,331.78 59.02,329.67 L37.82,325.11 C73.38,323.72 80.58,328.27 84.58,331.71 C87.21,333.94 87.25,334.33 90.18,337.26 C90.31,337.37 91,338.01 91.76,338.65 C93.47,336.39 94.94,333.65 94.46,331.49 C93.92,328.94 93.12,325.34 87.62,322.36 C80.93,318.72 72.26,318.19 66.76,318.01 C64.0229255,317.86394 61.2782342,317.967702 58.56,318.32 Z" id="Path" fill="#272262" fill-rule="nonzero"></path>
            <path d="M45.16,281.53 C44.87,281.53 42.99,281.36 30.07,280.44 C25.2618547,280.105979 20.4852912,279.414062 15.78,278.37 C12.69,277.69 10.19,277.09 8.53,276.55 C6.68111916,275.996938 4.89482764,275.252929 3.2,274.33 L3.2,274.33 L4.62,276 C4.62,276 14.52,286.52 32.07,296 C38.6472968,299.608909 45.5348585,302.620962 52.65,305 C57.6453935,306.744716 62.8806446,307.706086 68.17,307.85 L70.01,307.85 L61.79,302.2 C61.52,302.02 55.49,296.39 43.61,292.15 L24.53,284.22 C58.08,289.07 64.03,294.57 67.18,298.47 C69.27,301.01 69.18,301.39 71.46,304.64 C71.57,304.77 72.1,305.48 72.71,306.22 C74.71,304.39 76.55,302.07 76.47,299.98 C76.4,297.5 76.29,293.98 71.64,290.24 C66,285.74 58,283.75 52.86,282.63 C50.3314401,282.033556 47.7544218,281.665411 45.16,281.53 Z" id="Path" fill="#272262" fill-rule="nonzero"></path>
            <path d="M38,241.84 L24.1,238.23 C19.664915,237.087308 15.3198648,235.620018 11.1,233.84 C8.33,232.66 6.1,231.67 4.65,230.84 C3.01896669,229.998465 1.47770976,228.993298 0.05,227.84 L0,227.84 L1,229.65 C1,229.65 8.43,241.18 23.2,253.02 C28.7120278,257.540587 34.6191132,261.556735 40.85,265.02 C45.2123979,267.511142 49.9354129,269.309261 54.85,270.35 L56.56,270.7 L49.87,264 C49.64,263.79 44.97,257.49 34.6,251.49 L18.16,240.79 C48.66,251.1 53.27,257.27 55.54,261.45 C56.6355067,263.561112 57.6136609,265.731079 58.47,267.95 C58.56,268.09 58.93,268.85 59.36,269.64 C61.54,268.27 63.67,266.43 63.96,264.46 C64.32,262.13 64.81,258.84 61.12,254.53 C56.65,249.31 49.49,246.07 44.9,244.13 C42.671732,243.165467 40.3628016,242.39917 38,241.84 L38,241.84 Z" id="Path" fill="#272262" fill-rule="nonzero"></path>
            <path d="M37.14,200.74 C36.91,200.62 35.37,199.9 24.82,194.98 C20.8857584,193.156566 17.0920386,191.044115 13.47,188.66 C11.09,187.09 9.18,185.78 7.97,184.8 C6.59138917,183.738487 5.3248155,182.538928 4.19,181.22 L4.19,181.22 L4.85,183.09 C4.85,183.09 9.85,195.09 21.51,208.67 C25.8718582,213.83071 30.6878205,218.589777 35.9,222.89 C39.5251141,225.961531 43.6076251,228.448151 48,230.26 L49.53,230.88 L44.44,223.49 C44.27,223.25 41.01,216.59 32.38,209.21 L18.93,196.43 C45.56,211.27 48.8,217.8 50.2,222.09 C50.8533117,224.246379 51.390747,226.436177 51.81,228.65 C51.81,228.79 52.08,229.56 52.35,230.37 C54.62,229.47 56.91,228.12 57.52,226.37 C58.26,224.26 59.29,221.28 56.59,216.64 C53.32,211 47.21,206.75 43.27,204.16 C41.3344579,202.836706 39.2826911,201.692001 37.14,200.74 L37.14,200.74 Z" id="Path" fill="#272262" fill-rule="nonzero"></path>
            <path d="M42.72,159.64 C42.52,159.5 41.22,158.56 32.26,152.19 C28.9217796,149.823182 25.7631656,147.212729 22.81,144.38 C20.87,142.51 19.31,140.97 18.36,139.85 C17.2617842,138.61951 16.2933328,137.279093 15.47,135.85 L15.47,135.85 L15.76,137.7 C15.76,137.7 18.29,149.7 26.84,164.3 C30.0106006,169.84707 33.6683484,175.101108 37.77,180 C40.6202652,183.474235 43.9939895,186.483597 47.77,188.92 L49.08,189.76 L45.62,182 C45.5,181.74 43.62,175 36.87,166.67 L26.55,152.53 C48.73,170.86 50.61,177.48 51.18,181.71 C51.4193298,183.821764 51.5461756,185.944762 51.56,188.07 C51.56,188.21 51.65,188.96 51.76,189.76 C54.02,189.32 56.38,188.45 57.26,186.91 C58.26,185.08 59.76,182.48 58.05,177.71 C55.98,171.91 51.05,166.92 47.82,163.84 C46.24405,162.295825 44.5377131,160.890606 42.72,159.64 L42.72,159.64 Z" id="Path" fill="#272262" fill-rule="nonzero"></path>
            <path d="M53.12,127.49 C52.97,127.32 51.91,126.23 44.72,118.81 C42.0350618,116.058274 39.555105,113.113743 37.3,110 C35.82,107.94 34.65,106.25 33.96,105 C33.1554575,103.680436 32.4854308,102.28343 31.96,100.83 L31.96,100.83 L31.96,102.59 C32.5619772,111.657611 34.4856291,120.588612 37.67,129.1 C39.6568351,134.762789 42.143294,140.237684 45.1,145.46 C47.1418709,149.177129 49.7535419,152.551381 52.84,155.46 L53.91,156.46 L52,148.69 C51.93,148.44 51.34,141.88 46.51,133.02 L39.39,118.14 C56.78,138.89 57.39,145.34 57.19,149.35 C57.0562494,151.361814 56.812552,153.364806 56.46,155.35 C56.46,155.49 56.39,156.19 56.35,156.95 C58.52,156.95 60.85,156.53 61.92,155.25 C63.2,153.73 65,151.57 64.23,146.87 C63.31,141.15 59.58,135.69 57.13,132.3 C55.9417371,130.578552 54.5995554,128.968603 53.12,127.49 L53.12,127.49 Z" id="Path" fill="#272262" fill-rule="nonzero"></path>
            <path d="M71.94,83.28 C71.82,83.1 71.05,81.92 65.67,73.85 C63.6635834,70.8491432 61.8820493,67.7038831 60.34,64.44 C59.34,62.29 58.54,60.54 58.1,59.31 C57.5886796,57.9588037 57.2200094,56.5578571 57,55.13 L57,55.13 L56.65,56.75 C55.6645683,65.2088247 55.9239909,73.7664001 57.42,82.15 C58.2741692,87.7086877 59.633122,93.1779707 61.48,98.49 C62.724066,102.254084 64.5494796,105.800313 66.89,109 L67.71,110.1 L67.29,102.65 C67.29,102.41 67.85,96.25 64.9,87.27 L60.9,72.35 C73.41,94.43 72.9,100.48 72.01,104.13 C71.5479508,105.947037 70.9837203,107.736549 70.32,109.49 C70.32,109.61 70.11,110.26 69.95,110.95 C71.95,111.29 74.17,111.33 75.37,110.32 C77.7130385,108.638404 79.0394118,105.880151 78.89,103 C79,97.57 76.5,91.91 74.83,88.36 C74.0232952,86.5822331 73.0559459,84.8818404 71.94,83.28 Z" id="Path" fill="#272262" fill-rule="nonzero"></path>
            <path d="M98.92,46 C98.85,45.82 98.32,44.6 94.76,36.29 C93.4326177,33.1943074 92.333028,30.0058316 91.47,26.75 C90.91,24.62 90.47,22.87 90.28,21.67 C90.0282624,20.3521692 89.9176382,19.011269 89.95,17.67 L89.95,17.67 L89.36,19 C87.0251225,26.5926764 85.8156036,34.4865556 85.77,42.43 C85.6313096,47.6761004 85.9659983,52.9240203 86.77,58.11 C87.2809839,61.7686035 88.3606813,65.3248568 89.97,68.65 L90.55,69.8 L91.42,62.89 C92.4439716,58.1226176 92.5829472,53.2076263 91.83,48.39 L90.61,34.05 C98.35,56.42 96.84,61.88 95.42,65.05 C94.7010434,66.6505733 93.8931146,68.2096756 93,69.72 C93,69.83 92.69,70.38 92.42,70.99 C94.19,71.64 96.22,72.05 97.5,71.34 C99.9430641,70.1978967 101.638232,67.8924682 102,65.22 C103,60.27 101.69,54.64 100.75,51.1 C100.290023,49.3498463 99.6776842,47.6433295 98.92,46 Z" id="Path" fill="#272262" fill-rule="nonzero"></path>
            <path d="M96.15,132 C96.26,131.8 97.01,130.49 102.15,121.53 C104.065401,118.18569 106.224578,114.987033 108.61,111.96 C110.17,109.96 111.48,108.38 112.44,107.38 C113.490917,106.246751 114.649722,105.218562 115.9,104.31 L115.9,104.31 L114.2,104.76 C114.2,104.76 103.2,108.22 90.29,117.56 C85.3951077,121.031982 80.8172342,124.930536 76.61,129.21 C73.6175953,132.197409 71.1076439,135.631724 69.17,139.39 L68.5,140.7 L75.43,136.75 C75.65,136.63 81.8,134.24 88.99,127.16 L101.32,116.16 C86.19,138.68 80.16,141.05 76.25,142 C74.2959472,142.42227 72.3194058,142.732774 70.33,142.93 C70.2,142.93 69.5,143.1 68.77,143.28 C69.38,145.35 70.41,147.48 71.94,148.16 C73.75,148.97 76.32,150.11 80.63,148.07 C85.87,145.61 90.09,140.52 92.68,137.23 C93.9899222,135.593346 95.1511936,133.843073 96.15,132 Z" id="Path" fill="#272262" fill-rule="nonzero"></path>
            <path d="M110.86,81 L121.55,77.26 C124.956508,76.0847946 128.272094,74.6609641 131.47,73 C133.57,71.9 135.26,71 136.34,70.26 C137.568978,69.4896483 138.718005,68.5985659 139.77,67.6 L139.77,67.6 L139.06,69 C134.758542,76.3492021 129.40142,83.0270743 123.16,88.82 C119.125333,92.7368926 114.747832,96.2844086 110.08,99.42 C106.812049,101.66391 103.216025,103.387708 99.42,104.53 L98.1,105 L102.93,99.29 C103.08,99.11 106.33,93.85 114.09,88.46 L126.31,78.98 C103,89 99.81,94.18 98.29,97.62 C97.5730698,99.3522357 96.9488534,101.121405 96.42,102.92 C96.42,103.03 96.12,103.65 95.83,104.31 C94.03,103.38 92.24,102.07 91.83,100.54 C90.9634721,97.7780758 91.5585309,94.7651198 93.41,92.54 C96.57,88.14 101.99,85.13 105.47,83.3 C107.197124,82.3796375 109.000488,81.6101133 110.86,81 Z" id="Path" fill="#272262" fill-rule="nonzero"></path>
            <path d="M126.4,47.8 L136.8,45.94 C140.116969,45.3569124 143.385984,44.5279599 146.58,43.46 C148.67,42.76 150.37,42.16 151.48,41.67 C152.715144,41.1424415 153.894359,40.492533 155,39.73 L155,39.73 L154.15,41 C149.097325,47.1282901 143.166566,52.476082 136.55,56.87 C132.248751,59.8747283 127.687223,62.4884873 122.92,64.68 C119.576451,66.2603664 116.006897,67.3096401 112.34,67.79 L111.07,67.95 L116.36,63.41 C119.786385,59.9396805 123.81965,57.1265624 128.26,55.11 L140.93,48.2 C117.93,54.03 114.25,58.28 112.34,61.2 C111.415732,62.6822019 110.574438,64.2145583 109.82,65.79 C109.76,65.89 109.44,66.43 109.08,66.98 C107.55,65.85 106.08,64.38 106,62.92 C105.612591,60.2522152 106.606998,57.5703289 108.64,55.8 C112.22,52.22 117.64,50.26 121.13,49.1 C122.844971,48.5123682 124.608488,48.0773449 126.4,47.8 L126.4,47.8 Z" id="Path" fill="#272262" fill-rule="nonzero"></path>
            <path d="M173,420.08 C172.62,420.37 170.1,422.31 152.89,435.63 C146.483499,440.599313 139.718397,445.088213 132.65,449.06 C128,451.66 124.19,453.73 121.52,454.9 C118.575159,456.26958 115.499562,457.338333 112.34,458.09 L112.34,458.09 L116.01,458.6 C116.07,458.6 140.21,460.69 172.79,452.85 C185.116129,450.03583 197.164546,446.120095 208.79,441.15 C217.011147,437.743417 224.649851,433.073821 231.43,427.31 L233.77,425.31 L217.14,427.43 C216.6,427.51 202.72,427.22 183.08,435.23 L150.28,446.66 C197.76,415.13 211.39,415.36 219.72,416.72 C225.18,417.57 225.55,418.08 232,419.65 C232.28,419.65 233.75,419.99 235.32,420.24 C235.78,415.7 235.5,410.73 233.06,408.19 C230.19,405.19 226.11,400.9 216.06,401.4 C203.9,402 191.6,408.51 183.92,412.83 C180.073038,414.919439 176.418753,417.34559 173,420.08 L173,420.08 Z" id="Path" fill="#272262" fill-rule="nonzero"></path>
            <path d="M344.78,401.09 L359.14,412.19 C363.711599,415.74438 368.54163,418.953259 373.59,421.79 C376.91,423.65 379.59,425.12 381.59,425.96 C383.694945,426.937398 385.892609,427.70122 388.15,428.24 L388.15,428.24 L385.53,428.6 C385.48,428.6 368.24,430.1 344.97,424.5 C336.181656,422.482591 327.590908,419.684824 319.3,416.14 C313.427622,413.704323 307.969219,410.371256 303.12,406.26 L301.45,404.83 L313.33,406.34 C313.72,406.39 323.63,406.18 337.66,411.9 L361,420.07 C327.09,397.55 317.35,397.71 311.41,398.68 C307.5,399.29 307.24,399.68 302.63,400.78 C302.43,400.78 301.39,401.02 300.27,401.2 C299.94,397.96 300.14,394.41 301.88,392.59 C303.94,390.43 306.88,387.38 314,387.75 C322.7,388.17 331.48,392.82 337,395.91 C339.741499,397.403058 342.34505,399.136528 344.78,401.09 L344.78,401.09 Z" id="Path" fill="#272262" fill-rule="nonzero"></path>
            <path d="M369.11,378.1 L384.58,386.1 C389.508823,388.647595 394.619451,390.826882 399.87,392.62 C403.32,393.8 406.14,394.71 408.08,395.17 C410.234395,395.722431 412.438755,396.057441 414.66,396.17 L414.66,396.17 L412.25,396.97 C412.25,396.97 396.25,401.38 373.33,400.15 C364.691869,399.77663 356.104383,398.632078 347.67,396.73 C341.70209,395.457864 335.967373,393.268551 330.67,390.24 L328.85,389.17 L340.31,388.54 C340.68,388.54 349.98,386.6 364.2,389.54 L387.69,393.16 C351.82,377.84 342.69,379.69 337.24,381.64 C333.67,382.89 333.49,383.28 329.34,385.13 C329.17,385.19 328.21,385.58 327.18,385.94 C326.31,382.94 325.89,379.56 327.18,377.55 C328.73,375.16 330.95,371.78 337.76,370.88 C346.02,369.77 355.11,372.62 360.81,374.58 C363.678762,375.49631 366.457137,376.674609 369.11,378.1 L369.11,378.1 Z" id="Path" fill="#272262" fill-rule="nonzero"></path>
            <path d="M398.18,350.28 L414.11,355.09 C419.18362,356.633645 424.364401,357.800157 429.61,358.58 C433.06,359.08 435.88,359.45 437.77,359.58 C439.894438,359.725115 442.027988,359.661476 444.14,359.39 L444.14,359.39 L442,360.52 C442,360.52 427.7,367.45 405.95,370.27 C397.766256,371.413738 389.497132,371.8287 381.24,371.51 C375.417157,371.341412 369.655545,370.272073 364.16,368.34 L362.26,367.65 L372.92,365.06 C373.27,364.98 381.69,361.57 395.57,361.87 L418.28,361.21 C381.9,353.02 373.62,356.34 368.84,359.12 C365.7,360.91 365.6,361.31 362.02,363.78 C361.87,363.86 361.02,364.39 360.13,364.91 C358.79,362.25 357.81,359.14 358.7,357.02 C359.75,354.5 361.25,350.93 367.49,348.9 C375.07,346.43 384.11,347.53 389.81,348.39 C392.650962,348.768118 395.452218,349.400659 398.18,350.28 Z" id="Path" fill="#272262" fill-rule="nonzero"></path>
            <path d="M417.37,318.32 L433.15,320.07 C438.181926,320.639508 443.249033,320.836711 448.31,320.66 C451.62,320.54 454.31,320.4 456.14,320.16 C458.154293,319.931466 460.140784,319.502678 462.07,318.88 L462.07,318.88 L460.28,320.34 C460.28,320.34 448.05,329.34 428.13,335.73 C420.640354,338.223667 412.94318,340.044216 405.13,341.17 C399.636786,342.029951 394.043214,342.029951 388.55,341.17 L386.65,340.86 L396.22,336.58 C396.53,336.44 403.83,331.78 416.91,329.67 L438.12,325.11 C402.55,323.72 395.36,328.27 391.35,331.71 C388.72,333.94 388.68,334.33 385.76,337.26 C385.63,337.37 384.93,338.01 384.18,338.65 C382.46,336.39 381,333.65 381.47,331.49 C382.01,328.94 382.81,325.34 388.32,322.36 C395,318.72 403.67,318.19 409.17,318.01 C411.907081,317.864771 414.651697,317.96853 417.37,318.32 Z" id="Path" fill="#272262" fill-rule="nonzero"></path>
            <path d="M430.77,281.53 C431.05,281.53 432.94,281.36 445.85,280.44 C450.658308,280.107498 455.434984,279.415565 460.14,278.37 C463.24,277.69 465.74,277.09 467.39,276.55 C469.241613,275.995622 471.031087,275.251683 472.73,274.33 L472.73,274.33 L471.3,276 C471.3,276 461.4,286.52 443.85,296 C437.276931,299.610442 430.392549,302.622569 423.28,305 C418.28126,306.745107 413.042655,307.706474 407.75,307.85 L405.92,307.85 L414.14,302.2 C414.4,302.02 420.44,296.39 432.32,292.15 L451.39,284.22 C417.84,289.07 411.89,294.57 408.74,298.47 C406.66,301.01 406.74,301.39 404.47,304.64 C404.35,304.77 403.83,305.48 403.22,306.22 C401.22,304.39 399.38,302.07 399.45,299.98 C399.52,297.5 399.64,293.98 404.28,290.24 C409.92,285.68 417.95,283.69 423.07,282.57 C425.6004,281.99376 428.177397,281.645698 430.77,281.53 L430.77,281.53 Z" id="Path" fill="#272262" fill-rule="nonzero"></path>
            <path d="M438,241.84 L451.91,238.23 C456.345271,237.087933 460.690366,235.620627 464.91,233.84 C467.68,232.66 469.91,231.67 471.37,230.84 C472.998261,229.993711 474.539057,228.988844 475.97,227.84 L475.97,227.84 L474.97,229.65 C474.97,229.65 467.53,241.18 452.77,253.02 C447.254568,257.540783 441.344146,261.556925 435.11,265.02 C430.747602,267.511142 426.024587,269.309261 421.11,270.35 L419.41,270.7 L426.1,264 C426.33,263.79 430.99,257.49 441.36,251.49 L457.8,240.79 C427.3,251.1 422.7,257.27 420.43,261.45 C419.326749,263.55878 418.345142,265.728998 417.49,267.95 C417.41,268.09 417.04,268.85 416.6,269.64 C414.43,268.27 412.3,266.43 412.01,264.46 C411.65,262.13 411.15,258.84 414.84,254.53 C419.32,249.31 426.47,246.07 431.06,244.13 C433.301767,243.164796 435.624037,242.398514 438,241.84 Z" id="Path" fill="#272262" fill-rule="nonzero"></path>
            <path d="M438.78,200.74 C439.01,200.62 440.55,199.9 451.1,194.98 C455.037303,193.156287 458.834327,191.043858 462.46,188.66 C464.83,187.09 466.75,185.78 467.96,184.8 C469.337106,183.740272 470.600538,182.540515 471.73,181.22 L471.73,181.22 L471.08,183.09 C471.08,183.09 466.13,195.09 454.41,208.67 C450.044347,213.833955 445.221442,218.593268 440,222.89 C436.368404,225.962772 432.279112,228.449412 427.88,230.26 L426.35,230.88 L431.44,223.49 C431.61,223.25 434.87,216.59 443.5,209.21 L457,196.43 C430.37,211.27 427.13,217.8 425.74,222.09 C425.078275,224.244797 424.537433,226.434875 424.12,228.65 C424.07,228.79 423.85,229.56 423.59,230.37 C421.32,229.47 419.02,228.12 418.41,226.37 C417.68,224.26 416.65,221.28 419.35,216.64 C422.62,211 428.73,206.75 432.67,204.16 C434.598204,202.836209 436.64338,201.691446 438.78,200.74 Z" id="Path" fill="#272262" fill-rule="nonzero"></path>
            <path d="M433.21,159.64 C433.4,159.5 434.71,158.56 443.67,152.19 C447.006263,149.820628 450.164695,147.210327 453.12,144.38 C455.06,142.51 456.61,140.97 457.57,139.85 C458.665235,138.617116 459.633458,137.277014 460.46,135.85 L460.46,135.85 L460.16,137.7 C460.16,137.7 457.63,149.7 449.08,164.3 C445.915914,169.848786 442.261321,175.1031 438.16,180 C435.31329,183.477644 431.938993,186.487517 428.16,188.92 L426.86,189.76 L430.3,182 C430.42,181.74 432.3,175 439.05,166.67 L449.38,152.5 C427.19,170.83 425.31,177.45 424.74,181.68 C424.499452,183.791553 424.37593,185.914798 424.37,188.04 C424.37,188.18 424.28,188.93 424.16,189.73 C421.91,189.29 419.54,188.42 418.67,186.88 C417.67,185.05 416.16,182.45 417.88,177.68 C419.94,171.88 424.88,166.89 428.1,163.81 C429.677032,162.272032 431.387031,160.876593 433.21,159.64 Z" id="Path" fill="#272262" fill-rule="nonzero"></path>
            <path d="M422.81,127.49 C422.96,127.32 424.01,126.23 431.21,118.81 C433.896107,116.051444 436.372962,113.096599 438.62,109.97 C440.1,107.91 441.28,106.22 441.97,104.97 C442.773718,103.649988 443.443704,102.253067 443.97,100.8 L443.97,100.8 L444.02,102.56 C443.417231,111.628453 441.490131,120.559816 438.3,129.07 C436.317421,134.734498 433.830793,140.209765 430.87,145.43 C428.835694,149.152085 426.223152,152.527462 423.13,155.43 L422.07,156.43 L423.94,148.68 C424.01,148.43 424.6,141.87 429.43,133.01 L436.56,118.13 C419.16,138.88 418.56,145.33 418.76,149.34 C418.888696,151.352286 419.132428,153.35556 419.49,155.34 C419.49,155.48 419.56,156.18 419.59,156.94 C417.43,156.94 415.09,156.52 414.02,155.24 C412.74,153.72 410.94,151.56 411.71,146.86 C412.64,141.14 416.36,135.68 418.81,132.29 C419.994122,130.571333 421.333038,128.964634 422.81,127.49 L422.81,127.49 Z" id="Path" fill="#272262" fill-rule="nonzero"></path>
            <path d="M403,84.22 L409.27,74.8 C411.280851,71.8000729 413.065775,68.654729 414.61,65.39 C415.61,63.24 416.42,61.48 416.85,60.26 C417.368546,58.9074428 417.753709,57.5074598 418,56.08 L418,56.08 L418.33,57.69 C419.322899,66.1478113 419.070211,74.7055089 417.58,83.09 C416.709685,88.646404 415.347669,94.1145465 413.51,99.43 C412.251755,103.188845 410.420137,106.730648 408.08,109.93 L407.26,111.02 L407.68,103.57 C407.68,103.33 407.13,97.18 410.06,88.2 L414.06,73.28 C401.56,95.36 402.06,101.4 402.96,105.06 C403.42493,106.876216 403.98911,108.66557 404.65,110.42 C404.65,110.54 404.86,111.18 405.01,111.87 C403.01,112.22 400.8,112.25 399.59,111.25 C397.239255,109.568502 395.90541,106.806613 396.05,103.92 C395.92,98.5 398.43,92.83 400.11,89.29 C400.927683,87.5210353 401.894509,85.8249086 403,84.22 L403,84.22 Z" id="Path" fill="#272262" fill-rule="nonzero"></path>
            <path d="M379.84,46 L384,36.26 C385.334456,33.17047 386.434236,29.9847866 387.29,26.73 C387.86,24.59 388.29,22.84 388.48,21.64 C388.731738,20.3221692 388.842362,18.981269 388.81,17.64 L388.81,17.64 L389.4,19 C391.736791,26.6062185 392.949603,34.5130776 393,42.47 C393.128633,47.7159082 392.794002,52.9629333 392,58.15 C391.491046,61.8147577 390.404219,65.3756358 388.78,68.7 L388.22,69.84 L387.34,62.93 C386.315348,58.1626996 386.176369,53.2475829 386.93,48.43 L388.11,34.05 C380.38,56.42 381.89,61.88 383.3,65.05 C384.035304,66.6368651 384.856521,68.1824892 385.76,69.68 C385.76,69.79 386.08,70.35 386.34,70.95 C384.57,71.61 382.54,72.01 381.26,71.3 C378.816936,70.1578967 377.121768,67.8524682 376.76,65.18 C375.76,60.23 377.08,54.6 378.02,51.06 C378.476408,49.3230079 379.085445,47.6297534 379.84,46 L379.84,46 Z" id="Path" fill="#272262" fill-rule="nonzero"></path>
            <path d="M379.78,132 L373.78,121.53 C371.85632,118.198915 369.690489,115.013674 367.3,112 C365.73,110 364.43,108.42 363.46,107.42 C362.413222,106.286246 361.257681,105.257983 360.01,104.35 L360.01,104.35 L361.71,104.8 C361.71,104.8 372.71,108.26 385.62,117.6 C390.511942,121.071793 395.086511,124.970383 399.29,129.25 C402.279495,132.242227 404.792075,135.675524 406.74,139.43 L407.4,140.74 L400.47,136.79 C400.25,136.67 394.1,134.28 386.92,127.2 L374.59,116.2 C389.73,138.64 395.77,141.01 399.67,141.92 C401.627432,142.342197 403.607297,142.652699 405.6,142.85 C405.72,142.85 406.42,143.02 407.16,143.2 C406.54,145.27 405.52,147.4 403.99,148.08 C402.17,148.89 399.61,150.03 395.3,147.99 C390.07,145.53 385.84,140.44 383.25,137.15 C381.940038,135.541753 380.778615,133.818028 379.78,132 Z" id="Path" fill="#272262" fill-rule="nonzero"></path>
            <path d="M365.06,81 L354.38,77.26 C350.973492,76.0847946 347.657906,74.6609641 344.46,73 C342.36,71.9 340.66,71 339.58,70.26 C338.352868,69.4914297 337.206985,68.6001879 336.16,67.6 L336.16,67.6 L336.86,69.09 C341.166899,76.438227 346.527154,83.1158048 352.77,88.91 C356.804667,92.8268926 361.182168,96.3744086 365.85,99.51 C369.113901,101.754666 372.706757,103.478562 376.5,104.62 L377.82,105.01 L373,99.25 C369.976872,94.9850931 366.193701,91.3137903 361.84,88.42 L349.62,78.94 C372.9,89.04 376.12,94.18 377.62,97.62 C378.34135,99.3505396 378.965652,101.119952 379.49,102.92 C379.55,103.03 379.8,103.65 380.08,104.31 C381.88,103.38 383.68,102.07 384.08,100.54 C384.956932,97.7801855 384.364943,94.7636841 382.51,92.54 C379.34,88.14 373.92,85.13 370.45,83.3 C368.72307,82.3792319 366.919671,81.6096924 365.06,81 L365.06,81 Z" id="Path" fill="#272262" fill-rule="nonzero"></path>
            <path d="M302.9,420.45 L322.27,435.45 C328.434463,440.243917 334.949355,444.569351 341.76,448.39 C346.23,450.9 349.9,452.88 352.48,454.01 C355.316348,455.329469 358.27782,456.361294 361.32,457.09 L361.32,457.09 L357.79,457.57 C357.73,457.57 334.47,459.57 303.1,452.04 C291.244617,449.32017 279.655387,445.548567 268.47,440.77 C260.55386,437.492666 253.198466,432.998453 246.67,427.45 L244.41,425.51 L260.41,427.51 C260.94,427.59 274.29,427.3 293.21,435.02 L324.8,446.02 C279.09,415.67 266,415.89 258,417.2 C252.74,418.02 252.39,418.52 246.17,420.03 C245.91,420.03 244.49,420.35 242.97,420.59 C242.54,416.23 242.81,411.44 245.15,408.99 C247.91,406.08 251.85,401.99 261.5,402.46 C273.21,403.03 285.06,409.3 292.45,413.46 C296.134055,415.474958 299.63122,417.81421 302.9,420.45 L302.9,420.45 Z" id="Path" fill="#272262" fill-rule="nonzero"></path>
            <path d="M131.28,24.91 C131.28,24.75 131.5,23.66 132.77,16.23 C133.230652,13.4603265 133.899209,10.7292722 134.77,8.06 C135.34,6.31 135.83,4.89 136.25,3.97 C136.666322,2.91566441 137.196105,1.90974716 137.83,0.97 L137.83,0.97 L136.83,1.7 C131.738622,5.96146148 127.301205,10.9480803 123.66,16.5 C121.180196,20.1054409 119.025085,23.9237363 117.22,27.91 C115.920729,30.7066619 115.067071,33.6894054 114.69,36.75 L114.57,37.81 L118.31,33.37 C121.194615,30.486792 123.523469,27.0969016 125.18,23.37 L130.87,12.77 C126.14,31.94 122.61,35.07 120.16,36.68 C118.926011,37.4583712 117.650814,38.1694103 116.34,38.81 L115.34,39.43 C116.34,40.7 117.52,41.9 118.74,41.98 C120.967576,42.2856859 123.197782,41.438057 124.66,39.73 C127.66,36.73 129.24,32.19 130.19,29.29 C130.684972,27.8659463 131.049799,26.3999442 131.28,24.91 Z" id="Path" fill="#272262" fill-rule="nonzero"></path>
            <path d="M352,47.8 L341.61,45.94 C338.289253,45.3592565 335.016741,44.5302646 331.82,43.46 C329.73,42.76 328.03,42.16 326.93,41.67 C325.683443,41.1464249 324.493883,40.4963557 323.38,39.73 L323.38,39.73 L324.25,41 C329.304872,47.1298531 335.23917,52.477798 341.86,56.87 C346.155338,59.8785024 350.713895,62.4924769 355.48,64.68 C358.824013,66.2591458 362.393373,67.3083622 366.06,67.79 L367.32,67.95 L362.04,63.41 C358.613615,59.9396805 354.58035,57.1265624 350.14,55.11 L337.5,48.2 C360.45,54.03 364.18,58.28 366.08,61.2 C367.011655,62.6796285 367.856416,64.2122191 368.61,65.79 C368.67,65.89 368.99,66.43 369.35,66.98 C370.88,65.85 372.35,64.38 372.43,62.92 C372.816893,60.2502377 371.818268,57.5671395 369.78,55.8 C366.21,52.22 360.78,50.26 357.3,49.1 C355.574984,48.5117087 353.801447,48.0766903 352,47.8 Z" id="Path" fill="#272262" fill-rule="nonzero"></path>
            <path d="M350.08,26.08 C350.08,25.92 349.86,24.83 348.59,17.4 C348.125471,14.6344016 347.45698,11.9069582 346.59,9.24 C346.01,7.48 345.52,6.07 345.12,5.14 C344.681712,4.09213878 344.146029,3.08773296 343.52,2.14 L343.52,2.14 L344.57,2.87 C349.650237,7.12562966 354.080491,12.1016635 357.72,17.64 C360.198599,21.2444133 362.350473,25.0629024 364.15,29.05 C365.449349,31.847349 366.306233,34.8295766 366.69,37.89 L366.8,39 L363.05,34.56 C360.166843,31.6777132 357.841128,28.2874588 356.19,24.56 L350.5,14 C355.23,33.17 358.76,36.31 361.21,37.91 C362.432678,38.6779735 363.698056,39.3757675 365,40 C365.08,40.05 365.53,40.32 366,40.63 C365.05,41.89 363.81,43.09 362.6,43.17 C360.374204,43.4780982 358.144325,42.6343604 356.68,40.93 C353.68,37.93 352.1,33.38 351.16,30.48 C350.66757,29.0490439 350.306086,27.5763313 350.08,26.08 Z" id="Path" fill="#272262" fill-rule="nonzero"></path>
            <path d="M163.38,196.8 C161.944949,201.686868 160.198032,206.476694 158.15,211.14 C155.4,211.62 147.99,213.42 140.77,213.42 C118.06,213.42 106.47,197.75 106.47,181.69 C106.47,161.36 121.47,148.92 142.95,148.92 C150.74,148.92 157.3,150.72 160.43,151.1 C160.81,155.38 161.43,161.17 162.24,165.92 L159.24,166.59 C157.34,160.22 154.87,156.04 150.03,154.05 C147.008009,152.863969 143.774272,152.312532 140.53,152.43 C124.53,152.43 116.3,165.16 116.3,179.7 C116.3,198.04 126.85,209.82 141.3,209.82 C150.99,209.82 155.64,205.35 160.49,195.82 L163.38,196.8 Z" id="Path" fill="#1B1464" fill-rule="nonzero"></path>
            <path d="M229.59,196.8 C228.154949,201.686868 226.408032,206.476694 224.36,211.14 C221.61,211.62 214.2,213.42 206.98,213.42 C184.27,213.42 172.68,197.75 172.68,181.69 C172.68,161.36 187.68,148.92 209.16,148.92 C216.95,148.92 223.51,150.72 226.64,151.1 C227.02,155.38 227.69,161.17 228.45,165.92 L225.5,166.59 C223.6,160.22 221.13,156.04 216.29,154.05 C213.268009,152.863969 210.034272,152.312532 206.79,152.43 C190.79,152.43 182.56,165.16 182.56,179.7 C182.56,198.04 193.11,209.82 207.56,209.82 C217.25,209.82 221.9,205.35 226.75,195.82 L229.59,196.8 Z" id="Path" fill="#1B1464" fill-rule="nonzero"></path>
            <path d="M291.91,212 L291.91,209.34 C299.7,208.58 299.98,208.01 299.91,197.84 L300,159.08 C292.21,176.47 279.67,203.64 276.35,212 L273.88,212 C270.65,203.35 259.88,177.23 252.69,160 C251.08,193.26 250.98,200.76 250.98,202.56 C251.08,207.89 253.45,208.64 259.91,209.31 L259.91,212 L237.38,212 L237.38,209.34 C242.89,208.77 245.17,207.63 245.93,202.5 C246.5,198.32 246.59,194.9 249.06,160.22 C249.44,155.28 248.49,153.67 240.13,152.91 L240.13,150.25 L256.66,150.25 L277.66,198.42 L300.17,150.25 L316.8,150.25 L316.8,152.91 C308.63,153.91 307.58,154.71 307.8,161.36 L308.18,197.84 C308.56,208.01 308.85,208.49 317.18,209.34 L317.18,212 L291.91,212 Z" id="Path" fill="#1B1464" fill-rule="nonzero"></path>
            <path d="M350.23,150.25 C356.98,150.25 362.39,151.48 366.29,154.33 C369.99,157.09 372.56,161.55 372.56,167.82 C372.56,181.69 360.68,187.3 351.66,187.3 C350.799633,187.305439 349.940214,187.241902 349.09,187.11 L342.54,185.4 L342.54,200.22 C342.54,208.22 343.2,208.39 351.94,209.34 L351.94,212 L325.72,212 L325.72,209.34 C333.89,208.49 334.27,207.92 334.27,200.03 L334.27,162.31 C334.27,153.86 333.27,153.67 325.72,152.91 L325.72,150.25 L350.23,150.25 Z M342.54,182.07 C344.739798,182.956717 347.099213,183.378893 349.47,183.31 C355.84,183.31 363.72,180.08 363.72,168.11 C363.72,157.66 356.88,153.48 348.9,153.48 C346.15,153.48 344.15,153.95 343.58,154.62 C342.82,155.28 342.58,156.42 342.58,158.99 L342.54,182.07 Z" id="Shape" fill="#1B1464" fill-rule="nonzero"></path>
            <path d="M412.1,225 C412.1,316.13 333.1,390 235.6,390 C138.1,390 59.1,316.13 59.1,225 M159,348.18 C165,348.18 171,344.96 171,344.96 C171,344.96 167.32,349.56 172.84,349.1 C178.36,348.64 183.4,343.1 183.4,343.1 C182.48,346.31 184.78,346.77 184.78,346.77 C191.67,346.31 196.26,338.04 196.26,338.04 C196.26,338.04 196.72,342.64 199.02,342.64 C200.86,342.64 206.83,336.64 207.75,335.75 C208.07,335.42 208.21,337.58 210.5,338.04 C212.79,338.5 215.1,333.45 215.1,333.45 C215.1,333.45 216.02,336.2 218.31,335.75 C220.6,335.3 221.99,332.07 221.99,332.07 C222.354671,333.034655 222.817079,333.95947 223.37,334.83 C223.83,335.29 225.66,333.45 225.66,333.45 C225.66,333.45 228.88,339.45 227.96,344.45 C227.04,349.45 218.31,361.45 216.48,363.75 C215.523177,364.835808 215.36912,366.412291 216.097634,367.662794 C216.826149,368.913296 218.27353,369.556818 219.69,369.26 C223.37,368.8 224.29,366.5 226.12,366.5 C227.95,366.5 228.42,371.56 231.18,371.56 C233.94,371.56 234.39,367.42 235.77,367.42 C237.15,367.42 236.23,371.1 239.9,371.56 C243.57,372.02 244.5,366.5 246.34,366.5 C248.18,366.5 249.55,371.1 251.85,367.88 C254.15,364.66 242.66,351.8 242.2,343.99 C241.74,336.18 253.2,332.51 253.2,332.51 C253.66,333.89 258.25,336.64 258.71,336.18 C259.138742,335.471568 259.449461,334.698147 259.63,333.89 C260.09,335.73 263.76,337.56 265.14,338.02 C266.52,338.48 267.44,335.73 267.44,335.73 C270.65,341.24 275.25,342.62 277.08,342.62 C278.91,342.62 278.92,338.48 278.92,338.48 C282.14,344.48 289.92,347.67 291.32,346.75 C292.72,345.83 291.78,343.53 291.78,343.53 C291.78,343.53 300.51,349.05 304.19,349.53 C307.87,350.01 304.65,344.93 304.65,344.93 C321.18,352.74 320.72,344.47 319.81,341.72 C318.9,338.97 302.81,332.99 300.05,327.48 C290.95,309.28 267.9,293.02 260.55,296.24 C256.95,297.81 258.25,303.13 257.33,307.24 C256.41,311.35 250.44,312.3 250.44,312.3 C250.44,312.3 251.36,309.54 247.68,305.87 C237.58,297.14 241.25,294.38 241.25,294.38 L246.31,293.46 L241.71,291.63 C241.71,291.63 240.33,287.95 237.58,287.95 C234.83,287.95 227.93,288.87 228.39,294.84 C228.85,300.81 232.98,313.22 225.63,312.3 C218.28,311.38 218.28,308.62 217.37,307.24 C216.46,305.86 219.66,296.24 214.61,296.68 C185.75,299.3 177.61,334.93 157.19,340.78 C153.9,341.75 153,348.18 159,348.18 Z" id="Shape" fill="#272262" fill-rule="nonzero"></path>
            <path d="M121.84,263.6 C122.47,265.6 123.98,267.03 127.48,267.03 C130.98,267.03 132.17,265.75 132.17,264.16 C132.17,262.57 131.17,261.46 126.65,260.69 C120.91,259.69 119.65,257.89 119.65,255.39 C119.65,252.04 122.84,250.19 126.93,250.19 C133.01,250.19 134.49,253.35 134.7,255.28 L131.62,255.28 C131.28,254.11 130.53,252.55 126.85,252.55 C124.32,252.55 122.76,253.4 122.76,255.09 C122.76,256.5 123.51,257.35 127.53,258.03 C134.26,259.19 135.34,261.27 135.34,263.85 C135.34,266.85 132.96,269.38 127.26,269.38 C121.97,269.38 119.36,266.98 118.78,263.6 L121.84,263.6 Z" id="Path" fill="#FFFFFF" fill-rule="nonzero"></path>
            <path d="M156.43,263.5 C155.43,266.68 153.05,269.39 147.67,269.39 C141.43,269.39 138.14,265.04 138.14,259.82 C138.042929,257.225096 139.034007,254.707564 140.873958,252.875208 C142.71391,251.042852 145.235519,250.062196 147.83,250.17 C153.23,250.17 155.83,253.11 156.48,256.17 L153.37,256.17 C152.67,254.44 151.3,252.68 147.79,252.68 C143.79,252.68 141.37,255.68 141.37,259.68 C141.37,263.68 143.69,266.89 147.82,266.89 C151.09,266.89 152.42,265.51 153.35,263.47 L156.43,263.5 Z" id="Path" fill="#FFFFFF" fill-rule="nonzero"></path>
            <polygon id="Path" fill="#FFFFFF" fill-rule="nonzero" points="160.05 250.57 163.05 250.57 163.05 257.89 173.52 257.89 173.52 250.57 176.57 250.57 176.57 269 173.52 269 173.52 260.42 163.1 260.42 163.1 269 160.1 269"></polygon>
            <path d="M200.28,259.72 C200.28,264.91 196.79,269.39 190.48,269.39 C184.48,269.39 180.79,265.12 180.79,259.72 C180.958537,254.459469 185.27177,250.28221 190.535,250.28221 C195.79823,250.28221 200.111463,254.459469 200.28,259.72 L200.28,259.72 Z M184,259.66 C184,263.51 186.27,266.89 190.6,266.89 C194.93,266.89 197.05,263.54 197.05,259.78 C197.05,256.02 194.83,252.67 190.43,252.67 C186.31,252.67 184,256 184,259.66 Z" id="Shape" fill="#FFFFFF" fill-rule="nonzero"></path>
            <path d="M222.77,259.72 C222.77,264.91 219.27,269.39 212.97,269.39 C210.365931,269.516576 207.82915,268.539533 205.982769,266.698862 C204.136387,264.858191 203.15149,262.324448 203.27,259.72 C203.235072,257.132801 204.264747,254.644905 206.117823,252.839101 C207.970899,251.033298 210.484567,250.068242 213.07,250.17 C215.646596,250.066972 218.150936,251.034917 219.988473,252.844038 C221.82601,254.653159 222.832863,257.142111 222.77,259.72 Z M206.5,259.66 C206.5,263.51 208.76,266.89 213.1,266.89 C217.44,266.89 219.54,263.54 219.54,259.78 C219.54,256.02 217.33,252.67 212.93,252.67 C208.8,252.67 206.5,256 206.5,259.66 Z" id="Shape" fill="#FFFFFF" fill-rule="nonzero"></path>
            <polygon id="Path" fill="#FFFFFF" fill-rule="nonzero" points="226.78 250.57 229.78 250.57 229.78 266.46 240.71 266.46 240.3 269 226.78 269"></polygon>
            <path d="M269.63,259.72 C269.63,264.91 266.14,269.39 259.83,269.39 C253.83,269.39 250.14,265.12 250.14,259.72 C250.308537,254.459469 254.62177,250.28221 259.885,250.28221 C265.14823,250.28221 269.461463,254.459469 269.63,259.72 L269.63,259.72 Z M253.36,259.66 C253.36,263.51 255.63,266.89 259.96,266.89 C264.29,266.89 266.41,263.54 266.41,259.78 C266.41,256.02 264.19,252.67 259.79,252.67 C255.66,252.67 253.36,256 253.36,259.66 L253.36,259.66 Z" id="Shape" fill="#FFFFFF" fill-rule="nonzero"></path>
            <polygon id="Path" fill="#FFFFFF" fill-rule="nonzero" points="273.66 250.57 288 250.57 288 253.08 276.71 253.08 276.71 258.65 287.19 258.65 287.19 261.2 276.71 261.2 276.71 269 273.71 269"></polygon>
            <polygon id="Path" fill="#FFFFFF" fill-rule="nonzero" points="299.12 250.57 302.12 250.57 302.12 266.46 313.04 266.46 312.6 269 299.12 269"></polygon>
            <path d="M320.15,263.75 L318,269 L314.84,269 L322.64,250.57 L326.42,250.57 L334.51,269 L331.2,269 L328.9,263.75 L320.15,263.75 Z M327.95,261.2 C325.83,256.32 324.82,253.97 324.39,252.68 L324.39,252.68 C324,253.93 322.81,257 321.06,261.2 L327.95,261.2 Z" id="Shape" fill="#FFFFFF" fill-rule="nonzero"></path>
            <path d="M339.62,269 L334,250.57 L337.21,250.57 C338.51,255.04 341.07,263.47 341.47,266.13 L341.47,266.13 C342,263.33 344.67,254.99 346.07,250.57 L349.07,250.57 C350.34,254.68 353.14,263.86 353.56,266.05 L353.56,266.05 C354.13,263.14 356.74,254.83 358.06,250.57 L361.13,250.57 L355.13,269 L351.81,269 C350.52,264.84 347.81,256.1 347.34,253.81 L347.34,253.81 C346.86,256.34 344.34,264.34 342.82,269 L339.62,269 Z" id="Path" fill="#FFFFFF" fill-rule="nonzero"></path>
        </g>
    </g>
</svg>